<?xml version="1.0" encoding="UTF-8"?>
<svg xmlns="http://www.w3.org/2000/svg" xmlns:xlink="http://www.w3.org/1999/xlink" width="100px" height="100px" viewBox="0 0 100 100" version="1.1">
<g id="surface1">
<path style=" stroke:none;fill-rule:nonzero;fill:rgb(3.137255%,2.745098%,3.137255%);fill-opacity:1;" d="M 56.5625 5.144531 C 58.066406 6.796875 58.675781 8.753906 58.664062 10.960938 C 58.664062 11.199219 58.664062 11.199219 58.660156 11.441406 C 58.640625 12.632812 58.46875 13.695312 58 14.800781 C 58.1875 14.871094 58.371094 14.941406 58.566406 15.011719 C 60.933594 15.921875 63.433594 16.960938 65.398438 18.601562 C 65.398438 18.730469 65.398438 18.863281 65.398438 19 C 65.609375 19.066406 65.609375 19.066406 65.824219 19.136719 C 66.546875 19.46875 67.015625 19.859375 67.601562 20.398438 C 67.601562 20.53125 67.601562 20.664062 67.601562 20.800781 C 67.714844 20.847656 67.828125 20.894531 67.945312 20.945312 C 69.515625 21.828125 70.632812 23.722656 71.601562 25.199219 C 71.726562 25.382812 71.855469 25.566406 71.984375 25.757812 C 73.691406 28.332031 74.792969 31.378906 75.398438 34.398438 C 75.453125 34.644531 75.453125 34.644531 75.507812 34.894531 C 75.910156 37.054688 75.855469 39.230469 75.855469 41.417969 C 75.855469 42.167969 75.855469 42.917969 75.859375 43.667969 C 75.871094 45.796875 75.875 47.925781 75.875 50.054688 C 75.878906 51.359375 75.882812 52.667969 75.890625 53.976562 C 75.890625 54.46875 75.890625 54.960938 75.890625 55.453125 C 75.875 62.484375 77.101562 68.832031 81.601562 74.398438 C 81.769531 74.566406 81.769531 74.566406 81.945312 74.734375 C 82.199219 75 82.199219 75 82.199219 75.398438 C 82.398438 75.464844 82.597656 75.53125 82.800781 75.601562 C 83.070312 75.929688 83.339844 76.261719 83.601562 76.601562 C 83.730469 76.664062 83.863281 76.730469 84 76.800781 C 84 76.933594 84 77.0625 84 77.199219 C 84.132812 77.199219 84.265625 77.199219 84.398438 77.199219 C 84.398438 77.332031 84.398438 77.464844 84.398438 77.601562 C 84.566406 77.660156 84.566406 77.660156 84.738281 77.726562 C 85.820312 78.367188 86.433594 79.421875 86.800781 80.601562 C 86.945312 81.917969 86.925781 83.253906 86.199219 84.398438 C 85.21875 85.496094 84.253906 86.136719 82.753906 86.25 C 82.40625 86.246094 82.40625 86.246094 82.050781 86.246094 C 81.921875 86.246094 81.792969 86.246094 81.660156 86.246094 C 81.238281 86.246094 80.816406 86.242188 80.394531 86.238281 C 80.101562 86.238281 79.808594 86.238281 79.511719 86.238281 C 78.742188 86.234375 77.96875 86.230469 77.199219 86.226562 C 76.410156 86.222656 75.621094 86.222656 74.832031 86.21875 C 73.289062 86.214844 71.746094 86.207031 70.199219 86.199219 C 70.160156 86.351562 70.121094 86.5 70.078125 86.65625 C 70 86.949219 70 86.949219 69.917969 87.253906 C 69.867188 87.449219 69.816406 87.644531 69.761719 87.84375 C 69.171875 89.875 68.003906 91.640625 66.601562 93.199219 C 66.421875 93.410156 66.421875 93.410156 66.242188 93.621094 C 63.917969 96.175781 60.179688 97.558594 56.8125 97.851562 C 53.085938 97.996094 49.519531 96.675781 46.601562 94.398438 C 46.601562 94.269531 46.601562 94.136719 46.601562 94 C 46.429688 93.929688 46.429688 93.929688 46.253906 93.859375 C 44.105469 92.636719 42.644531 89.296875 42 87 C 42 86.734375 42 86.472656 42 86.199219 C 41.871094 86.199219 41.742188 86.203125 41.609375 86.203125 C 38.453125 86.21875 35.300781 86.234375 32.148438 86.242188 C 30.621094 86.246094 29.097656 86.25 27.574219 86.261719 C 26.242188 86.269531 24.914062 86.273438 23.582031 86.273438 C 22.878906 86.277344 22.175781 86.277344 21.472656 86.285156 C 20.6875 86.292969 19.898438 86.292969 19.113281 86.289062 C 18.882812 86.292969 18.648438 86.296875 18.410156 86.300781 C 16.871094 86.292969 15.800781 86.078125 14.59375 85.058594 C 13.542969 83.761719 13.355469 82.691406 13.308594 81.039062 C 13.554688 79.332031 14.558594 78.371094 15.8125 77.273438 C 18.183594 75.113281 19.933594 72.816406 21.40625 69.96875 C 21.578125 69.640625 21.757812 69.320312 21.9375 68.996094 C 22.675781 67.5625 23.078125 66.085938 23.460938 64.523438 C 23.539062 64.21875 23.539062 64.21875 23.617188 63.910156 C 24.214844 61.339844 24.230469 58.730469 24.214844 56.105469 C 24.210938 55.640625 24.210938 55.175781 24.210938 54.710938 C 24.207031 53.550781 24.203125 52.390625 24.199219 51.230469 C 24.183594 47.621094 24.179688 44.011719 24.273438 40.40625 C 24.28125 40.144531 24.289062 39.886719 24.292969 39.617188 C 24.523438 32.308594 27.230469 25.46875 32.601562 20.398438 C 33.492188 19.613281 34.433594 18.894531 35.398438 18.199219 C 35.578125 18.070312 35.757812 17.941406 35.941406 17.808594 C 37.710938 16.605469 40.050781 15.300781 42.199219 15 C 42.136719 14.792969 42.074219 14.582031 42.011719 14.367188 C 41.296875 11.816406 41.140625 9.390625 42.398438 6.953125 C 42.464844 6.835938 42.53125 6.71875 42.601562 6.601562 C 42.707031 6.398438 42.816406 6.195312 42.925781 5.988281 C 43.015625 5.859375 43.105469 5.730469 43.199219 5.601562 C 43.332031 5.601562 43.464844 5.601562 43.601562 5.601562 C 43.652344 5.480469 43.703125 5.359375 43.757812 5.238281 C 44.53125 3.847656 46.375 3.125 47.800781 2.601562 C 51.042969 1.855469 54.183594 2.886719 56.5625 5.144531 Z M 48.398438 8.800781 C 48.335938 8.996094 48.269531 9.195312 48.199219 9.398438 C 48.066406 9.398438 47.9375 9.398438 47.800781 9.398438 C 47.398438 10.226562 47.304688 10.882812 47.398438 11.800781 C 47.8125 12.5625 48.226562 13.191406 49 13.601562 C 49.90625 13.804688 50.371094 13.878906 51.25 13.574219 C 52.152344 12.960938 52.527344 12.5 52.789062 11.425781 C 52.851562 10.554688 52.652344 9.957031 52.199219 9.199219 C 50.925781 8.148438 49.835938 7.953125 48.398438 8.800781 Z M 46 20 C 45.683594 20.050781 45.683594 20.050781 45.355469 20.105469 C 41.921875 20.761719 38.089844 22.953125 35.800781 25.601562 C 35.671875 25.742188 35.539062 25.882812 35.40625 26.027344 C 34.679688 26.714844 34.679688 26.714844 34.398438 27.601562 C 34.269531 27.601562 34.136719 27.601562 34 27.601562 C 30.867188 32.804688 30.179688 37.398438 30.160156 43.414062 C 30.15625 44.117188 30.152344 44.816406 30.148438 45.519531 C 30.136719 47.515625 30.125 49.507812 30.121094 51.503906 C 30.117188 52.730469 30.109375 53.957031 30.097656 55.183594 C 30.097656 55.644531 30.09375 56.105469 30.09375 56.566406 C 30.089844 58.890625 30.027344 61.179688 29.730469 63.488281 C 29.710938 63.667969 29.6875 63.851562 29.664062 64.039062 C 29.140625 67.722656 27.5625 71.421875 25.640625 74.59375 C 25.367188 74.980469 25.367188 74.980469 25.398438 75.398438 C 25.269531 75.398438 25.136719 75.398438 25 75.398438 C 24.792969 75.707031 24.597656 76.027344 24.414062 76.351562 C 23.679688 77.542969 22.8125 78.507812 21.851562 79.511719 C 21.398438 79.957031 21.398438 79.957031 21.199219 80.398438 C 40.273438 80.398438 59.347656 80.398438 79 80.398438 C 78.867188 80.335938 78.734375 80.269531 78.601562 80.199219 C 78.601562 80.066406 78.601562 79.9375 78.601562 79.800781 C 78.332031 79.464844 78.332031 79.464844 78 79.199219 C 77.867188 79.199219 77.734375 79.199219 77.601562 79.199219 C 77.550781 79.09375 77.503906 78.988281 77.457031 78.878906 C 77.195312 78.386719 76.886719 77.953125 76.554688 77.507812 C 74.546875 74.792969 72.96875 71.96875 71.800781 68.800781 C 71.71875 68.585938 71.640625 68.371094 71.558594 68.152344 C 70.613281 65.472656 70.171875 62.773438 70.164062 59.945312 C 70.164062 59.722656 70.164062 59.5 70.160156 59.269531 C 70.160156 58.789062 70.15625 58.304688 70.152344 57.824219 C 70.152344 57.054688 70.144531 56.289062 70.140625 55.519531 C 70.128906 53.339844 70.113281 51.160156 70.105469 48.976562 C 70.097656 47.640625 70.089844 46.304688 70.082031 44.96875 C 70.078125 44.460938 70.074219 43.957031 70.074219 43.449219 C 70.054688 38.492188 69.789062 34.21875 67.398438 29.800781 C 67.28125 29.574219 67.164062 29.351562 67.039062 29.117188 C 66.394531 27.945312 65.710938 27.011719 64.71875 26.105469 C 64.398438 25.800781 64.398438 25.800781 64.199219 25.398438 C 64.066406 25.398438 63.9375 25.398438 63.800781 25.398438 C 63.800781 25.269531 63.800781 25.136719 63.800781 25 C 63.667969 25 63.535156 25 63.398438 25 C 63.398438 24.867188 63.398438 24.734375 63.398438 24.601562 C 59.597656 21.136719 54.515625 19.515625 49.441406 19.570312 C 48.277344 19.625 47.144531 19.800781 46 20 Z M 48.199219 86.199219 C 48.910156 88.691406 50.539062 90.070312 52.746094 91.304688 C 54.8125 92.183594 57.363281 92.089844 59.4375 91.292969 C 61.152344 90.402344 63.039062 88.839844 63.800781 87 C 63.800781 86.734375 63.800781 86.472656 63.800781 86.199219 C 58.652344 86.199219 53.503906 86.199219 48.199219 86.199219 Z M 48.199219 86.199219 "/>
<path style=" stroke:none;fill-rule:nonzero;fill:rgb(4.313726%,4.313726%,4.313726%);fill-opacity:1;" d="M 8.800781 42.199219 C 9.8125 42.765625 10.433594 43.296875 10.800781 44.398438 C 10.910156 45.546875 10.691406 46.296875 10 47.199219 C 9.71875 47.492188 9.433594 47.785156 9.148438 48.074219 C 6.777344 50.648438 5.847656 54.214844 5.957031 57.644531 C 6.109375 60.273438 6.9375 62.605469 8.371094 64.816406 C 8.601562 65.199219 8.601562 65.199219 8.601562 65.601562 C 8.730469 65.601562 8.863281 65.601562 9 65.601562 C 9.285156 65.914062 9.550781 66.242188 9.8125 66.574219 C 10.027344 66.847656 10.027344 66.847656 10.246094 67.125 C 10.851562 67.9375 10.898438 68.605469 10.800781 69.601562 C 10.480469 70.621094 9.941406 71.101562 9.035156 71.617188 C 8.109375 72.003906 7.335938 71.917969 6.386719 71.585938 C 5.039062 70.699219 4.171875 69.527344 3.261719 68.210938 C 3.125 68.011719 3.125 68.011719 2.980469 67.808594 C -0.00390625 63.398438 -0.832031 57.863281 0.136719 52.664062 C 0.488281 51.25 0.984375 49.917969 1.601562 48.601562 C 1.667969 48.457031 1.730469 48.316406 1.800781 48.171875 C 2.671875 46.378906 3.871094 44.6875 5.199219 43.199219 C 5.332031 43.199219 5.464844 43.199219 5.601562 43.199219 C 5.601562 43.066406 5.601562 42.9375 5.601562 42.800781 C 6.71875 42.207031 7.527344 41.816406 8.800781 42.199219 Z M 8.800781 42.199219 "/>
<path style=" stroke:none;fill-rule:nonzero;fill:rgb(3.529412%,3.529412%,3.529412%);fill-opacity:1;" d="M 93.996094 42.429688 C 95.917969 43.992188 97.601562 46.347656 98.601562 48.601562 C 98.691406 48.785156 98.691406 48.785156 98.785156 48.972656 C 100.691406 52.914062 100.785156 58.773438 99.558594 62.957031 C 99.285156 63.730469 98.964844 64.464844 98.601562 65.199219 C 98.507812 65.40625 98.417969 65.613281 98.324219 65.824219 C 97.757812 66.992188 96.972656 68.03125 96.210938 69.074219 C 96.113281 69.210938 96.015625 69.347656 95.914062 69.488281 C 95.121094 70.539062 94.28125 71.375 93 71.800781 C 91.882812 71.929688 91.242188 71.707031 90.347656 71.082031 C 89.730469 70.582031 89.453125 70.167969 89.339844 69.378906 C 89.265625 68.046875 89.691406 67.394531 90.554688 66.386719 C 93.351562 63.039062 94.550781 59.355469 94.199219 55 C 93.980469 53.191406 93.191406 51.683594 92.347656 50.09375 C 92.078125 49.558594 91.925781 49.167969 91.800781 48.601562 C 91.667969 48.601562 91.535156 48.601562 91.398438 48.601562 C 91.398438 48.46875 91.398438 48.335938 91.398438 48.199219 C 91.269531 48.199219 91.136719 48.199219 91 48.199219 C 91 48.066406 91 47.9375 91 47.800781 C 90.867188 47.800781 90.734375 47.800781 90.601562 47.800781 C 90.347656 47.515625 90.347656 47.515625 90.085938 47.136719 C 90 47.015625 89.914062 46.890625 89.824219 46.765625 C 89.296875 45.90625 89.207031 44.972656 89.398438 44 C 89.886719 43.195312 90.492188 42.601562 91.273438 42.085938 C 92.246094 41.925781 93.121094 41.921875 93.996094 42.429688 Z M 93.996094 42.429688 "/>
<path style=" stroke:none;fill-rule:nonzero;fill:rgb(4.705882%,4.705882%,4.705882%);fill-opacity:1;" d="M 17.199219 50.398438 C 17.984375 51.011719 18.460938 51.664062 18.800781 52.601562 C 18.820312 53.574219 18.558594 54.085938 17.988281 54.835938 C 17.328125 55.765625 17.238281 56.515625 17.292969 57.640625 C 17.429688 58.347656 17.691406 58.734375 18.148438 59.273438 C 18.597656 59.855469 18.765625 60.46875 18.800781 61.199219 C 18.640625 62.175781 18.210938 63.027344 17.402344 63.632812 C 16.523438 64 15.53125 63.921875 14.601562 63.800781 C 14.125 63.59375 14.125 63.59375 13.800781 63.398438 C 13.800781 63.269531 13.800781 63.136719 13.800781 63 C 13.679688 62.949219 13.5625 62.902344 13.4375 62.851562 C 12.257812 62.175781 11.671875 60.664062 11.304688 59.410156 C 10.644531 56.828125 11.050781 54.480469 12.398438 52.199219 C 12.707031 51.742188 12.707031 51.742188 13 51.398438 C 13.132812 51.398438 13.265625 51.398438 13.398438 51.398438 C 13.398438 51.269531 13.398438 51.136719 13.398438 51 C 14.738281 49.996094 15.632812 49.835938 17.199219 50.398438 Z M 17.199219 50.398438 "/>
<path style=" stroke:none;fill-rule:nonzero;fill:rgb(5.098039%,4.705882%,5.098039%);fill-opacity:1;" d="M 86.011719 50.511719 C 87.898438 52.078125 88.964844 53.945312 89.199219 56.398438 C 89.199219 58.816406 88.492188 60.894531 87 62.800781 C 85.945312 63.738281 85.128906 63.878906 83.746094 63.871094 C 82.886719 63.757812 82.574219 63.433594 82 62.800781 C 81.375 61.863281 81.457031 60.894531 81.601562 59.800781 C 81.808594 59.386719 82.050781 59.078125 82.347656 58.726562 C 82.800781 58.140625 82.996094 57.539062 83 56.800781 C 82.769531 55.984375 82.425781 55.269531 81.878906 54.621094 C 81.320312 53.78125 81.445312 52.761719 81.601562 51.800781 C 82.003906 51.019531 82.542969 50.5625 83.273438 50.101562 C 84.300781 49.90625 85.101562 50.046875 86.011719 50.511719 Z M 86.011719 50.511719 "/>
<path style=" stroke:none;fill-rule:nonzero;fill:rgb(36.862746%,36.078432%,36.470589%);fill-opacity:1;" d="M 12 53 C 12.199219 53.398438 12.199219 53.398438 12.023438 54 C 11.800781 54.601562 11.800781 54.601562 11.601562 55 C 11.582031 55.363281 11.578125 55.726562 11.582031 56.089844 C 11.582031 56.304688 11.582031 56.519531 11.582031 56.742188 C 11.585938 56.96875 11.585938 57.191406 11.585938 57.425781 C 11.589844 57.652344 11.589844 57.878906 11.589844 58.113281 C 11.59375 58.675781 11.597656 59.238281 11.601562 59.800781 C 10.679688 58.050781 10.890625 56.050781 11.398438 54.199219 C 11.726562 53.476562 11.726562 53.476562 12 53 Z M 12 53 "/>
<path style=" stroke:none;fill-rule:nonzero;fill:rgb(23.921569%,23.529412%,23.529412%);fill-opacity:1;" d="M 21 70.800781 C 21.199219 71.199219 21.199219 71.199219 21.199219 72 C 20.800781 72.449219 20.800781 72.449219 20.398438 72.800781 C 20.53125 72.867188 20.664062 72.933594 20.800781 73 C 20.222656 73.480469 19.6875 73.894531 19 74.199219 C 19.351562 73.449219 19.789062 72.753906 20.226562 72.050781 C 20.300781 71.929688 20.375 71.808594 20.449219 71.683594 C 20.632812 71.390625 20.816406 71.09375 21 70.800781 Z M 21 70.800781 "/>
<path style=" stroke:none;fill-rule:nonzero;fill:rgb(35.686275%,34.901962%,35.294119%);fill-opacity:1;" d="M 90.199219 43 C 90.332031 43.265625 90.464844 43.527344 90.601562 43.800781 C 90.402344 43.867188 90.203125 43.933594 90 44 C 89.761719 45.136719 89.867188 45.886719 90.199219 47 C 89.65625 46.503906 89.4375 46.128906 89.351562 45.382812 C 89.324219 44.535156 89.324219 44.117188 89.800781 43.386719 C 89.933594 43.257812 90.0625 43.132812 90.199219 43 Z M 90.199219 43 "/>
<path style=" stroke:none;fill-rule:nonzero;fill:rgb(34.901962%,34.509805%,34.901962%);fill-opacity:1;" d="M 90.601562 70.398438 C 90.804688 70.597656 90.804688 70.597656 91.011719 70.800781 C 91.734375 71.292969 92.144531 71.28125 93 71.199219 C 93.132812 71.132812 93.265625 71.066406 93.398438 71 C 93.597656 71.132812 93.796875 71.265625 94 71.398438 C 93.167969 71.800781 92.519531 71.894531 91.601562 71.800781 C 91.09375 71.574219 90.667969 71.304688 90.199219 71 C 90.332031 70.933594 90.464844 70.867188 90.601562 70.800781 C 90.601562 70.667969 90.601562 70.535156 90.601562 70.398438 Z M 90.601562 70.398438 "/>
<path style=" stroke:none;fill-rule:nonzero;fill:rgb(34.901962%,34.117648%,34.509805%);fill-opacity:1;" d="M 4.398438 44.199219 C 4.464844 44.199219 4.53125 44.199219 4.601562 44.199219 C 4.675781 44.875 4.640625 45.144531 4.25 45.710938 C 3.84375 46.152344 3.433594 46.582031 3 47 C 2.867188 46.933594 2.734375 46.867188 2.601562 46.800781 C 2.695312 46.664062 2.792969 46.523438 2.890625 46.382812 C 3.019531 46.203125 3.144531 46.023438 3.273438 45.835938 C 3.398438 45.660156 3.527344 45.480469 3.65625 45.296875 C 3.90625 44.933594 4.15625 44.566406 4.398438 44.199219 Z M 4.398438 44.199219 "/>
<path style=" stroke:none;fill-rule:nonzero;fill:rgb(29.803923%,28.627452%,29.019609%);fill-opacity:1;" d="M 30.800781 22.398438 C 30.933594 22.597656 31.0625 22.796875 31.199219 23 C 31.066406 23 30.9375 23 30.800781 23 C 30.800781 23.132812 30.800781 23.265625 30.800781 23.398438 C 30.601562 23.464844 30.402344 23.53125 30.199219 23.601562 C 30.1875 23.757812 30.175781 23.914062 30.164062 24.074219 C 30.082031 24.335938 30.082031 24.335938 30 24.601562 C 29.488281 24.863281 29.488281 24.863281 29 25 C 29.304688 23.917969 30.054688 23.203125 30.800781 22.398438 Z M 30.800781 22.398438 "/>
<path style=" stroke:none;fill-rule:nonzero;fill:rgb(21.176471%,20.784314%,21.176471%);fill-opacity:1;" d="M 66.601562 27 C 66.914062 27.324219 66.914062 27.324219 67.199219 27.800781 C 67.136719 28.449219 67.136719 28.449219 67 29 C 66.519531 28.421875 66.105469 27.886719 65.800781 27.199219 C 66.0625 27.132812 66.328125 27.066406 66.601562 27 Z M 66.601562 27 "/>
<path style=" stroke:none;fill-rule:nonzero;fill:rgb(37.64706%,37.254903%,37.254903%);fill-opacity:1;" d="M 44.398438 91.601562 C 44.664062 91.601562 44.929688 91.601562 45.199219 91.601562 C 45.332031 92 45.464844 92.398438 45.601562 92.800781 C 45.863281 92.800781 46.128906 92.800781 46.398438 92.800781 C 46.398438 92.933594 46.398438 93.0625 46.398438 93.199219 C 46.269531 93.199219 46.136719 93.199219 46 93.199219 C 45.933594 93.332031 45.867188 93.464844 45.800781 93.601562 C 45.566406 93.304688 45.332031 93.007812 45.101562 92.710938 C 44.96875 92.546875 44.839844 92.382812 44.707031 92.214844 C 44.398438 91.800781 44.398438 91.800781 44.398438 91.601562 Z M 44.398438 91.601562 "/>
<path style=" stroke:none;fill-rule:nonzero;fill:rgb(31.37255%,30.588236%,30.980393%);fill-opacity:1;" d="M 75.800781 60.199219 C 75.867188 60.199219 75.933594 60.199219 76 60.199219 C 76.191406 61.152344 76.214844 62.035156 76.199219 63 C 75.9375 62.867188 75.671875 62.734375 75.398438 62.601562 C 75.53125 61.808594 75.664062 61.015625 75.800781 60.199219 Z M 75.800781 60.199219 "/>
<path style=" stroke:none;fill-rule:nonzero;fill:rgb(30.588236%,28.627452%,28.627452%);fill-opacity:1;" d="M 99.199219 51 C 99.773438 51.863281 100 52.5625 100 53.601562 C 99.800781 53.535156 99.605469 53.46875 99.398438 53.398438 C 99.335938 52.609375 99.269531 51.816406 99.199219 51 Z M 99.199219 51 "/>
<path style=" stroke:none;fill-rule:nonzero;fill:rgb(38.039216%,38.039216%,38.039216%);fill-opacity:1;" d="M 21 70.800781 C 21.199219 71.199219 21.199219 71.199219 21.199219 72 C 20.824219 72.449219 20.824219 72.449219 20.398438 72.800781 C 20.269531 72.800781 20.136719 72.800781 20 72.800781 C 20.230469 72.015625 20.472656 71.425781 21 70.800781 Z M 21 70.800781 "/>
<path style=" stroke:none;fill-rule:nonzero;fill:rgb(43.529412%,42.352942%,42.745098%);fill-opacity:1;" d="M 92.199219 64.199219 C 92.265625 64.332031 92.332031 64.464844 92.398438 64.601562 C 92.148438 65.210938 92.148438 65.210938 91.800781 65.800781 C 91.601562 65.867188 91.402344 65.933594 91.199219 66 C 91.199219 66.132812 91.199219 66.265625 91.199219 66.398438 C 91.066406 66.335938 90.9375 66.269531 90.800781 66.199219 C 91.492188 65.210938 91.492188 65.210938 92.199219 64.199219 Z M 92.199219 64.199219 "/>
<path style=" stroke:none;fill-rule:nonzero;fill:rgb(47.058824%,46.666667%,46.666667%);fill-opacity:1;" d="M 32.199219 20.800781 C 32.265625 20.996094 32.332031 21.195312 32.398438 21.398438 C 32.203125 21.695312 32.203125 21.695312 32 22 C 31.800781 22 31.605469 22 31.398438 22 C 31.398438 22.132812 31.398438 22.265625 31.398438 22.398438 C 31.269531 22.398438 31.136719 22.398438 31 22.398438 C 31.289062 21.726562 31.667969 21.296875 32.199219 20.800781 Z M 32.199219 20.800781 "/>
<path style=" stroke:none;fill-rule:nonzero;fill:rgb(38.431373%,38.039216%,38.039216%);fill-opacity:1;" d="M 22.800781 67 C 22.992188 67.433594 23.027344 67.710938 22.878906 68.164062 C 22.726562 68.515625 22.566406 68.855469 22.398438 69.199219 C 22.269531 69.199219 22.136719 69.199219 22 69.199219 C 22.09375 68.910156 22.191406 68.617188 22.289062 68.324219 C 22.339844 68.164062 22.394531 68 22.449219 67.832031 C 22.601562 67.398438 22.601562 67.398438 22.800781 67 Z M 22.800781 67 "/>
<path style=" stroke:none;fill-rule:nonzero;fill:rgb(32.941177%,32.549021%,32.941177%);fill-opacity:1;" d="M 5.601562 42.800781 C 5.730469 42.800781 5.863281 42.800781 6 42.800781 C 5.886719 43.453125 5.699219 43.765625 5.199219 44.199219 C 5.003906 44.132812 4.804688 44.066406 4.601562 44 C 4.875 43.601562 4.875 43.601562 5.199219 43.199219 C 5.332031 43.199219 5.464844 43.199219 5.601562 43.199219 C 5.601562 43.066406 5.601562 42.9375 5.601562 42.800781 Z M 5.601562 42.800781 "/>
<path style=" stroke:none;fill-rule:nonzero;fill:rgb(49.411765%,48.627451%,49.019608%);fill-opacity:1;" d="M 12 53 C 12.199219 53.398438 12.199219 53.398438 12.050781 53.976562 C 11.824219 54.542969 11.59375 54.9375 11.199219 55.398438 C 11.308594 54.488281 11.558594 53.804688 12 53 Z M 12 53 "/>
<path style=" stroke:none;fill-rule:nonzero;fill:rgb(28.627452%,28.235295%,28.627452%);fill-opacity:1;" d="M 42.199219 15.199219 C 42.003906 15.464844 41.804688 15.726562 41.601562 16 C 41.402344 15.933594 41.203125 15.867188 41 15.800781 C 40.734375 15.730469 40.46875 15.664062 40.199219 15.601562 C 40.457031 15.492188 40.714844 15.390625 40.976562 15.289062 C 41.117188 15.230469 41.261719 15.171875 41.410156 15.113281 C 41.800781 15 41.800781 15 42.199219 15.199219 Z M 42.199219 15.199219 "/>
<path style=" stroke:none;fill-rule:nonzero;fill:rgb(36.078432%,35.686275%,36.078432%);fill-opacity:1;" d="M 79.398438 71.398438 C 79.863281 71.96875 80.148438 72.507812 80.398438 73.199219 C 79.898438 72.976562 79.898438 72.976562 79.398438 72.601562 C 79.335938 71.960938 79.335938 71.960938 79.398438 71.398438 Z M 79.398438 71.398438 "/>
<path style=" stroke:none;fill-rule:nonzero;fill:rgb(21.176471%,20.784314%,21.568628%);fill-opacity:1;" d="M 90.601562 70.398438 C 90.941406 70.65625 91.273438 70.921875 91.601562 71.199219 C 91.601562 71.332031 91.601562 71.464844 91.601562 71.601562 C 91.195312 71.480469 90.796875 71.34375 90.398438 71.199219 C 90.335938 71.066406 90.269531 70.9375 90.199219 70.800781 C 90.332031 70.800781 90.464844 70.800781 90.601562 70.800781 C 90.601562 70.667969 90.601562 70.535156 90.601562 70.398438 Z M 90.601562 70.398438 "/>
<path style=" stroke:none;fill-rule:nonzero;fill:rgb(42.352942%,41.960785%,42.352942%);fill-opacity:1;" d="M 82.800781 50.398438 C 82.933594 50.464844 83.0625 50.53125 83.199219 50.601562 C 82.476562 51.574219 82.476562 51.574219 81.800781 51.800781 C 82.058594 51.222656 82.332031 50.824219 82.800781 50.398438 Z M 82.800781 50.398438 "/>
</g>
</svg>
