<?xml version="1.0" encoding="UTF-8"?>
<svg xmlns="http://www.w3.org/2000/svg" xmlns:xlink="http://www.w3.org/1999/xlink" width="50px" height="50px" viewBox="0 0 50 50" version="1.1">
<g id="surface1">
<path style=" stroke:none;fill-rule:nonzero;fill:rgb(1.176471%,0.784314%,0.784314%);fill-opacity:1;" d="M 34.175781 22.257812 C 34.214844 22.640625 34.25 23.023438 34.28125 23.417969 C 34.367188 23.445312 34.449219 23.480469 34.53125 23.511719 C 35.851562 24.027344 36.90625 24.785156 37.539062 26.09375 C 38.082031 27.417969 38.117188 28.773438 37.578125 30.109375 C 37.363281 30.550781 37.113281 30.941406 36.816406 31.328125 C 36.761719 31.398438 36.714844 31.460938 36.660156 31.527344 C 35.96875 32.3125 34.890625 32.808594 33.863281 32.910156 C 33.859375 33.039062 33.851562 33.160156 33.847656 33.285156 C 33.574219 35.664062 31.695312 38.007812 29.914062 39.449219 C 29.652344 39.632812 29.382812 39.808594 29.117188 39.980469 C 29.003906 40.046875 28.898438 40.117188 28.785156 40.191406 C 26.21875 41.738281 23.375 42.089844 20.464844 41.453125 C 17.632812 40.746094 15.117188 38.890625 13.609375 36.390625 C 12.523438 34.472656 12.144531 32.570312 12.070312 30.375 C 12.066406 30.242188 12.066406 30.113281 12.0625 29.976562 C 12.015625 28.570312 12.011719 27.167969 12.011719 25.761719 C 12.011719 25.40625 12.011719 25.046875 12.011719 24.6875 C 12.011719 24.339844 12.011719 23.992188 12.011719 23.652344 C 12.011719 23.519531 12.011719 23.394531 12.011719 23.261719 C 12.011719 23.144531 12.011719 23.027344 12.011719 22.90625 C 12.011719 22.804688 12.011719 22.699219 12.011719 22.597656 C 12.027344 22.363281 12.027344 22.363281 12.128906 22.257812 C 12.40625 22.246094 12.6875 22.242188 12.964844 22.242188 C 13.050781 22.242188 13.140625 22.242188 13.226562 22.234375 C 13.523438 22.234375 13.824219 22.234375 14.121094 22.234375 C 14.335938 22.230469 14.546875 22.230469 14.757812 22.230469 C 15.335938 22.226562 15.917969 22.226562 16.492188 22.222656 C 17.101562 22.21875 17.703125 22.21875 18.304688 22.210938 C 19.320312 22.207031 20.335938 22.203125 21.351562 22.195312 C 22.53125 22.191406 23.707031 22.1875 24.878906 22.183594 C 25.890625 22.179688 26.894531 22.171875 27.898438 22.167969 C 28.507812 22.164062 29.105469 22.15625 29.707031 22.15625 C 30.273438 22.152344 30.839844 22.152344 31.40625 22.148438 C 31.617188 22.148438 31.828125 22.148438 32.03125 22.148438 C 32.320312 22.144531 32.601562 22.144531 32.886719 22.144531 C 32.96875 22.144531 33.050781 22.144531 33.132812 22.140625 C 33.511719 22.140625 33.8125 22.167969 34.175781 22.257812 Z M 34.175781 25.210938 C 34.175781 27.15625 34.175781 29.109375 34.175781 31.117188 C 34.992188 30.710938 35.703125 30.316406 36.070312 29.449219 C 36.351562 28.515625 36.40625 27.523438 35.941406 26.644531 C 35.464844 25.890625 35.042969 25.5 34.175781 25.210938 Z M 18.882812 29.851562 C 18.164062 30.816406 17.816406 31.882812 17.984375 33.085938 C 18.054688 33.417969 18.101562 33.625 18.355469 33.863281 C 19.445312 34.007812 20.488281 33.472656 21.347656 32.835938 C 21.878906 32.414062 22.3125 31.875 22.769531 31.367188 C 24.015625 29.996094 25.273438 29.375 27 28.796875 C 26.9375 28.34375 26.835938 28.15625 26.464844 27.871094 C 25.917969 27.519531 25.332031 27.269531 24.683594 27.21875 C 24.613281 27.207031 24.539062 27.203125 24.46875 27.195312 C 22.3125 27.085938 20.253906 28.257812 18.882812 29.851562 Z M 23.835938 32.171875 C 23.835938 32.242188 23.835938 32.3125 23.835938 32.382812 C 23.769531 32.382812 23.703125 32.382812 23.628906 32.382812 C 23.472656 32.542969 23.472656 32.542969 23.304688 32.753906 C 22.222656 34.007812 21.035156 34.59375 19.488281 35.136719 C 19.265625 35.226562 19.265625 35.226562 19.199219 35.546875 C 19.265625 35.546875 19.335938 35.546875 19.410156 35.546875 C 19.410156 35.621094 19.410156 35.6875 19.410156 35.761719 C 19.476562 35.761719 19.550781 35.761719 19.617188 35.761719 C 19.617188 35.828125 19.617188 35.898438 19.617188 35.972656 C 20.917969 36.757812 22.105469 36.898438 23.589844 36.539062 C 24.84375 36.167969 25.859375 35.507812 26.792969 34.601562 C 26.792969 34.53125 26.792969 34.457031 26.792969 34.390625 C 26.898438 34.355469 27 34.316406 27.109375 34.28125 C 27.925781 33.363281 28.34375 32.320312 28.304688 31.09375 C 28.257812 30.699219 28.144531 30.410156 27.953125 30.0625 C 26.171875 29.921875 24.964844 30.890625 23.835938 32.171875 Z M 23.835938 32.171875 "/>
<path style=" stroke:none;fill-rule:nonzero;fill:rgb(2.352941%,1.568627%,1.960784%);fill-opacity:1;" d="M 28.375 41.136719 C 28.390625 41.40625 28.394531 41.675781 28.402344 41.945312 C 28.402344 42.015625 28.40625 42.09375 28.414062 42.171875 C 28.421875 42.71875 28.328125 43.039062 27.953125 43.460938 C 27.46875 43.753906 27.101562 43.820312 26.542969 43.828125 C 26.46875 43.832031 26.390625 43.832031 26.320312 43.835938 C 26.078125 43.84375 25.84375 43.847656 25.605469 43.847656 C 25.445312 43.851562 25.277344 43.859375 25.113281 43.859375 C 24.652344 43.867188 24.195312 43.875 23.734375 43.882812 C 23.585938 43.886719 23.585938 43.886719 23.429688 43.886719 C 22.984375 43.898438 22.542969 43.898438 22.101562 43.886719 C 21.894531 43.882812 21.6875 43.882812 21.484375 43.875 C 21.085938 43.871094 20.683594 43.863281 20.289062 43.859375 C 20.09375 43.851562 20.09375 43.851562 19.902344 43.851562 C 19.195312 43.832031 18.710938 43.789062 18.144531 43.355469 C 17.792969 42.789062 17.742188 42.21875 17.828125 41.5625 C 17.933594 41.320312 17.933594 41.320312 18.039062 41.136719 C 18.457031 41.207031 18.847656 41.332031 19.25 41.46875 C 22.023438 42.390625 25.058594 42.382812 27.75 41.15625 C 28.054688 41.035156 28.054688 41.035156 28.375 41.136719 Z M 28.375 41.136719 "/>
<path style=" stroke:none;fill-rule:nonzero;fill:rgb(5.098039%,3.921569%,4.705882%);fill-opacity:1;" d="M 24.578125 6.328125 C 24.78125 6.414062 24.78125 6.414062 25 6.539062 C 25.035156 6.644531 25.070312 6.75 25.109375 6.855469 C 25.175781 6.855469 25.242188 6.855469 25.316406 6.855469 C 26.058594 8.21875 26.335938 9.304688 25.941406 10.828125 C 25.6875 11.621094 25.273438 12.347656 24.890625 13.082031 C 24.742188 13.378906 24.585938 13.679688 24.433594 13.984375 C 24.398438 14.054688 24.359375 14.121094 24.328125 14.1875 C 23.914062 14.992188 23.808594 15.667969 23.828125 16.554688 C 23.828125 16.644531 23.828125 16.738281 23.828125 16.835938 C 23.832031 17.0625 23.835938 17.285156 23.835938 17.507812 C 23.734375 17.507812 23.632812 17.507812 23.523438 17.507812 C 22.894531 16.851562 22.960938 15.734375 22.976562 14.878906 C 23.03125 13.890625 23.421875 13.105469 23.847656 12.230469 C 24.691406 10.46875 25.210938 8.792969 24.683594 6.855469 C 24.648438 6.679688 24.613281 6.503906 24.578125 6.328125 Z M 24.578125 6.328125 "/>
<path style=" stroke:none;fill-rule:nonzero;fill:rgb(7.058824%,5.490196%,6.666667%);fill-opacity:1;" d="M 29.21875 9.390625 C 29.617188 9.445312 29.808594 9.609375 30.0625 9.917969 C 30.0625 10.019531 30.0625 10.121094 30.0625 10.234375 C 30.132812 10.234375 30.199219 10.234375 30.273438 10.234375 C 30.8125 11.335938 30.941406 12.417969 30.59375 13.609375 C 30.390625 14.1875 30.121094 14.742188 29.851562 15.292969 C 29.742188 15.527344 29.632812 15.761719 29.523438 15.996094 C 29.449219 16.148438 29.375 16.304688 29.304688 16.453125 C 29.203125 16.664062 29.105469 16.875 29.007812 17.089844 C 28.980469 17.152344 28.949219 17.21875 28.914062 17.285156 C 28.613281 17.953125 28.570312 18.5625 28.578125 19.292969 C 28.578125 19.398438 28.578125 19.398438 28.578125 19.511719 C 28.585938 19.6875 28.585938 19.863281 28.589844 20.042969 C 28.390625 20.015625 28.390625 20.015625 28.164062 19.9375 C 27.648438 19.070312 27.679688 17.859375 27.859375 16.910156 C 28.105469 15.96875 28.472656 15.074219 28.921875 14.214844 C 29.566406 12.960938 29.757812 11.582031 29.378906 10.210938 C 29.351562 10.121094 29.320312 10.03125 29.289062 9.9375 C 29.21875 9.707031 29.21875 9.707031 29.21875 9.390625 Z M 29.21875 9.390625 "/>
<path style=" stroke:none;fill-rule:nonzero;fill:rgb(5.490196%,4.313725%,5.098039%);fill-opacity:1;" d="M 20.148438 9.390625 C 20.902344 9.929688 21.351562 10.683594 21.519531 11.601562 C 21.636719 13.34375 21.035156 14.53125 20.25 16.023438 C 19.691406 17.089844 19.691406 17.089844 19.410156 18.246094 C 19.394531 18.328125 19.382812 18.40625 19.371094 18.492188 C 19.316406 18.890625 19.304688 19.210938 19.367188 19.613281 C 19.378906 19.722656 19.394531 19.828125 19.410156 19.9375 C 19.304688 20.039062 19.304688 20.039062 19.199219 20.148438 C 18.820312 19.882812 18.730469 19.617188 18.640625 19.183594 C 18.375 17.375 18.84375 15.84375 19.6875 14.238281 C 20.394531 12.851562 20.484375 11.625 20.148438 10.132812 C 20.03125 9.617188 20.03125 9.617188 20.148438 9.390625 Z M 20.148438 9.390625 "/>
<path style=" stroke:none;fill-rule:nonzero;fill:rgb(3.137255%,2.352941%,2.745098%);fill-opacity:1;" d="M 26.898438 28.902344 C 26.898438 28.976562 26.898438 29.042969 26.898438 29.117188 C 26.722656 29.136719 26.722656 29.136719 26.542969 29.15625 C 26.15625 29.179688 26.15625 29.179688 25.945312 29.429688 C 25.878906 29.429688 25.8125 29.429688 25.738281 29.429688 C 25.46875 29.496094 25.46875 29.496094 25.210938 29.644531 C 25.070312 29.90625 25.070312 29.90625 25 30.171875 C 24.898438 30.171875 24.789062 30.171875 24.683594 30.171875 C 24.683594 30.238281 24.683594 30.308594 24.683594 30.382812 C 24.75 30.414062 24.824219 30.449219 24.890625 30.484375 C 24.859375 30.554688 24.824219 30.625 24.789062 30.699219 C 25.203125 30.632812 25.203125 30.632812 25.527344 30.382812 C 25.59375 30.449219 25.667969 30.515625 25.738281 30.589844 C 25.6875 30.625 25.640625 30.660156 25.585938 30.695312 C 24.574219 31.414062 24.574219 31.414062 23.835938 32.382812 C 23.769531 32.382812 23.703125 32.382812 23.628906 32.382812 C 23.609375 32.441406 23.585938 32.5 23.558594 32.558594 C 23.367188 32.894531 23.101562 33.144531 22.820312 33.414062 C 22.769531 33.46875 22.714844 33.519531 22.660156 33.574219 C 22.523438 33.707031 22.390625 33.835938 22.257812 33.964844 C 22.1875 33.929688 22.117188 33.898438 22.046875 33.863281 C 22.113281 33.617188 22.1875 33.375 22.257812 33.121094 C 21.679688 32.914062 21.679688 32.914062 21.097656 33.015625 C 21.167969 32.910156 21.234375 32.808594 21.308594 32.699219 C 21.375 32.699219 21.445312 32.699219 21.519531 32.699219 C 21.542969 32.640625 21.566406 32.582031 21.59375 32.523438 C 21.734375 32.273438 21.890625 32.109375 22.09375 31.914062 C 22.289062 31.71875 22.460938 31.515625 22.640625 31.304688 C 23.320312 30.53125 25.710938 28.3125 26.898438 28.902344 Z M 26.898438 28.902344 "/>
<path style=" stroke:none;fill-rule:nonzero;fill:rgb(7.058824%,5.098039%,5.882353%);fill-opacity:1;" d="M 29.21875 9.390625 C 29.617188 9.445312 29.808594 9.609375 30.0625 9.917969 C 30.0625 10.019531 30.0625 10.121094 30.0625 10.234375 C 30.132812 10.234375 30.199219 10.234375 30.273438 10.234375 C 30.8125 11.34375 30.933594 12.421875 30.589844 13.609375 C 30.382812 13.609375 30.171875 13.609375 29.957031 13.609375 C 29.957031 13.539062 29.957031 13.46875 29.957031 13.398438 C 29.886719 13.398438 29.820312 13.398438 29.746094 13.398438 C 29.746094 13.324219 29.746094 13.257812 29.746094 13.183594 C 29.679688 13.183594 29.609375 13.183594 29.535156 13.183594 C 29.535156 13.089844 29.535156 13.089844 29.539062 12.992188 C 29.605469 11.425781 29.605469 11.425781 29.289062 9.90625 C 29.21875 9.707031 29.21875 9.707031 29.21875 9.390625 Z M 29.21875 9.390625 "/>
<path style=" stroke:none;fill-rule:nonzero;fill:rgb(9.803922%,7.45098%,9.019608%);fill-opacity:1;" d="M 26.898438 28.902344 C 26.898438 28.976562 26.898438 29.042969 26.898438 29.117188 C 26.722656 29.136719 26.722656 29.136719 26.542969 29.15625 C 26.15625 29.179688 26.15625 29.179688 25.945312 29.429688 C 25.878906 29.429688 25.8125 29.429688 25.738281 29.429688 C 25.46875 29.496094 25.46875 29.496094 25.210938 29.644531 C 25.070312 29.90625 25.070312 29.90625 25 30.171875 C 24.898438 30.171875 24.789062 30.171875 24.683594 30.171875 C 24.683594 30.238281 24.683594 30.308594 24.683594 30.382812 C 24.75 30.414062 24.824219 30.449219 24.890625 30.484375 C 24.859375 30.554688 24.824219 30.625 24.789062 30.699219 C 25.203125 30.632812 25.203125 30.632812 25.527344 30.382812 C 25.59375 30.449219 25.667969 30.515625 25.738281 30.589844 C 25.6875 30.625 25.640625 30.660156 25.585938 30.695312 C 24.574219 31.414062 24.574219 31.414062 23.835938 32.382812 C 23.769531 32.347656 23.703125 32.3125 23.628906 32.28125 C 23.5625 32.007812 23.5625 32.007812 23.523438 31.753906 C 23.59375 31.753906 23.664062 31.753906 23.734375 31.753906 C 23.769531 31.679688 23.804688 31.609375 23.835938 31.539062 C 23.964844 31.519531 23.964844 31.519531 24.097656 31.492188 C 24.40625 31.460938 24.40625 31.460938 24.578125 31.117188 C 24.546875 30.890625 24.546875 30.890625 24.472656 30.699219 C 24.390625 30.71875 24.304688 30.738281 24.222656 30.761719 C 24.132812 30.777344 24.039062 30.785156 23.945312 30.800781 C 23.875 30.734375 23.804688 30.664062 23.734375 30.589844 C 23.523438 30.765625 23.316406 30.9375 23.101562 31.117188 C 23.101562 31.015625 23.101562 30.90625 23.101562 30.800781 C 23.742188 30.160156 25.90625 28.40625 26.898438 28.902344 Z M 26.898438 28.902344 "/>
<path style=" stroke:none;fill-rule:nonzero;fill:rgb(10.588235%,7.058824%,9.411765%);fill-opacity:1;" d="M 28.164062 43.039062 C 28.054688 43.355469 27.964844 43.453125 27.675781 43.628906 C 27.273438 43.792969 26.976562 43.824219 26.542969 43.828125 C 26.46875 43.832031 26.390625 43.832031 26.320312 43.835938 C 26.078125 43.84375 25.84375 43.847656 25.605469 43.847656 C 25.445312 43.851562 25.277344 43.859375 25.113281 43.859375 C 24.652344 43.867188 24.195312 43.875 23.734375 43.882812 C 23.585938 43.886719 23.585938 43.886719 23.429688 43.886719 C 22.894531 43.898438 22.367188 43.890625 21.835938 43.882812 C 21.71875 43.882812 21.601562 43.875 21.480469 43.875 C 21.078125 43.867188 20.671875 43.859375 20.273438 43.847656 C 20.140625 43.847656 20.015625 43.84375 19.882812 43.84375 C 19.695312 43.835938 19.695312 43.835938 19.511719 43.828125 C 19.40625 43.828125 19.296875 43.824219 19.183594 43.824219 C 18.84375 43.769531 18.636719 43.652344 18.355469 43.460938 C 18.632812 43.320312 18.886719 43.28125 19.199219 43.246094 C 19.265625 43.320312 19.335938 43.390625 19.410156 43.460938 C 19.304688 43.511719 19.304688 43.511719 19.199219 43.5625 C 21.84375 43.597656 24.488281 43.632812 27.21875 43.671875 C 27.164062 43.40625 27.164062 43.40625 27.109375 43.144531 C 27.453125 42.972656 27.789062 43.03125 28.164062 43.039062 Z M 28.164062 43.039062 "/>
<path style=" stroke:none;fill-rule:nonzero;fill:rgb(10.980392%,7.843137%,9.411765%);fill-opacity:1;" d="M 23.3125 14.664062 C 23.359375 14.71875 23.40625 14.765625 23.457031 14.820312 C 23.613281 15.003906 23.613281 15.003906 23.835938 14.980469 C 23.835938 15.816406 23.835938 16.648438 23.835938 17.507812 C 23.734375 17.507812 23.632812 17.507812 23.523438 17.507812 C 22.953125 16.917969 22.972656 15.953125 22.960938 15.175781 C 23.007812 14.921875 23.117188 14.828125 23.3125 14.664062 Z M 23.3125 14.664062 "/>
<path style=" stroke:none;fill-rule:nonzero;fill:rgb(10.196078%,6.666667%,9.019608%);fill-opacity:1;" d="M 19.300781 16.878906 C 19.445312 16.878906 19.578125 16.878906 19.726562 16.878906 C 19.703125 16.957031 19.683594 17.035156 19.65625 17.117188 C 19.332031 18.355469 19.332031 18.355469 19.367188 19.617188 C 19.378906 19.726562 19.394531 19.828125 19.410156 19.9375 C 19.339844 20.003906 19.273438 20.078125 19.199219 20.148438 C 18.820312 19.882812 18.730469 19.617188 18.640625 19.183594 C 18.558594 18.625 18.546875 18.078125 18.5625 17.507812 C 18.597656 17.507812 18.632812 17.507812 18.671875 17.507812 C 18.707031 17.6875 18.742188 17.855469 18.773438 18.039062 C 18.8125 17.933594 18.847656 17.828125 18.882812 17.71875 C 18.984375 17.71875 19.09375 17.71875 19.199219 17.71875 C 19.195312 17.621094 19.195312 17.519531 19.1875 17.417969 C 19.199219 17.089844 19.199219 17.089844 19.300781 16.878906 Z M 19.300781 16.878906 "/>
<path style=" stroke:none;fill-rule:nonzero;fill:rgb(10.588235%,7.843137%,9.803922%);fill-opacity:1;" d="M 27.847656 16.984375 C 27.882812 16.984375 27.921875 16.984375 27.953125 16.984375 C 27.953125 17.261719 27.953125 17.539062 27.953125 17.828125 C 28.054688 17.828125 28.164062 17.828125 28.273438 17.828125 C 28.273438 17.757812 28.273438 17.6875 28.273438 17.617188 C 28.40625 17.582031 28.550781 17.546875 28.691406 17.507812 C 28.675781 17.636719 28.65625 17.757812 28.636719 17.886719 C 28.558594 18.601562 28.578125 19.320312 28.589844 20.042969 C 28.390625 20.015625 28.390625 20.015625 28.164062 19.9375 C 27.65625 19.097656 27.691406 17.914062 27.847656 16.984375 Z M 27.847656 16.984375 "/>
<path style=" stroke:none;fill-rule:nonzero;fill:rgb(3.921569%,3.921569%,3.921569%);fill-opacity:1;" d="M 21.945312 32.171875 C 21.976562 32.242188 22.011719 32.3125 22.046875 32.382812 C 22.113281 32.417969 22.1875 32.453125 22.257812 32.492188 C 22.222656 32.523438 22.1875 32.558594 22.152344 32.59375 C 22.5625 32.59375 22.691406 32.4375 23 32.171875 C 23 32.242188 23 32.3125 23 32.382812 C 23.066406 32.417969 23.132812 32.453125 23.207031 32.492188 C 23.132812 32.492188 23.066406 32.492188 23 32.492188 C 23.03125 32.59375 23.066406 32.699219 23.101562 32.808594 C 23.277344 32.664062 23.445312 32.53125 23.628906 32.382812 C 23.457031 32.8125 23.148438 33.09375 22.820312 33.414062 C 22.769531 33.46875 22.714844 33.519531 22.660156 33.574219 C 22.523438 33.707031 22.390625 33.835938 22.257812 33.964844 C 22.1875 33.929688 22.117188 33.898438 22.046875 33.863281 C 22.113281 33.617188 22.1875 33.375 22.257812 33.121094 C 21.679688 32.914062 21.679688 32.914062 21.097656 33.015625 C 21.167969 32.910156 21.234375 32.808594 21.308594 32.699219 C 21.375 32.699219 21.445312 32.699219 21.519531 32.699219 C 21.5625 32.597656 21.5625 32.597656 21.609375 32.496094 C 21.726562 32.28125 21.726562 32.28125 21.945312 32.171875 Z M 21.945312 32.171875 "/>
<path style=" stroke:none;fill-rule:nonzero;fill:rgb(12.156863%,9.411765%,10.196078%);fill-opacity:1;" d="M 24.578125 6.328125 C 24.78125 6.414062 24.78125 6.414062 25 6.539062 C 25.035156 6.644531 25.070312 6.75 25.109375 6.855469 C 25.175781 6.855469 25.242188 6.855469 25.316406 6.855469 C 25.425781 7.0625 25.53125 7.265625 25.640625 7.46875 C 25.699219 7.582031 25.761719 7.695312 25.820312 7.8125 C 25.945312 8.121094 25.945312 8.121094 25.84375 8.4375 C 25.632812 8.335938 25.425781 8.226562 25.210938 8.121094 C 25.175781 8.472656 25.140625 8.820312 25.109375 9.175781 C 25.070312 9.175781 25.035156 9.175781 25 9.175781 C 24.996094 9.085938 24.992188 9 24.984375 8.910156 C 24.9375 8.203125 24.859375 7.539062 24.683594 6.855469 C 24.648438 6.679688 24.613281 6.503906 24.578125 6.328125 Z M 24.578125 6.328125 "/>
<path style=" stroke:none;fill-rule:nonzero;fill:rgb(4.313725%,0.392157%,1.960784%);fill-opacity:1;" d="M 20.148438 9.390625 C 20.902344 9.929688 21.351562 10.683594 21.519531 11.601562 C 21.53125 12.09375 21.53125 12.585938 21.519531 13.082031 C 21.484375 13.082031 21.449219 13.082031 21.410156 13.082031 C 21.375 12.734375 21.34375 12.382812 21.308594 12.027344 C 21.242188 12.027344 21.167969 12.027344 21.097656 12.027344 C 21.097656 11.675781 21.097656 11.328125 21.097656 10.972656 C 20.957031 10.972656 20.820312 10.972656 20.671875 10.972656 C 20.570312 10.9375 20.464844 10.898438 20.355469 10.863281 C 20.253906 10.585938 20.253906 10.585938 20.175781 10.238281 C 20.148438 10.125 20.117188 10.007812 20.085938 9.890625 C 20.042969 9.601562 20.042969 9.601562 20.148438 9.390625 Z M 20.148438 9.390625 "/>
<path style=" stroke:none;fill-rule:nonzero;fill:rgb(2.745098%,1.568627%,2.745098%);fill-opacity:1;" d="M 28.691406 14.980469 C 28.832031 15.015625 28.96875 15.046875 29.117188 15.082031 C 29.078125 15.191406 29.042969 15.292969 29.007812 15.398438 C 29.144531 15.46875 29.289062 15.542969 29.429688 15.609375 C 29.429688 15.683594 29.429688 15.75 29.429688 15.824219 C 29.34375 15.890625 29.261719 15.953125 29.175781 16.019531 C 28.902344 16.246094 28.832031 16.324219 28.796875 16.664062 C 28.796875 16.597656 28.796875 16.527344 28.796875 16.453125 C 28.726562 16.453125 28.65625 16.453125 28.589844 16.453125 C 28.515625 16.632812 28.445312 16.800781 28.375 16.984375 C 28.273438 16.949219 28.167969 16.914062 28.054688 16.878906 C 28.089844 16.671875 28.125 16.464844 28.160156 16.257812 C 28.183594 16.085938 28.183594 16.085938 28.210938 15.90625 C 28.273438 15.609375 28.273438 15.609375 28.375 15.398438 C 28.445312 15.398438 28.515625 15.398438 28.589844 15.398438 C 28.625 15.265625 28.65625 15.121094 28.691406 14.980469 Z M 28.691406 14.980469 "/>
<path style=" stroke:none;fill-rule:nonzero;fill:rgb(8.235294%,6.27451%,6.666667%);fill-opacity:1;" d="M 37.128906 30.589844 C 37.128906 31.019531 36.96875 31.136719 36.683594 31.453125 C 36.601562 31.546875 36.515625 31.644531 36.429688 31.742188 C 36.179688 31.960938 36.179688 31.960938 35.761719 31.960938 C 35.578125 31.800781 35.578125 31.800781 35.445312 31.644531 C 35.632812 31.4375 35.632812 31.4375 35.863281 31.226562 C 35.972656 31.226562 36.074219 31.226562 36.179688 31.226562 C 36.359375 31.050781 36.53125 30.875 36.710938 30.699219 C 36.777344 30.699219 36.84375 30.699219 36.917969 30.699219 C 36.988281 30.660156 37.0625 30.625 37.128906 30.589844 Z M 37.128906 30.589844 "/>
<path style=" stroke:none;fill-rule:nonzero;fill:rgb(16.862745%,12.54902%,14.509804%);fill-opacity:1;" d="M 20.882812 10.445312 C 20.957031 10.445312 21.023438 10.445312 21.097656 10.445312 C 21.503906 11.332031 21.570312 12.105469 21.519531 13.082031 C 21.484375 13.082031 21.449219 13.082031 21.410156 13.082031 C 21.375 12.734375 21.34375 12.382812 21.308594 12.027344 C 21.242188 12.027344 21.167969 12.027344 21.097656 12.027344 C 21.097656 11.675781 21.097656 11.328125 21.097656 10.972656 C 20.921875 10.9375 20.746094 10.898438 20.570312 10.863281 C 20.640625 10.828125 20.707031 10.796875 20.78125 10.761719 C 20.816406 10.65625 20.851562 10.550781 20.882812 10.445312 Z M 20.882812 10.445312 "/>
<path style=" stroke:none;fill-rule:nonzero;fill:rgb(43.529412%,37.647059%,40%);fill-opacity:1;" d="M 29.21875 9.390625 C 29.617188 9.445312 29.796875 9.617188 30.0625 9.917969 C 30.03125 10.019531 29.996094 10.121094 29.957031 10.234375 C 29.820312 10.09375 29.679688 9.953125 29.535156 9.808594 C 29.570312 9.914062 29.605469 10.015625 29.640625 10.121094 C 29.769531 10.582031 29.769531 11.015625 29.761719 11.488281 C 29.761719 11.570312 29.757812 11.65625 29.757812 11.738281 C 29.757812 11.9375 29.75 12.144531 29.746094 12.34375 C 29.710938 12.34375 29.679688 12.34375 29.644531 12.34375 C 29.640625 12.25 29.632812 12.152344 29.628906 12.0625 C 29.589844 11.320312 29.507812 10.644531 29.289062 9.9375 C 29.21875 9.707031 29.21875 9.707031 29.21875 9.390625 Z M 29.21875 9.390625 "/>
<path style=" stroke:none;fill-rule:nonzero;fill:rgb(13.72549%,11.764706%,12.941176%);fill-opacity:1;" d="M 27.425781 41.246094 C 27.640625 41.289062 27.640625 41.289062 27.847656 41.351562 C 27.742188 41.351562 27.640625 41.351562 27.53125 41.351562 C 27.59375 41.648438 27.621094 41.757812 27.847656 41.984375 C 27.601562 42.015625 27.359375 42.050781 27.109375 42.089844 C 27.144531 41.984375 27.179688 41.878906 27.21875 41.773438 C 26.972656 41.773438 26.726562 41.773438 26.476562 41.773438 C 26.515625 41.875 26.546875 41.984375 26.582031 42.089844 C 26.445312 42.125 26.304688 42.15625 26.164062 42.191406 C 26.164062 42.15625 26.164062 42.125 26.164062 42.089844 C 25.984375 42.054688 25.8125 42.015625 25.632812 41.984375 C 25.980469 41.796875 26.332031 41.675781 26.710938 41.554688 C 27.101562 41.453125 27.101562 41.453125 27.425781 41.246094 Z M 27.425781 41.246094 "/>
<path style=" stroke:none;fill-rule:nonzero;fill:rgb(1.176471%,0.784314%,1.176471%);fill-opacity:1;" d="M 19.09375 16.664062 C 19.3125 17.027344 19.351562 17.304688 19.300781 17.71875 C 19.199219 17.792969 19.097656 17.859375 18.988281 17.933594 C 18.875 18.070312 18.769531 18.207031 18.671875 18.355469 C 18.652344 17.335938 18.652344 17.335938 18.882812 16.878906 C 18.949219 16.804688 19.023438 16.738281 19.09375 16.664062 Z M 19.09375 16.664062 "/>
<path style=" stroke:none;fill-rule:nonzero;fill:rgb(24.313725%,21.568627%,23.137255%);fill-opacity:1;" d="M 24.578125 6.328125 C 24.78125 6.414062 24.78125 6.414062 25 6.539062 C 25.035156 6.644531 25.070312 6.75 25.109375 6.855469 C 25.175781 6.855469 25.242188 6.855469 25.316406 6.855469 C 25.351562 6.996094 25.386719 7.132812 25.421875 7.28125 C 25.316406 7.347656 25.214844 7.417969 25.109375 7.492188 C 25 7.648438 25 7.648438 24.890625 7.808594 C 24.671875 6.8125 24.671875 6.8125 24.578125 6.328125 Z M 24.578125 6.328125 "/>
<path style=" stroke:none;fill-rule:nonzero;fill:rgb(8.627451%,6.666667%,7.058824%);fill-opacity:1;" d="M 24.578125 36.289062 C 24.472656 36.425781 24.371094 36.566406 24.261719 36.710938 C 24.367188 36.867188 24.367188 36.867188 24.472656 37.027344 C 23.851562 36.828125 23.851562 36.828125 23.734375 36.710938 C 23.703125 36.777344 23.667969 36.84375 23.628906 36.917969 C 23.351562 36.851562 23.070312 36.78125 22.78125 36.710938 C 22.78125 36.675781 22.78125 36.640625 22.78125 36.601562 C 23.042969 36.527344 23.300781 36.460938 23.5625 36.386719 C 23.671875 36.351562 23.671875 36.351562 23.785156 36.324219 C 24.339844 36.171875 24.339844 36.171875 24.578125 36.289062 Z M 24.578125 36.289062 "/>
<path style=" stroke:none;fill-rule:nonzero;fill:rgb(1.960784%,1.176471%,1.176471%);fill-opacity:1;" d="M 28.691406 14.980469 C 28.832031 15.015625 28.96875 15.046875 29.117188 15.082031 C 29.078125 15.191406 29.042969 15.292969 29.007812 15.398438 C 29.144531 15.46875 29.289062 15.542969 29.429688 15.609375 C 29.429688 15.683594 29.429688 15.75 29.429688 15.824219 C 29.21875 15.996094 29.21875 15.996094 29.007812 16.136719 C 28.796875 16.035156 28.796875 16.035156 28.691406 15.824219 C 28.589844 15.875 28.589844 15.875 28.480469 15.929688 C 28.574219 15.214844 28.574219 15.214844 28.691406 14.980469 Z M 28.691406 14.980469 "/>
<path style=" stroke:none;fill-rule:nonzero;fill:rgb(15.294118%,11.372549%,13.72549%);fill-opacity:1;" d="M 19.410156 43.460938 C 19.304688 43.511719 19.304688 43.511719 19.199219 43.5625 C 20.554688 43.617188 20.554688 43.617188 21.945312 43.671875 C 21.945312 43.707031 21.945312 43.742188 21.945312 43.773438 C 21.515625 43.785156 21.089844 43.789062 20.664062 43.792969 C 20.515625 43.792969 20.371094 43.796875 20.230469 43.796875 C 20.019531 43.804688 19.808594 43.804688 19.605469 43.808594 C 19.476562 43.808594 19.351562 43.808594 19.222656 43.8125 C 18.851562 43.773438 18.652344 43.675781 18.355469 43.460938 C 18.78125 43.246094 18.992188 43.207031 19.410156 43.460938 Z M 19.410156 43.460938 "/>
<path style=" stroke:none;fill-rule:nonzero;fill:rgb(9.411765%,7.058824%,9.019608%);fill-opacity:1;" d="M 33.648438 33.4375 C 33.796875 33.835938 33.703125 34.078125 33.550781 34.46875 C 33.511719 34.570312 33.472656 34.671875 33.429688 34.78125 C 33.398438 34.863281 33.363281 34.941406 33.335938 35.019531 C 33.300781 34.917969 33.261719 34.8125 33.226562 34.707031 C 33.125 34.667969 33.015625 34.632812 32.910156 34.601562 C 32.984375 34.566406 33.050781 34.53125 33.121094 34.492188 C 33.109375 34.375 33.109375 34.375 33.101562 34.25 C 33.121094 33.964844 33.121094 33.964844 33.28125 33.773438 C 33.335938 33.734375 33.382812 33.691406 33.4375 33.648438 C 33.511719 33.6875 33.578125 33.71875 33.648438 33.753906 C 33.648438 33.652344 33.648438 33.546875 33.648438 33.4375 Z M 33.648438 33.4375 "/>
<path style=" stroke:none;fill-rule:nonzero;fill:rgb(28.235294%,24.705882%,27.45098%);fill-opacity:1;" d="M 19.09375 18.460938 C 19.160156 18.460938 19.234375 18.460938 19.300781 18.460938 C 19.328125 18.703125 19.351562 18.945312 19.371094 19.183594 C 19.378906 19.320312 19.394531 19.453125 19.410156 19.59375 C 19.410156 19.707031 19.410156 19.820312 19.410156 19.9375 C 19.339844 20.003906 19.273438 20.078125 19.199219 20.148438 C 18.988281 19.976562 18.988281 19.976562 18.773438 19.726562 C 18.75 19.382812 18.75 19.382812 18.773438 19.09375 C 18.847656 19.234375 18.914062 19.371094 18.988281 19.515625 C 19.023438 19.164062 19.058594 18.820312 19.09375 18.460938 Z M 19.09375 18.460938 "/>
<path style=" stroke:none;fill-rule:nonzero;fill:rgb(24.705882%,20.784314%,22.745098%);fill-opacity:1;" d="M 20.148438 33.4375 C 20.253906 33.472656 20.355469 33.511719 20.464844 33.546875 C 20.359375 33.609375 20.257812 33.675781 20.15625 33.742188 C 19.828125 33.929688 19.828125 33.929688 19.726562 34.175781 C 19.515625 34.175781 19.304688 34.175781 19.09375 34.175781 C 19.09375 34.140625 19.09375 34.105469 19.09375 34.070312 C 18.921875 34.039062 18.746094 34.003906 18.5625 33.964844 C 18.5625 33.929688 18.5625 33.898438 18.5625 33.863281 C 18.664062 33.835938 18.757812 33.820312 18.859375 33.792969 C 18.984375 33.765625 19.105469 33.742188 19.238281 33.710938 C 19.421875 33.667969 19.421875 33.667969 19.613281 33.625 C 19.925781 33.558594 19.925781 33.558594 20.148438 33.4375 Z M 20.148438 33.4375 "/>
<path style=" stroke:none;fill-rule:nonzero;fill:rgb(14.901961%,12.156863%,13.72549%);fill-opacity:1;" d="M 24.578125 31.226562 C 24.648438 31.257812 24.71875 31.292969 24.789062 31.328125 C 24.730469 31.386719 24.667969 31.445312 24.609375 31.503906 C 24.53125 31.582031 24.453125 31.660156 24.375 31.738281 C 24.296875 31.8125 24.21875 31.890625 24.140625 31.96875 C 23.941406 32.15625 23.941406 32.15625 23.835938 32.382812 C 23.769531 32.347656 23.703125 32.3125 23.628906 32.28125 C 23.5625 32.007812 23.5625 32.007812 23.523438 31.753906 C 23.59375 31.753906 23.664062 31.753906 23.734375 31.753906 C 23.769531 31.679688 23.804688 31.609375 23.835938 31.539062 C 24.015625 31.503906 24.1875 31.46875 24.367188 31.4375 C 24.4375 31.367188 24.507812 31.292969 24.578125 31.226562 Z M 24.578125 31.226562 "/>
<path style=" stroke:none;fill-rule:nonzero;fill:rgb(32.941176%,29.411765%,32.156863%);fill-opacity:1;" d="M 23.628906 16.035156 C 23.664062 16.035156 23.695312 16.035156 23.734375 16.035156 C 23.769531 16.523438 23.804688 17.007812 23.835938 17.507812 C 23.734375 17.507812 23.632812 17.507812 23.523438 17.507812 C 23.34375 17.246094 23.34375 17.246094 23.207031 16.984375 C 23.277344 16.949219 23.34375 16.914062 23.417969 16.878906 C 23.492188 16.679688 23.492188 16.679688 23.535156 16.449219 C 23.554688 16.371094 23.570312 16.292969 23.589844 16.214844 C 23.601562 16.15625 23.613281 16.09375 23.628906 16.035156 Z M 23.628906 16.035156 "/>
<path style=" stroke:none;fill-rule:nonzero;fill:rgb(9.803922%,7.843137%,8.627451%);fill-opacity:1;" d="M 18.039062 33.335938 C 18.550781 33.832031 18.550781 33.832031 18.671875 34.070312 C 18.601562 34.070312 18.53125 34.070312 18.460938 34.070312 C 18.460938 34.140625 18.460938 34.210938 18.460938 34.28125 C 18.53125 34.316406 18.597656 34.351562 18.671875 34.390625 C 18.601562 34.390625 18.53125 34.390625 18.460938 34.390625 C 18.421875 34.457031 18.390625 34.527344 18.355469 34.601562 C 18.355469 34.53125 18.355469 34.457031 18.355469 34.390625 C 18.285156 34.355469 18.210938 34.316406 18.144531 34.28125 C 18.039062 34.175781 17.933594 34.070312 17.828125 33.964844 C 17.894531 33.757812 17.964844 33.550781 18.039062 33.335938 Z M 18.039062 33.335938 "/>
<path style=" stroke:none;fill-rule:nonzero;fill:rgb(17.254902%,13.333333%,14.901961%);fill-opacity:1;" d="M 21.945312 32.171875 C 21.976562 32.242188 22.011719 32.3125 22.046875 32.382812 C 22.113281 32.417969 22.1875 32.453125 22.257812 32.492188 C 22.1875 32.492188 22.117188 32.492188 22.046875 32.492188 C 22.011719 32.625 21.976562 32.769531 21.945312 32.910156 C 21.660156 32.945312 21.382812 32.984375 21.097656 33.015625 C 21.167969 32.910156 21.234375 32.808594 21.308594 32.699219 C 21.375 32.699219 21.445312 32.699219 21.519531 32.699219 C 21.5625 32.597656 21.5625 32.597656 21.609375 32.496094 C 21.726562 32.28125 21.726562 32.28125 21.945312 32.171875 Z M 21.945312 32.171875 "/>
<path style=" stroke:none;fill-rule:nonzero;fill:rgb(6.27451%,5.490196%,6.27451%);fill-opacity:1;" d="M 18.5625 35.019531 C 18.628906 35.085938 18.6875 35.15625 18.75 35.226562 C 18.984375 35.4375 19.101562 35.503906 19.410156 35.546875 C 19.375 35.65625 19.339844 35.757812 19.300781 35.863281 C 19.042969 35.761719 19.042969 35.761719 18.773438 35.65625 C 18.773438 35.722656 18.773438 35.789062 18.773438 35.863281 C 18.847656 35.863281 18.914062 35.863281 18.988281 35.863281 C 18.988281 35.933594 18.988281 36.007812 18.988281 36.074219 C 18.847656 36.109375 18.710938 36.148438 18.5625 36.179688 C 18.5625 35.800781 18.5625 35.414062 18.5625 35.019531 Z M 18.5625 35.019531 "/>
<path style=" stroke:none;fill-rule:nonzero;fill:rgb(29.803922%,27.058824%,29.411765%);fill-opacity:1;" d="M 28.273438 18.882812 C 28.339844 18.882812 28.40625 18.882812 28.480469 18.882812 C 28.515625 19.261719 28.550781 19.648438 28.589844 20.042969 C 28.445312 20.007812 28.304688 19.96875 28.164062 19.9375 C 28.050781 19.71875 28.050781 19.71875 27.976562 19.453125 C 27.953125 19.371094 27.929688 19.28125 27.898438 19.1875 C 27.886719 19.125 27.867188 19.058594 27.847656 18.988281 C 27.921875 18.988281 27.988281 18.988281 28.054688 18.988281 C 28.128906 19.195312 28.199219 19.40625 28.273438 19.617188 C 28.273438 19.375 28.273438 19.132812 28.273438 18.882812 Z M 28.273438 18.882812 "/>
<path style=" stroke:none;fill-rule:nonzero;fill:rgb(18.823529%,16.470588%,17.254902%);fill-opacity:1;" d="M 23.523438 32.382812 C 23.523438 32.699219 23.523438 32.699219 23.339844 32.914062 C 23.261719 32.988281 23.183594 33.066406 23.101562 33.144531 C 23.023438 33.21875 22.945312 33.289062 22.867188 33.367188 C 22.773438 33.457031 22.773438 33.457031 22.679688 33.546875 C 22.609375 33.402344 22.539062 33.265625 22.46875 33.121094 C 22.539062 33.085938 22.609375 33.050781 22.679688 33.015625 C 22.714844 32.949219 22.75 32.875 22.78125 32.808594 C 22.851562 32.792969 22.914062 32.773438 22.984375 32.757812 C 23.246094 32.691406 23.351562 32.585938 23.523438 32.382812 Z M 23.523438 32.382812 "/>
<path style=" stroke:none;fill-rule:nonzero;fill:rgb(11.372549%,9.019608%,10.588235%);fill-opacity:1;" d="M 22.152344 27 C 22.324219 27.039062 22.5 27.074219 22.679688 27.109375 C 22.574219 27.179688 22.46875 27.25 22.363281 27.320312 C 22.429688 27.390625 22.5 27.460938 22.574219 27.53125 C 22.441406 27.582031 22.304688 27.636719 22.171875 27.691406 C 22.0625 27.734375 22.0625 27.734375 21.945312 27.777344 C 21.726562 27.847656 21.726562 27.847656 21.410156 27.847656 C 21.484375 27.710938 21.554688 27.570312 21.625 27.425781 C 21.761719 27.425781 21.90625 27.425781 22.046875 27.425781 C 22.078125 27.285156 22.113281 27.148438 22.152344 27 Z M 22.152344 27 "/>
<path style=" stroke:none;fill-rule:nonzero;fill:rgb(15.294118%,12.941176%,14.117647%);fill-opacity:1;" d="M 26.898438 28.902344 C 26.898438 28.976562 26.898438 29.042969 26.898438 29.117188 C 26.78125 29.125 26.664062 29.140625 26.542969 29.15625 C 26.15625 29.179688 26.15625 29.179688 25.945312 29.429688 C 25.703125 29.429688 25.460938 29.429688 25.210938 29.429688 C 25.472656 29.164062 25.703125 29.105469 26.054688 28.988281 C 26.167969 28.949219 26.28125 28.910156 26.398438 28.871094 C 26.6875 28.796875 26.6875 28.796875 26.898438 28.902344 Z M 26.898438 28.902344 "/>
<path style=" stroke:none;fill-rule:nonzero;fill:rgb(12.54902%,9.803922%,10.980392%);fill-opacity:1;" d="M 28.65625 39.90625 C 28.78125 39.941406 28.78125 39.941406 28.902344 39.980469 C 28.652344 40.253906 28.390625 40.433594 28.054688 40.609375 C 27.988281 40.609375 27.921875 40.609375 27.847656 40.609375 C 28.1875 39.851562 28.1875 39.851562 28.65625 39.90625 Z M 28.65625 39.90625 "/>
<path style=" stroke:none;fill-rule:nonzero;fill:rgb(11.372549%,9.803922%,10.196078%);fill-opacity:1;" d="M 22.46875 32.808594 C 22.539062 32.808594 22.609375 32.808594 22.679688 32.808594 C 22.714844 32.910156 22.75 33.011719 22.78125 33.121094 C 22.679688 33.121094 22.578125 33.121094 22.46875 33.121094 C 22.492188 33.203125 22.515625 33.28125 22.539062 33.363281 C 22.554688 33.460938 22.5625 33.554688 22.574219 33.648438 C 22.421875 33.84375 22.421875 33.84375 22.257812 33.964844 C 22.1875 33.929688 22.117188 33.898438 22.046875 33.863281 C 22.152344 33.460938 22.234375 33.15625 22.46875 32.808594 Z M 22.46875 32.808594 "/>
<path style=" stroke:none;fill-rule:nonzero;fill:rgb(11.764706%,9.803922%,11.372549%);fill-opacity:1;" d="M 21.308594 13.183594 C 21.414062 13.480469 21.414062 13.59375 21.3125 13.898438 C 21.28125 13.976562 21.242188 14.054688 21.203125 14.136719 C 21.097656 14.066406 20.996094 13.992188 20.882812 13.925781 C 20.882812 13.851562 20.882812 13.785156 20.882812 13.710938 C 20.816406 13.710938 20.746094 13.710938 20.671875 13.710938 C 20.707031 13.640625 20.746094 13.574219 20.78125 13.5 C 20.882812 13.5 20.992188 13.5 21.097656 13.5 C 21.097656 13.433594 21.097656 13.363281 21.097656 13.289062 C 21.167969 13.257812 21.234375 13.222656 21.308594 13.183594 Z M 21.308594 13.183594 "/>
<path style=" stroke:none;fill-rule:nonzero;fill:rgb(12.54902%,10.196078%,10.980392%);fill-opacity:1;" d="M 18.355469 42.300781 C 18.421875 42.402344 18.496094 42.507812 18.5625 42.617188 C 18.53125 42.71875 18.496094 42.828125 18.460938 42.933594 C 18.355469 42.933594 18.25 42.933594 18.144531 42.933594 C 18.109375 43.003906 18.078125 43.070312 18.039062 43.144531 C 17.96875 42.96875 17.898438 42.792969 17.828125 42.617188 C 18.003906 42.507812 18.171875 42.40625 18.355469 42.300781 Z M 18.355469 42.300781 "/>
<path style=" stroke:none;fill-rule:nonzero;fill:rgb(27.45098%,25.882353%,27.058824%);fill-opacity:1;" d="M 28.054688 41.035156 C 28.164062 41.070312 28.265625 41.101562 28.375 41.136719 C 28.378906 41.414062 28.382812 41.695312 28.390625 41.96875 C 28.390625 42.050781 28.394531 42.128906 28.394531 42.207031 C 28.394531 42.417969 28.390625 42.621094 28.375 42.828125 C 28.304688 42.894531 28.238281 42.964844 28.164062 43.039062 C 28.199219 42.480469 28.234375 41.921875 28.273438 41.351562 C 28.128906 41.28125 27.992188 41.210938 27.847656 41.136719 C 27.921875 41.101562 27.988281 41.070312 28.054688 41.035156 Z M 28.054688 41.035156 "/>
<path style=" stroke:none;fill-rule:nonzero;fill:rgb(12.54902%,10.980392%,11.764706%);fill-opacity:1;" d="M 29.429688 15.71875 C 29.460938 15.785156 29.5 15.855469 29.535156 15.929688 C 29.453125 16.109375 29.453125 16.109375 29.332031 16.308594 C 29.257812 16.425781 29.1875 16.546875 29.117188 16.664062 C 29.007812 16.527344 28.90625 16.386719 28.796875 16.246094 C 29.195312 15.835938 29.195312 15.835938 29.429688 15.71875 Z M 29.429688 15.71875 "/>
<path style=" stroke:none;fill-rule:nonzero;fill:rgb(41.568627%,34.509804%,38.431373%);fill-opacity:1;" d="M 20.148438 9.390625 C 20.757812 9.851562 20.757812 9.851562 20.875 10.160156 C 20.878906 10.25 20.878906 10.25 20.882812 10.335938 C 20.746094 10.199219 20.605469 10.058594 20.464844 9.917969 C 20.359375 10.074219 20.359375 10.074219 20.253906 10.234375 C 20.175781 10.023438 20.109375 9.8125 20.042969 9.601562 C 20.078125 9.53125 20.113281 9.457031 20.148438 9.390625 Z M 20.148438 9.390625 "/>
<path style=" stroke:none;fill-rule:nonzero;fill:rgb(21.568627%,15.294118%,18.431373%);fill-opacity:1;" d="M 25.945312 8.546875 C 25.984375 8.546875 26.019531 8.546875 26.054688 8.546875 C 26.074219 8.746094 26.09375 8.945312 26.113281 9.144531 C 26.125 9.257812 26.136719 9.367188 26.148438 9.484375 C 26.15625 9.789062 26.128906 10.039062 26.054688 10.335938 C 26.019531 10.335938 25.984375 10.335938 25.945312 10.335938 C 25.929688 10.136719 25.90625 9.9375 25.890625 9.734375 C 25.878906 9.625 25.867188 9.515625 25.855469 9.398438 C 25.84375 9.09375 25.875 8.84375 25.945312 8.546875 Z M 25.945312 8.546875 "/>
<path style=" stroke:none;fill-rule:nonzero;fill:rgb(25.882353%,16.078431%,22.352941%);fill-opacity:1;" d="M 24.578125 6.328125 C 24.839844 6.4375 24.976562 6.507812 25.136719 6.742188 C 25.210938 6.960938 25.210938 6.960938 25.109375 7.28125 C 24.890625 7.171875 24.890625 7.171875 24.789062 6.855469 C 24.722656 6.789062 24.648438 6.71875 24.578125 6.644531 C 24.578125 6.542969 24.578125 6.4375 24.578125 6.328125 Z M 24.578125 6.328125 "/>
<path style=" stroke:none;fill-rule:nonzero;fill:rgb(18.431373%,15.294118%,17.254902%);fill-opacity:1;" d="M 27 41.664062 C 26.832031 41.699219 26.65625 41.738281 26.476562 41.773438 C 26.515625 41.875 26.546875 41.984375 26.582031 42.089844 C 26.445312 42.125 26.304688 42.15625 26.164062 42.191406 C 26.164062 42.15625 26.164062 42.125 26.164062 42.089844 C 25.984375 42.054688 25.8125 42.015625 25.632812 41.984375 C 26.578125 41.453125 26.578125 41.453125 27 41.664062 Z M 27 41.664062 "/>
<path style=" stroke:none;fill-rule:nonzero;fill:rgb(20.784314%,17.647059%,18.823529%);fill-opacity:1;" d="M 19.828125 14.027344 C 19.902344 14.171875 19.96875 14.304688 20.042969 14.453125 C 19.96875 14.453125 19.902344 14.453125 19.828125 14.453125 C 19.828125 14.589844 19.828125 14.730469 19.828125 14.875 C 19.566406 15.113281 19.566406 15.113281 19.300781 15.292969 C 19.371094 14.976562 19.476562 14.710938 19.628906 14.421875 C 19.664062 14.351562 19.703125 14.277344 19.742188 14.199219 C 19.769531 14.144531 19.800781 14.085938 19.828125 14.027344 Z M 19.828125 14.027344 "/>
<path style=" stroke:none;fill-rule:nonzero;fill:rgb(12.941176%,10.196078%,10.980392%);fill-opacity:1;" d="M 19.828125 28.691406 C 19.902344 28.726562 19.96875 28.757812 20.042969 28.796875 C 19.800781 29.042969 19.554688 29.289062 19.300781 29.535156 C 19.199219 29.5 19.097656 29.46875 18.988281 29.429688 C 19.023438 29.328125 19.058594 29.222656 19.09375 29.117188 C 19.234375 29.078125 19.375 29.042969 19.515625 29.007812 C 19.695312 28.851562 19.695312 28.851562 19.828125 28.691406 Z M 19.828125 28.691406 "/>
<path style=" stroke:none;fill-rule:nonzero;fill:rgb(11.764706%,9.019608%,9.803922%);fill-opacity:1;" d="M 35.863281 24.261719 C 36.195312 24.40625 36.285156 24.472656 36.5 24.789062 C 36.179688 24.890625 36.179688 24.890625 35.863281 24.789062 C 35.785156 24.578125 35.785156 24.578125 35.761719 24.367188 C 35.796875 24.332031 35.828125 24.296875 35.863281 24.261719 Z M 35.863281 24.261719 "/>
<path style=" stroke:none;fill-rule:nonzero;fill:rgb(12.54902%,10.196078%,11.372549%);fill-opacity:1;" d="M 24.367188 11.074219 C 24.578125 11.289062 24.578125 11.289062 24.589844 11.617188 C 24.585938 11.71875 24.585938 11.816406 24.578125 11.917969 C 24.40625 11.953125 24.226562 11.988281 24.054688 12.027344 C 24.15625 11.714844 24.257812 11.398438 24.367188 11.074219 Z M 24.367188 11.074219 "/>
<path style=" stroke:none;fill-rule:nonzero;fill:rgb(23.137255%,20%,21.176471%);fill-opacity:1;" d="M 18.039062 41.136719 C 18.210938 41.171875 18.382812 41.210938 18.5625 41.246094 C 18.46875 41.28125 18.46875 41.28125 18.363281 41.320312 C 18.121094 41.441406 18.121094 41.441406 18.054688 41.710938 C 18.042969 41.800781 18.027344 41.898438 18.011719 41.996094 C 18 42.09375 17.976562 42.1875 17.964844 42.285156 C 17.953125 42.363281 17.945312 42.4375 17.933594 42.507812 C 17.894531 42.507812 17.859375 42.507812 17.828125 42.507812 C 17.820312 42.363281 17.816406 42.210938 17.8125 42.0625 C 17.8125 41.976562 17.808594 41.894531 17.808594 41.8125 C 17.828125 41.539062 17.898438 41.371094 18.039062 41.136719 Z M 18.039062 41.136719 "/>
<path style=" stroke:none;fill-rule:nonzero;fill:rgb(17.254902%,10.588235%,12.941176%);fill-opacity:1;" d="M 31.855469 37.027344 C 31.921875 37.0625 31.996094 37.09375 32.066406 37.128906 C 31.828125 37.445312 31.582031 37.757812 31.328125 38.082031 C 31.292969 37.972656 31.257812 37.871094 31.226562 37.765625 C 31.414062 37.480469 31.414062 37.480469 31.644531 37.234375 C 31.714844 37.234375 31.789062 37.234375 31.855469 37.234375 C 31.855469 37.167969 31.855469 37.09375 31.855469 37.027344 Z M 31.855469 37.027344 "/>
<path style=" stroke:none;fill-rule:nonzero;fill:rgb(21.568627%,18.039216%,19.607843%);fill-opacity:1;" d="M 24.054688 36.5 C 23.890625 36.722656 23.890625 36.722656 23.628906 36.917969 C 23.324219 36.894531 23.078125 36.804688 22.78125 36.710938 C 22.78125 36.675781 22.78125 36.640625 22.78125 36.601562 C 22.933594 36.566406 23.085938 36.527344 23.238281 36.488281 C 23.324219 36.46875 23.40625 36.449219 23.496094 36.429688 C 23.734375 36.390625 23.734375 36.390625 24.054688 36.5 Z M 24.054688 36.5 "/>
<path style=" stroke:none;fill-rule:nonzero;fill:rgb(9.411765%,7.058824%,8.235294%);fill-opacity:1;" d="M 37.765625 27.742188 C 37.832031 27.777344 37.90625 27.8125 37.972656 27.847656 C 37.9375 28.300781 37.90625 28.753906 37.871094 29.21875 C 37.832031 29.21875 37.796875 29.21875 37.765625 29.21875 C 37.765625 28.976562 37.765625 28.730469 37.765625 28.480469 C 37.695312 28.445312 37.621094 28.414062 37.554688 28.375 C 37.621094 28.167969 37.691406 27.960938 37.765625 27.742188 Z M 37.765625 27.742188 "/>
<path style=" stroke:none;fill-rule:nonzero;fill:rgb(10.588235%,9.019608%,9.803922%);fill-opacity:1;" d="M 26.054688 27.425781 C 26.386719 27.464844 26.386719 27.464844 26.6875 27.53125 C 26.6875 27.703125 26.6875 27.882812 26.6875 28.054688 C 26.410156 27.921875 26.132812 27.777344 25.84375 27.636719 C 25.914062 27.570312 25.980469 27.5 26.054688 27.425781 Z M 26.054688 27.425781 "/>
<path style=" stroke:none;fill-rule:nonzero;fill:rgb(8.627451%,2.745098%,5.098039%);fill-opacity:1;" d="M 29.429688 9.601562 C 29.691406 9.84375 29.691406 9.84375 29.957031 10.125 C 29.957031 10.230469 29.957031 10.335938 29.957031 10.445312 C 29.851562 10.476562 29.75 10.511719 29.644531 10.546875 C 29.570312 10.234375 29.5 9.921875 29.429688 9.601562 Z M 29.429688 9.601562 "/>
<path style=" stroke:none;fill-rule:nonzero;fill:rgb(9.019608%,7.843137%,8.235294%);fill-opacity:1;" d="M 18.988281 43.246094 C 19.125 43.320312 19.265625 43.390625 19.410156 43.460938 C 19.144531 43.628906 19.019531 43.671875 18.707031 43.640625 C 18.585938 43.601562 18.585938 43.601562 18.460938 43.5625 C 18.421875 43.496094 18.390625 43.429688 18.355469 43.355469 C 18.480469 43.359375 18.480469 43.359375 18.613281 43.359375 C 18.875 43.382812 18.875 43.382812 18.988281 43.246094 Z M 18.988281 43.246094 "/>
<path style=" stroke:none;fill-rule:nonzero;fill:rgb(3.529412%,1.960784%,3.529412%);fill-opacity:1;" d="M 26.898438 34.707031 C 26.933594 34.773438 26.96875 34.84375 27 34.917969 C 26.851562 35.191406 26.851562 35.191406 26.6875 35.445312 C 26.582031 35.335938 26.480469 35.234375 26.371094 35.125 C 26.542969 34.984375 26.71875 34.847656 26.898438 34.707031 Z M 26.898438 34.707031 "/>
<path style=" stroke:none;fill-rule:nonzero;fill:rgb(4.313725%,3.921569%,3.921569%);fill-opacity:1;" d="M 35.863281 31.226562 C 35.972656 31.257812 36.074219 31.292969 36.179688 31.328125 C 36.078125 31.382812 36.078125 31.382812 35.972656 31.4375 C 35.851562 31.644531 35.851562 31.644531 35.761719 31.855469 C 35.65625 31.820312 35.550781 31.789062 35.445312 31.753906 C 35.582031 31.578125 35.722656 31.402344 35.863281 31.226562 Z M 35.863281 31.226562 "/>
<path style=" stroke:none;fill-rule:nonzero;fill:rgb(18.431373%,16.078431%,16.862745%);fill-opacity:1;" d="M 20.882812 10.445312 C 20.957031 10.445312 21.023438 10.445312 21.097656 10.445312 C 21.167969 10.65625 21.234375 10.859375 21.308594 11.074219 C 21.203125 11.007812 21.097656 10.9375 20.992188 10.863281 C 20.855469 10.863281 20.710938 10.863281 20.570312 10.863281 C 20.640625 10.828125 20.707031 10.796875 20.78125 10.761719 C 20.816406 10.65625 20.851562 10.550781 20.882812 10.445312 Z M 20.882812 10.445312 "/>
<path style=" stroke:none;fill-rule:nonzero;fill:rgb(10.980392%,9.411765%,10.588235%);fill-opacity:1;" d="M 27.953125 30.0625 C 28.089844 30.0625 28.234375 30.0625 28.375 30.0625 C 28.375 30.132812 28.375 30.199219 28.375 30.273438 C 28.445312 30.308594 28.515625 30.34375 28.589844 30.382812 C 28.480469 30.429688 28.480469 30.429688 28.375 30.484375 C 28.273438 30.640625 28.273438 30.640625 28.164062 30.800781 C 28.09375 30.554688 28.027344 30.3125 27.953125 30.0625 Z M 27.953125 30.0625 "/>
<path style=" stroke:none;fill-rule:nonzero;fill:rgb(12.54902%,8.627451%,10.196078%);fill-opacity:1;" d="M 30.800781 37.972656 C 31.023438 38.070312 31.023438 38.070312 31.226562 38.183594 C 31.050781 38.324219 30.875 38.460938 30.699219 38.609375 C 30.660156 38.433594 30.625 38.261719 30.589844 38.082031 C 30.660156 38.046875 30.726562 38.011719 30.800781 37.972656 Z M 30.800781 37.972656 "/>
<path style=" stroke:none;fill-rule:nonzero;fill:rgb(10.980392%,8.235294%,8.627451%);fill-opacity:1;" d="M 13.183594 34.808594 C 13.289062 34.917969 13.394531 35.019531 13.5 35.125 C 13.398438 35.265625 13.289062 35.40625 13.183594 35.546875 C 13.117188 35.34375 13.046875 35.132812 12.972656 34.917969 C 13.042969 34.882812 13.117188 34.84375 13.183594 34.808594 Z M 13.183594 34.808594 "/>
<path style=" stroke:none;fill-rule:nonzero;fill:rgb(13.333333%,10.588235%,11.764706%);fill-opacity:1;" d="M 20.882812 33.015625 C 20.957031 33.050781 21.023438 33.085938 21.097656 33.121094 C 21.097656 33.261719 21.097656 33.398438 21.097656 33.546875 C 20.957031 33.578125 20.820312 33.613281 20.671875 33.648438 C 20.765625 33.132812 20.765625 33.132812 20.882812 33.015625 Z M 20.882812 33.015625 "/>
<path style=" stroke:none;fill-rule:nonzero;fill:rgb(14.117647%,11.764706%,13.333333%);fill-opacity:1;" d="M 28.375 15.398438 C 28.445312 15.433594 28.515625 15.46875 28.589844 15.507812 C 28.589844 15.679688 28.589844 15.855469 28.589844 16.035156 C 28.378906 16.136719 28.378906 16.136719 28.164062 16.246094 C 28.257812 15.640625 28.257812 15.640625 28.375 15.398438 Z M 28.375 15.398438 "/>
<path style=" stroke:none;fill-rule:nonzero;fill:rgb(14.117647%,7.45098%,11.372549%);fill-opacity:1;" d="M 20.355469 9.808594 C 20.515625 9.917969 20.515625 9.917969 20.671875 10.019531 C 20.671875 10.09375 20.671875 10.160156 20.671875 10.234375 C 20.605469 10.234375 20.539062 10.234375 20.464844 10.234375 C 20.464844 10.40625 20.464844 10.582031 20.464844 10.761719 C 20.394531 10.6875 20.328125 10.621094 20.253906 10.546875 C 20.292969 10.164062 20.292969 10.164062 20.355469 9.808594 Z M 20.355469 9.808594 "/>
</g>
</svg>
