<?xml version="1.0" encoding="UTF-8"?>
<svg xmlns="http://www.w3.org/2000/svg" xmlns:xlink="http://www.w3.org/1999/xlink" width="40px" height="40px" viewBox="0 0 40 40" version="1.1">
<g id="surface1">
<path style=" stroke:none;fill-rule:nonzero;fill:rgb(0%,0%,0%);fill-opacity:1;" d="M 29.199219 2.851562 C 33.652344 5.542969 36.828125 9.453125 38.398438 14.398438 C 39.042969 20.675781 39.277344 26.875 35.199219 32 C 31.640625 35.761719 28.246094 38.128906 22.984375 38.667969 C 16.363281 38.742188 11.53125 38.542969 6.605469 33.882812 C 1.859375 28.683594 1.230469 24.113281 1.351562 17.160156 C 1.820312 11.925781 3.714844 8.800781 7.550781 5.300781 C 13.324219 0.503906 22.382812 -0.222656 29.199219 2.851562 Z M 6.898438 10.050781 C 3.25 14.429688 3.503906 19.324219 4 24.800781 C 5.375 29.328125 8.996094 32.570312 12.800781 35.199219 C 17.074219 36.625 22.167969 36.800781 26.507812 35.480469 C 30.765625 33.246094 34.480469 29.363281 36 24.800781 C 36.53125 18.828125 36.546875 14.402344 32.800781 9.601562 C 28.804688 5.605469 25.964844 3.890625 20.199219 3.75 C 14.09375 3.824219 11 5.488281 6.898438 10.050781 Z M 6.898438 10.050781 "/>
<path style=" stroke:none;fill-rule:nonzero;fill:rgb(0%,0%,0%);fill-opacity:1;" d="M 10.398438 8 C 14.097656 8 17.792969 8 21.601562 8 C 21.835938 15.890625 21.835938 15.890625 21.601562 18.398438 C 21.203125 18.789062 20.804688 19.179688 20.398438 19.582031 C 18.914062 20.828125 18.914062 20.828125 18.992188 23.429688 C 19.027344 24.425781 19.0625 25.421875 19.101562 26.449219 C 19.269531 31.863281 19.269531 31.863281 18.398438 33.601562 C 16.800781 33.632812 15.199219 33.632812 13.601562 33.601562 C 13.335938 33.335938 13.070312 33.070312 12.800781 32.800781 C 12.804688 30.273438 12.863281 27.761719 12.972656 25.238281 C 13.035156 23.425781 13.035156 23.425781 12.800781 20.800781 C 12.015625 19.984375 11.214844 19.183594 10.398438 18.398438 C 10.074219 14.910156 10.296875 11.511719 10.398438 8 Z M 12.800781 9.601562 C 12.800781 12.238281 12.800781 14.878906 12.800781 17.601562 C 14.664062 18.558594 14.664062 18.558594 16.800781 19.199219 C 17.59375 18.671875 18.382812 18.144531 19.199219 17.601562 C 19.492188 15.652344 19.492188 15.652344 19.351562 13.5 C 19.316406 12.40625 19.316406 12.40625 19.285156 11.292969 C 19.242188 10.457031 19.242188 10.457031 19.199219 9.601562 C 18.9375 9.601562 18.671875 9.601562 18.398438 9.601562 C 18.398438 11.710938 18.398438 13.824219 18.398438 16 C 17.871094 16 17.34375 16 16.800781 16 C 16.800781 13.886719 16.800781 11.777344 16.800781 9.601562 C 16.273438 9.601562 15.742188 9.601562 15.199219 9.601562 C 15.199219 11.710938 15.199219 13.824219 15.199219 16 C 14.671875 16 14.144531 16 13.601562 16 C 13.601562 13.886719 13.601562 11.777344 13.601562 9.601562 C 13.335938 9.601562 13.070312 9.601562 12.800781 9.601562 Z M 15.199219 23.199219 C 15.199219 25.839844 15.199219 28.480469 15.199219 31.199219 C 15.726562 31.199219 16.257812 31.199219 16.800781 31.199219 C 16.800781 28.558594 16.800781 25.921875 16.800781 23.199219 C 16.273438 23.199219 15.742188 23.199219 15.199219 23.199219 Z M 15.199219 23.199219 "/>
<path style=" stroke:none;fill-rule:nonzero;fill:rgb(0%,0%,0%);fill-opacity:1;" d="M 23.199219 8 C 27.019531 8.625 27.019531 8.625 28.636719 10.195312 C 29.773438 12.324219 29.871094 13.652344 29.800781 16.050781 C 29.789062 16.734375 29.773438 17.421875 29.761719 18.128906 C 29.601562 20 29.601562 20 28.800781 22.398438 C 28.621094 24.179688 28.472656 25.964844 28.351562 27.75 C 28.28125 28.695312 28.214844 29.636719 28.148438 30.609375 C 28.097656 31.332031 28.050781 32.054688 28 32.800781 C 26.675781 33.105469 25.339844 33.371094 24 33.601562 C 23.199219 32.800781 23.199219 32.800781 23.109375 30.433594 C 23.113281 29.398438 23.117188 28.363281 23.121094 27.296875 C 23.121094 26.746094 23.125 26.199219 23.125 25.632812 C 23.128906 23.871094 23.140625 22.109375 23.148438 20.351562 C 23.152344 19.160156 23.15625 17.96875 23.160156 16.777344 C 23.167969 13.851562 23.183594 10.925781 23.199219 8 Z M 24.800781 11.199219 C 24.800781 16.742188 24.800781 22.289062 24.800781 28 C 25.0625 28 25.328125 28 25.601562 28 C 25.648438 27.5 25.695312 26.996094 25.746094 26.480469 C 25.8125 25.828125 25.882812 25.171875 25.949219 24.5 C 26.015625 23.851562 26.078125 23.199219 26.148438 22.53125 C 26.398438 20.800781 26.398438 20.800781 27.199219 19.199219 C 27.464844 16.433594 27.464844 16.433594 27.199219 13.601562 C 26.40625 12.808594 25.617188 12.015625 24.800781 11.199219 Z M 24.800781 11.199219 "/>
</g>
</svg>
