<?xml version="1.0" encoding="UTF-8"?>
<svg xmlns="http://www.w3.org/2000/svg" xmlns:xlink="http://www.w3.org/1999/xlink" width="40px" height="40px" viewBox="0 0 40 40" version="1.1">
<g id="surface1">
<path style=" stroke:none;fill-rule:nonzero;fill:rgb(0%,0%,0%);fill-opacity:1;" d="M 18.398438 0 C 23.507812 0.480469 23.507812 0.480469 25.550781 1.800781 C 26.683594 3.667969 26.574219 5.058594 26.398438 7.199219 C 26.894531 7.332031 27.390625 7.464844 27.898438 7.601562 C 30.144531 9.183594 30.414062 10.847656 30.953125 13.464844 C 31.390625 16.539062 31.816406 19.570312 30.398438 22.398438 C 29.871094 22.398438 29.34375 22.398438 28.800781 22.398438 C 28.800781 23.984375 28.800781 25.566406 28.800781 27.199219 C 28.273438 27.199219 27.742188 27.199219 27.199219 27.199219 C 27.101562 27.789062 27.007812 28.378906 26.90625 28.984375 C 26.773438 29.765625 26.636719 30.546875 26.5 31.351562 C 26.371094 32.121094 26.238281 32.890625 26.105469 33.683594 C 25.617188 35.929688 24.914062 37.898438 24 40 C 21.359375 40 18.71875 40 16 40 C 14.472656 35.6875 13.285156 31.746094 12.800781 27.199219 C 12.273438 27.199219 11.742188 27.199219 11.199219 27.199219 C 11.199219 25.617188 11.199219 24.03125 11.199219 22.398438 C 10.671875 22.398438 10.144531 22.398438 9.601562 22.398438 C 7.503906 18.203125 9.097656 13.65625 10.441406 9.457031 C 11.199219 8 11.199219 8 13.601562 7.199219 C 13.664062 6.574219 13.730469 5.945312 13.800781 5.300781 C 14.398438 3.199219 14.398438 3.199219 16 2.25 C 16.527344 2.035156 17.054688 1.820312 17.601562 1.601562 C 17.863281 1.070312 18.128906 0.542969 18.398438 0 Z M 18.800781 3.550781 C 18.402344 3.960938 18.007812 4.375 17.601562 4.800781 C 16.808594 5.195312 16.808594 5.195312 16 5.601562 C 16.265625 6.65625 16.527344 7.710938 16.800781 8.800781 C 15.480469 9.0625 14.160156 9.328125 12.800781 9.601562 C 12.800781 10.65625 12.800781 11.710938 12.800781 12.800781 C 13.59375 12.800781 14.382812 12.800781 15.199219 12.800781 C 14.195312 14.808594 13.199219 15.097656 11.199219 16 C 11.199219 17.320312 11.199219 18.640625 11.199219 20 C 14.109375 21.832031 16.609375 21.8125 20 21.800781 C 20.972656 21.804688 21.945312 21.808594 22.949219 21.8125 C 25.402344 21.617188 26.75 21.292969 28.800781 20 C 28.800781 18.679688 28.800781 17.359375 28.800781 16 C 25.679688 13.917969 22.820312 14.28125 19.199219 14.398438 C 19.199219 13.871094 19.199219 13.34375 19.199219 12.800781 C 21.839844 12.800781 24.480469 12.800781 27.199219 12.800781 C 27.199219 11.742188 27.199219 10.6875 27.199219 9.601562 C 25.21875 9.203125 25.21875 9.203125 23.199219 8.800781 C 23.382812 8.191406 23.5625 7.578125 23.75 6.949219 C 24.246094 4.796875 24.246094 4.796875 22.949219 3.351562 C 21.097656 2.046875 20.457031 1.960938 18.800781 3.550781 Z M 12.800781 23.199219 C 12.800781 23.992188 12.800781 24.785156 12.800781 25.601562 C 17.550781 25.601562 22.304688 25.601562 27.199219 25.601562 C 27.199219 24.808594 27.199219 24.015625 27.199219 23.199219 C 22.449219 23.199219 17.695312 23.199219 12.800781 23.199219 Z M 19.199219 28.800781 C 19.199219 29.855469 19.199219 30.910156 19.199219 32 C 19.992188 31.734375 20.785156 31.472656 21.601562 31.199219 C 21.335938 30.40625 21.070312 29.617188 20.800781 28.800781 C 20.273438 28.800781 19.742188 28.800781 19.199219 28.800781 Z M 16.800781 33.601562 C 17.601562 35.199219 17.601562 35.199219 17.601562 35.199219 Z M 22.398438 33.601562 C 23.199219 35.199219 23.199219 35.199219 23.199219 35.199219 Z M 19.199219 36.800781 C 18.9375 37.328125 18.671875 37.855469 18.398438 38.398438 C 19.457031 38.136719 20.511719 37.871094 21.601562 37.601562 C 20.808594 37.335938 20.015625 37.070312 19.199219 36.800781 Z M 19.199219 36.800781 "/>
<path style=" stroke:none;fill-rule:nonzero;fill:rgb(0%,0%,0%);fill-opacity:1;" d="M 17.601562 17.601562 C 19.183594 17.601562 20.769531 17.601562 22.398438 17.601562 C 22.398438 18.390625 22.398438 19.183594 22.398438 20 C 20.816406 20 19.230469 20 17.601562 20 C 17.601562 19.207031 17.601562 18.414062 17.601562 17.601562 Z M 17.601562 17.601562 "/>
<path style=" stroke:none;fill-rule:nonzero;fill:rgb(0%,0%,0%);fill-opacity:1;" d="M 24 16 C 24.792969 16 25.585938 16 26.398438 16 C 26.398438 16.792969 26.398438 17.585938 26.398438 18.398438 C 25.609375 18.398438 24.816406 18.398438 24 18.398438 C 24 17.609375 24 16.816406 24 16 Z M 24 16 "/>
<path style=" stroke:none;fill-rule:nonzero;fill:rgb(0%,0%,0%);fill-opacity:1;" d="M 13.601562 16 C 14.390625 16 15.183594 16 16 16 C 16 16.792969 16 17.585938 16 18.398438 C 15.207031 18.398438 14.414062 18.398438 13.601562 18.398438 C 13.601562 17.609375 13.601562 16.816406 13.601562 16 Z M 13.601562 16 "/>
</g>
</svg>
