<?xml version="1.0" encoding="UTF-8"?>
<svg xmlns="http://www.w3.org/2000/svg" xmlns:xlink="http://www.w3.org/1999/xlink" width="100px" height="100px" viewBox="0 0 100 100" version="1.1">
<g id="surface1">
<path style=" stroke:none;fill-rule:nonzero;fill:rgb(14.509804%,12.941176%,13.333333%);fill-opacity:1;" d="M 50.84375 19 C 55.351562 18.984375 59.859375 18.976562 64.367188 18.976562 C 64.960938 18.976562 65.5625 18.976562 66.15625 18.976562 C 67.851562 18.96875 69.546875 18.96875 71.242188 18.976562 C 71.75 18.976562 72.257812 18.976562 72.765625 18.976562 C 74.3125 18.96875 75.859375 18.976562 77.398438 19 C 77.609375 19 77.820312 19.007812 78.03125 19.007812 C 78.640625 19.015625 79.242188 19.03125 79.851562 19.054688 C 80.023438 19.054688 80.203125 19.054688 80.382812 19.0625 C 81.546875 19.101562 82.257812 19.304688 83.203125 20 C 83.828125 20.8125 83.890625 21.546875 83.90625 22.539062 C 83.90625 22.695312 83.90625 22.851562 83.914062 23.015625 C 83.921875 23.546875 83.929688 24.070312 83.9375 24.601562 C 83.945312 24.992188 83.953125 25.382812 83.960938 25.773438 C 84.046875 31.375 84.015625 36.976562 84 42.570312 C 84 43.539062 83.992188 44.507812 83.992188 45.476562 C 83.984375 48.164062 83.976562 50.859375 83.96875 53.546875 C 83.96875 53.71875 83.96875 53.890625 83.96875 54.0625 C 83.96875 54.40625 83.96875 54.75 83.960938 55.101562 C 83.960938 55.265625 83.960938 55.4375 83.960938 55.617188 C 83.960938 55.875 83.960938 55.875 83.960938 56.132812 C 83.953125 58.929688 83.945312 61.726562 83.9375 64.523438 C 83.9375 67.414062 83.929688 70.304688 83.921875 73.1875 C 83.914062 74.804688 83.90625 76.421875 83.90625 78.039062 C 83.90625 79.40625 83.898438 80.773438 83.898438 82.140625 C 83.890625 82.835938 83.890625 83.539062 83.890625 84.234375 C 83.890625 84.992188 83.882812 85.742188 83.882812 86.5 C 83.882812 86.71875 83.882812 86.9375 83.882812 87.164062 C 83.867188 89.023438 83.867188 89.023438 83.203125 89.796875 C 80.953125 91.59375 76.570312 90.828125 73.867188 90.828125 C 73.164062 90.828125 72.46875 90.828125 71.773438 90.828125 C 70.414062 90.828125 69.054688 90.828125 67.6875 90.828125 C 66.585938 90.828125 65.476562 90.828125 64.367188 90.828125 C 64.210938 90.828125 64.054688 90.828125 63.890625 90.828125 C 63.570312 90.828125 63.25 90.828125 62.921875 90.828125 C 59.921875 90.828125 56.914062 90.828125 53.90625 90.828125 C 51.328125 90.828125 48.757812 90.828125 46.179688 90.828125 C 43.1875 90.828125 40.1875 90.828125 37.195312 90.828125 C 36.875 90.828125 36.554688 90.828125 36.234375 90.828125 C 36.078125 90.828125 35.914062 90.828125 35.757812 90.828125 C 34.648438 90.828125 33.546875 90.828125 32.4375 90.828125 C 31.09375 90.828125 29.742188 90.828125 28.398438 90.828125 C 27.710938 90.828125 27.023438 90.828125 26.335938 90.828125 C 19.039062 90.828125 19.039062 90.828125 17.601562 90 C 16.78125 89.109375 16.578125 88.476562 16.570312 87.28125 C 16.570312 87.046875 16.570312 86.820312 16.570312 86.578125 C 16.570312 86.320312 16.570312 86.0625 16.570312 85.796875 C 16.570312 85.515625 16.570312 85.242188 16.570312 84.96875 C 16.5625 84.210938 16.5625 83.445312 16.5625 82.6875 C 16.5625 81.867188 16.5625 81.054688 16.554688 80.234375 C 16.554688 78.257812 16.546875 76.28125 16.546875 74.304688 C 16.546875 73.742188 16.546875 73.1875 16.546875 72.625 C 16.539062 69.15625 16.53125 65.695312 16.53125 62.226562 C 16.53125 61.421875 16.53125 60.617188 16.53125 59.820312 C 16.53125 59.617188 16.53125 59.414062 16.53125 59.210938 C 16.523438 55.976562 16.523438 52.742188 16.515625 49.507812 C 16.5 46.1875 16.5 42.867188 16.5 39.554688 C 16.5 37.6875 16.492188 35.820312 16.484375 33.960938 C 16.484375 32.375 16.476562 30.78125 16.484375 29.195312 C 16.484375 28.382812 16.484375 27.578125 16.476562 26.765625 C 16.476562 26.023438 16.476562 25.28125 16.476562 24.539062 C 16.476562 24.148438 16.476562 23.75 16.46875 23.359375 C 16.484375 21.921875 16.617188 20.890625 17.601562 19.796875 C 18.679688 18.953125 20.03125 19.109375 21.34375 19.117188 C 21.601562 19.109375 21.859375 19.109375 22.125 19.109375 C 22.84375 19.101562 23.5625 19.101562 24.273438 19.101562 C 25.046875 19.09375 25.8125 19.09375 26.585938 19.085938 C 28.085938 19.078125 29.585938 19.070312 31.085938 19.070312 C 32.304688 19.0625 33.515625 19.0625 34.734375 19.054688 C 34.90625 19.054688 35.078125 19.054688 35.257812 19.046875 C 35.609375 19.046875 35.960938 19.046875 36.3125 19.046875 C 40.632812 19.023438 44.953125 19.015625 49.273438 19 C 49.796875 19 50.320312 19 50.84375 19 Z M 49.796875 28.601562 C 49.601562 29.054688 49.398438 29.515625 49.203125 29.976562 C 49.117188 30.171875 49.117188 30.171875 49.023438 30.367188 C 48.710938 31.0625 48.710938 31.0625 48.601562 31.796875 C 48.421875 31.828125 48.25 31.851562 48.070312 31.882812 C 47.835938 31.914062 47.601562 31.953125 47.359375 31.984375 C 47.132812 32.023438 46.90625 32.054688 46.664062 32.09375 C 46.109375 32.179688 45.554688 32.28125 45 32.398438 C 45.671875 33.21875 46.320312 33.992188 47.203125 34.601562 C 47.328125 34.601562 47.460938 34.601562 47.601562 34.601562 C 47.53125 35.851562 47.46875 37.109375 47.398438 38.398438 C 47.710938 38.25 48.015625 38.09375 48.335938 37.9375 C 48.523438 37.84375 48.703125 37.757812 48.898438 37.664062 C 49.421875 37.40625 49.421875 37.40625 49.914062 37 C 50.734375 36.664062 51.40625 37.085938 52.203125 37.398438 C 52.539062 37.515625 52.875 37.625 53.210938 37.734375 C 53.609375 37.867188 53.609375 37.867188 54 38 C 53.929688 37.71875 53.929688 37.71875 53.859375 37.4375 C 53.804688 37.1875 53.75 36.945312 53.6875 36.6875 C 53.601562 36.320312 53.601562 36.320312 53.515625 35.953125 C 53.398438 35.171875 53.453125 34.570312 53.601562 33.796875 C 53.734375 33.796875 53.867188 33.796875 54 33.796875 C 54.351562 33.453125 54.351562 33.453125 54.710938 33.023438 C 54.835938 32.882812 54.960938 32.734375 55.085938 32.585938 C 55.40625 32.21875 55.40625 32.21875 55.601562 31.796875 C 54.320312 31.632812 53.085938 31.578125 51.796875 31.601562 C 51.75 31.453125 51.695312 31.3125 51.640625 31.164062 C 51.398438 30.59375 51.117188 30.070312 50.796875 29.539062 C 50.695312 29.359375 50.59375 29.1875 50.484375 29 C 50.390625 28.867188 50.296875 28.734375 50.203125 28.601562 C 50.070312 28.601562 49.9375 28.601562 49.796875 28.601562 Z M 40.203125 31.601562 C 40.070312 31.992188 39.9375 32.390625 39.796875 32.796875 C 39.335938 32.867188 38.875 32.929688 38.398438 33 C 38.53125 33.140625 38.65625 33.28125 38.789062 33.421875 C 39.234375 34.046875 39.328125 34.453125 39.398438 35.203125 C 39.578125 35.132812 39.757812 35.0625 39.9375 34.984375 C 40.609375 34.796875 40.9375 34.804688 41.601562 35 C 41.625 34.789062 41.648438 34.570312 41.671875 34.351562 C 41.78125 33.726562 41.882812 33.335938 42.203125 32.796875 C 41.929688 32.78125 41.929688 32.78125 41.648438 32.765625 C 40.851562 32.5625 40.648438 32.273438 40.203125 31.601562 Z M 59.398438 31.601562 C 59.320312 31.757812 59.234375 31.921875 59.148438 32.085938 C 58.796875 32.601562 58.796875 32.601562 58.164062 32.765625 C 57.976562 32.773438 57.789062 32.789062 57.601562 32.796875 C 57.726562 32.898438 57.859375 33 57.984375 33.101562 C 58.5625 33.796875 58.539062 34.304688 58.601562 35.203125 C 58.695312 35.132812 58.796875 35.0625 58.898438 34.984375 C 59.648438 34.710938 60.21875 34.867188 61 35 C 60.984375 34.75 60.976562 34.5 60.960938 34.234375 C 60.960938 33.453125 60.960938 33.453125 61.296875 33.015625 C 61.398438 32.945312 61.5 32.875 61.601562 32.796875 C 61.601562 32.734375 61.601562 32.671875 61.601562 32.601562 C 61.140625 32.601562 60.679688 32.601562 60.203125 32.601562 C 60.070312 32.273438 59.9375 31.9375 59.796875 31.601562 C 59.671875 31.601562 59.539062 31.601562 59.398438 31.601562 Z M 25.398438 41.796875 C 25.125 44.023438 24.890625 46.242188 24.710938 48.476562 C 24.671875 48.953125 24.632812 49.429688 24.59375 49.90625 C 24.445312 51.679688 24.375 53.421875 24.398438 55.203125 C 25.320312 55.203125 26.25 55.203125 27.203125 55.203125 C 27.398438 52.953125 27.59375 50.710938 27.796875 48.398438 C 27.929688 48.398438 28.0625 48.398438 28.203125 48.398438 C 28.296875 48.640625 28.398438 48.882812 28.5 49.125 C 29.351562 51.171875 30.242188 53.195312 31.203125 55.203125 C 31.929688 55.203125 32.648438 55.203125 33.398438 55.203125 C 34.453125 52.820312 35.515625 50.445312 36.601562 48 C 37.007812 48.40625 36.90625 49.195312 36.953125 49.75 C 36.96875 49.984375 36.96875 49.984375 36.992188 50.21875 C 37.03125 50.71875 37.070312 51.21875 37.109375 51.710938 C 37.140625 52.046875 37.171875 52.382812 37.195312 52.71875 C 37.265625 53.546875 37.335938 54.375 37.398438 55.203125 C 38.320312 55.203125 39.25 55.203125 40.203125 55.203125 C 40.21875 53.703125 40.164062 52.234375 40.03125 50.742188 C 40.007812 50.429688 40.007812 50.429688 39.976562 50.117188 C 39.945312 49.6875 39.90625 49.25 39.867188 48.820312 C 39.8125 48.164062 39.757812 47.507812 39.703125 46.84375 C 39.664062 46.421875 39.632812 46 39.59375 45.578125 C 39.578125 45.382812 39.5625 45.1875 39.546875 44.992188 C 39.453125 43.921875 39.34375 42.859375 39.203125 41.796875 C 38.273438 41.796875 37.351562 41.796875 36.398438 41.796875 C 34.382812 46.289062 34.382812 46.289062 32.398438 50.796875 C 31.898438 50.1875 31.578125 49.5625 31.257812 48.835938 C 31.15625 48.609375 31.054688 48.382812 30.953125 48.148438 C 30.851562 47.914062 30.742188 47.671875 30.640625 47.421875 C 30.53125 47.179688 30.421875 46.9375 30.3125 46.6875 C 29.601562 45.0625 28.890625 43.4375 28.203125 41.796875 C 27.273438 41.796875 26.351562 41.796875 25.398438 41.796875 Z M 41.398438 41.796875 C 41.398438 46.21875 41.398438 50.640625 41.398438 55.203125 C 44.4375 55.203125 47.46875 55.203125 50.601562 55.203125 C 50.601562 54.40625 50.601562 53.617188 50.601562 52.796875 C 47.632812 52.703125 47.632812 52.703125 44.601562 52.601562 C 44.398438 51.601562 44.398438 51.601562 44.398438 49.398438 C 46.25 49.398438 48.09375 49.398438 50 49.398438 C 50 48.609375 50 47.8125 50 47 C 47.226562 46.898438 47.226562 46.898438 44.398438 46.796875 C 44.398438 46.070312 44.398438 45.351562 44.398438 44.601562 C 46.46875 44.445312 48.523438 44.375 50.601562 44.398438 C 50.601562 43.539062 50.601562 42.6875 50.601562 41.796875 C 47.5625 41.796875 44.53125 41.796875 41.398438 41.796875 Z M 51.796875 41.796875 C 51.523438 42.359375 51.578125 42.8125 51.578125 43.4375 C 51.578125 43.695312 51.578125 43.960938 51.578125 44.226562 C 51.578125 44.515625 51.578125 44.796875 51.578125 45.085938 C 51.578125 45.375 51.578125 45.664062 51.578125 45.953125 C 51.585938 46.71875 51.585938 47.484375 51.585938 48.25 C 51.585938 49.039062 51.585938 49.820312 51.59375 50.601562 C 51.59375 52.132812 51.59375 53.664062 51.601562 55.203125 C 52.59375 55.203125 53.578125 55.203125 54.601562 55.203125 C 54.664062 52.492188 54.734375 49.789062 54.796875 47 C 56.296875 49.015625 57.78125 51.039062 59.21875 53.09375 C 59.3125 53.226562 59.398438 53.359375 59.492188 53.492188 C 59.570312 53.601562 59.65625 53.71875 59.734375 53.835938 C 60.070312 54.304688 60.4375 54.75 60.796875 55.203125 C 61.65625 55.203125 62.515625 55.203125 63.398438 55.203125 C 63.398438 50.78125 63.398438 46.359375 63.398438 41.796875 C 62.40625 41.796875 61.421875 41.796875 60.398438 41.796875 C 60.398438 42.140625 60.40625 42.484375 60.40625 42.835938 C 60.429688 47.546875 60.429688 47.546875 60.203125 49.796875 C 58.953125 48.1875 57.703125 46.570312 56.523438 44.898438 C 56.445312 44.789062 56.359375 44.671875 56.273438 44.554688 C 55.914062 44.054688 55.570312 43.554688 55.25 43.023438 C 54.929688 42.523438 54.679688 42.15625 54.203125 41.796875 C 53.375 41.65625 52.625 41.6875 51.796875 41.796875 Z M 65.203125 41.796875 C 65.179688 43.101562 65.164062 44.40625 65.15625 45.703125 C 65.148438 46.148438 65.148438 46.59375 65.140625 47.03125 C 65.132812 47.671875 65.125 48.3125 65.125 48.945312 C 65.117188 49.140625 65.117188 49.335938 65.109375 49.539062 C 65.109375 51.140625 65.484375 52.570312 66.453125 53.875 C 68.03125 55.382812 69.835938 55.492188 71.929688 55.453125 C 73.335938 55.398438 74.492188 55.007812 75.585938 54.125 C 75.726562 53.953125 75.859375 53.78125 76 53.601562 C 76.140625 53.421875 76.289062 53.234375 76.4375 53.046875 C 77.234375 51.625 77.257812 50.101562 77.242188 48.5 C 77.242188 48.304688 77.234375 48.117188 77.234375 47.914062 C 77.234375 47.304688 77.226562 46.695312 77.226562 46.085938 C 77.226562 45.671875 77.21875 45.257812 77.21875 44.84375 C 77.21875 43.828125 77.210938 42.8125 77.203125 41.796875 C 76.210938 41.796875 75.21875 41.796875 74.203125 41.796875 C 74.195312 42.070312 74.195312 42.34375 74.1875 42.625 C 74.179688 43.640625 74.164062 44.648438 74.148438 45.664062 C 74.140625 46.101562 74.132812 46.539062 74.132812 46.976562 C 74.125 47.609375 74.117188 48.242188 74.101562 48.867188 C 74.101562 49.0625 74.101562 49.257812 74.101562 49.460938 C 74.078125 50.515625 74 51.289062 73.398438 52.203125 C 72.414062 52.921875 71.375 52.9375 70.203125 52.796875 C 69.453125 52.539062 69.117188 52.351562 68.640625 51.726562 C 68.132812 50.609375 68.15625 49.46875 68.140625 48.265625 C 68.132812 48.078125 68.125 47.898438 68.125 47.703125 C 68.109375 47.117188 68.101562 46.523438 68.085938 45.9375 C 68.078125 45.539062 68.070312 45.140625 68.0625 44.734375 C 68.039062 43.757812 68.023438 42.78125 68 41.796875 C 67.078125 41.796875 66.148438 41.796875 65.203125 41.796875 Z M 24.398438 61 C 24.398438 61.328125 24.398438 61.65625 24.398438 62 C 24.710938 62.3125 25.007812 62.226562 25.4375 62.226562 C 25.617188 62.226562 25.804688 62.226562 25.992188 62.226562 C 26.296875 62.226562 26.296875 62.226562 26.601562 62.226562 C 26.921875 62.226562 26.921875 62.226562 27.25 62.226562 C 27.96875 62.226562 28.6875 62.226562 29.40625 62.226562 C 29.921875 62.226562 30.4375 62.226562 30.945312 62.234375 C 32.203125 62.234375 33.453125 62.234375 34.710938 62.234375 C 35.726562 62.234375 36.75 62.234375 37.765625 62.234375 C 40.65625 62.234375 43.539062 62.234375 46.421875 62.234375 C 46.578125 62.234375 46.734375 62.234375 46.898438 62.234375 C 47.054688 62.234375 47.210938 62.234375 47.367188 62.234375 C 49.898438 62.234375 52.421875 62.242188 54.953125 62.242188 C 57.539062 62.242188 60.132812 62.242188 62.726562 62.242188 C 64.179688 62.242188 65.640625 62.25 67.09375 62.25 C 68.46875 62.25 69.835938 62.25 71.203125 62.25 C 71.710938 62.25 72.210938 62.25 72.71875 62.25 C 73.398438 62.25 74.085938 62.25 74.773438 62.25 C 74.976562 62.25 75.171875 62.25 75.382812 62.25 C 75.5625 62.25 75.75 62.25 75.9375 62.25 C 76.09375 62.25 76.25 62.25 76.414062 62.25 C 76.851562 62.234375 76.851562 62.234375 77.203125 61.796875 C 77.132812 61.539062 77.070312 61.273438 77 61 C 59.640625 61 42.28125 61 24.398438 61 Z M 24.398438 61 "/>
<path style=" stroke:none;fill-rule:nonzero;fill:rgb(14.901961%,13.333333%,13.72549%);fill-opacity:1;" d="M 70.9375 10.140625 C 71.15625 10.203125 71.375 10.265625 71.601562 10.328125 C 72.320312 10.65625 72.570312 10.9375 73 11.601562 C 73.09375 12.265625 73.09375 12.265625 73.078125 13.007812 C 73.078125 13.140625 73.078125 13.273438 73.078125 13.40625 C 73.070312 13.828125 73.0625 14.242188 73.046875 14.664062 C 73.046875 14.945312 73.039062 15.234375 73.039062 15.515625 C 73.03125 16.210938 73.015625 16.90625 73 17.601562 C 66.726562 17.632812 60.453125 17.65625 54.179688 17.6875 C 53.4375 17.6875 52.703125 17.695312 51.960938 17.695312 C 51.742188 17.695312 51.742188 17.695312 51.515625 17.695312 C 49.125 17.710938 46.742188 17.71875 44.351562 17.734375 C 41.898438 17.742188 39.453125 17.757812 37 17.765625 C 35.492188 17.773438 33.976562 17.78125 32.46875 17.789062 C 31.3125 17.789062 30.148438 17.796875 28.992188 17.804688 C 28.515625 17.804688 28.039062 17.804688 27.5625 17.804688 C 26.914062 17.8125 26.265625 17.8125 25.617188 17.820312 C 25.429688 17.820312 25.242188 17.820312 25.046875 17.820312 C 24.140625 17.820312 23.289062 17.789062 22.398438 17.601562 C 22.898438 17.101562 23.148438 17.101562 23.835938 16.992188 C 24.171875 16.9375 24.171875 16.9375 24.507812 16.882812 C 24.757812 16.84375 25.007812 16.8125 25.257812 16.773438 C 25.53125 16.726562 25.796875 16.6875 26.0625 16.640625 C 26.648438 16.546875 27.242188 16.453125 27.828125 16.359375 C 28.789062 16.210938 29.75 16.054688 30.710938 15.90625 C 30.875 15.875 31.046875 15.851562 31.21875 15.820312 C 31.570312 15.765625 31.914062 15.710938 32.265625 15.65625 C 32.820312 15.5625 33.367188 15.476562 33.921875 15.390625 C 38.914062 14.59375 43.90625 13.773438 48.898438 12.953125 C 50.148438 12.742188 51.398438 12.539062 52.648438 12.335938 C 52.890625 12.296875 53.132812 12.257812 53.375 12.21875 C 54.554688 12.023438 55.734375 11.828125 56.914062 11.640625 C 57.359375 11.5625 57.8125 11.492188 58.257812 11.414062 C 58.476562 11.382812 58.6875 11.34375 58.914062 11.3125 C 60.125 11.109375 61.335938 10.914062 62.539062 10.710938 C 63.242188 10.59375 63.9375 10.476562 64.632812 10.367188 C 64.945312 10.3125 65.257812 10.257812 65.570312 10.210938 C 65.992188 10.140625 66.414062 10.070312 66.835938 10 C 67.070312 9.960938 67.296875 9.921875 67.539062 9.882812 C 68.75 9.734375 69.765625 9.789062 70.9375 10.140625 Z M 70.9375 10.140625 "/>
<path style=" stroke:none;fill-rule:nonzero;fill:rgb(18.431373%,17.254902%,17.647059%);fill-opacity:1;" d="M 50.601562 41.796875 C 50.664062 41.796875 50.734375 41.796875 50.796875 41.796875 C 50.898438 42.984375 50.898438 42.984375 51 44.203125 C 51.351562 43.851562 51.273438 43.359375 51.3125 42.890625 C 51.328125 42.6875 51.34375 42.484375 51.359375 42.273438 C 51.382812 42.039062 51.382812 42.039062 51.398438 41.796875 C 51.53125 41.796875 51.664062 41.796875 51.796875 41.796875 C 51.734375 46.21875 51.671875 50.640625 51.601562 55.203125 C 51.203125 55.296875 51.203125 55.296875 50.796875 55.398438 C 50.734375 55.335938 50.671875 55.265625 50.601562 55.203125 C 50.601562 54.40625 50.601562 53.617188 50.601562 52.796875 C 48.617188 52.796875 46.640625 52.796875 44.601562 52.796875 C 44.148438 51.445312 44.148438 51.445312 44.164062 50.648438 C 44.164062 50.5 44.164062 50.34375 44.164062 50.1875 C 44.203125 49.796875 44.203125 49.796875 44.398438 49.398438 C 46.25 49.398438 48.09375 49.398438 50 49.398438 C 50 48.609375 50 47.8125 50 47 C 49.75 47 49.75 47 49.492188 47 C 48.867188 47.007812 48.242188 47.007812 47.617188 47.007812 C 47.351562 47.015625 47.078125 47.015625 46.804688 47.015625 C 46.421875 47.015625 46.03125 47.015625 45.640625 47.023438 C 45.296875 47.023438 45.296875 47.023438 44.9375 47.023438 C 44.398438 47 44.398438 47 44.203125 46.796875 C 44.179688 46.4375 44.171875 46.070312 44.171875 45.703125 C 44.171875 45.5 44.171875 45.296875 44.171875 45.09375 C 44.203125 44.601562 44.203125 44.601562 44.398438 44.398438 C 44.890625 44.351562 45.375 44.3125 45.859375 44.289062 C 46.007812 44.28125 46.148438 44.273438 46.296875 44.265625 C 49.640625 44.078125 49.640625 44.078125 50.601562 44.398438 C 50.601562 43.539062 50.601562 42.6875 50.601562 41.796875 Z M 50.601562 41.796875 "/>
<path style=" stroke:none;fill-rule:nonzero;fill:rgb(38.823529%,38.039216%,38.431373%);fill-opacity:1;" d="M 72.796875 11.601562 C 72.867188 11.601562 72.929688 11.601562 73 11.601562 C 73 13.578125 73 15.5625 73 17.601562 C 66.726562 17.632812 60.453125 17.65625 54.179688 17.6875 C 53.4375 17.6875 52.703125 17.695312 51.960938 17.695312 C 51.742188 17.695312 51.742188 17.695312 51.515625 17.695312 C 49.125 17.710938 46.742188 17.71875 44.351562 17.734375 C 41.898438 17.742188 39.453125 17.757812 37 17.765625 C 35.492188 17.773438 33.976562 17.78125 32.46875 17.789062 C 31.3125 17.789062 30.148438 17.796875 28.992188 17.804688 C 28.515625 17.804688 28.039062 17.804688 27.5625 17.804688 C 26.914062 17.8125 26.265625 17.8125 25.617188 17.820312 C 25.429688 17.820312 25.242188 17.820312 25.046875 17.820312 C 24.140625 17.820312 23.289062 17.789062 22.398438 17.601562 C 22.953125 17.046875 23.351562 17.117188 24.125 17.078125 C 24.359375 17.0625 24.601562 17.046875 24.84375 17.03125 C 25.117188 17.015625 25.117188 17.015625 25.398438 17 C 25.398438 17.132812 25.398438 17.265625 25.398438 17.398438 C 41.039062 17.398438 56.6875 17.398438 72.796875 17.398438 C 72.796875 15.484375 72.796875 13.570312 72.796875 11.601562 Z M 72.796875 11.601562 "/>
<path style=" stroke:none;fill-rule:nonzero;fill:rgb(27.058824%,25.882353%,26.27451%);fill-opacity:1;" d="M 36.601562 47.796875 C 37 48.203125 37 48.203125 37.039062 48.71875 C 37.03125 48.921875 37.03125 49.117188 37.023438 49.328125 C 37.023438 49.523438 37.015625 49.726562 37.015625 49.929688 C 37.007812 50.164062 37.007812 50.164062 37 50.398438 C 36.46875 50.46875 35.945312 50.53125 35.398438 50.601562 C 35.695312 49.609375 36.117188 48.71875 36.601562 47.796875 Z M 36.601562 47.796875 "/>
<path style=" stroke:none;fill-rule:nonzero;fill:rgb(23.529412%,21.568627%,22.352941%);fill-opacity:1;" d="M 27.601562 16.601562 C 27.664062 16.867188 27.734375 17.125 27.796875 17.398438 C 27.007812 17.398438 26.21875 17.398438 25.398438 17.398438 C 25.398438 17.203125 25.398438 17.007812 25.398438 16.796875 C 26.148438 16.625 26.835938 16.585938 27.601562 16.601562 Z M 27.796875 16.796875 C 28.203125 17 28.203125 17 28.203125 17 Z M 27.796875 16.796875 "/>
<path style=" stroke:none;fill-rule:nonzero;fill:rgb(25.882353%,25.098039%,25.490196%);fill-opacity:1;" d="M 31.398438 49.203125 C 31.859375 49.328125 32.320312 49.460938 32.796875 49.601562 C 32.734375 49.992188 32.671875 50.390625 32.601562 50.796875 C 32.398438 50.796875 32.203125 50.796875 32 50.796875 C 31.804688 50.273438 31.601562 49.742188 31.398438 49.203125 Z M 31.398438 49.203125 "/>
<path style=" stroke:none;fill-rule:nonzero;fill:rgb(36.470588%,34.901961%,35.686275%);fill-opacity:1;" d="M 40.796875 32.398438 C 41.328125 32.46875 41.859375 32.53125 42.398438 32.601562 C 42.359375 32.789062 42.328125 32.976562 42.289062 33.171875 C 42.140625 33.78125 42.140625 33.78125 42.398438 34.203125 C 42.203125 34.296875 42.203125 34.296875 42 34.398438 C 41.804688 34.695312 41.804688 34.695312 41.601562 35 C 41.523438 33.71875 41.523438 33.71875 41.898438 33.109375 C 42 33.007812 42.101562 32.90625 42.203125 32.796875 C 41.804688 32.796875 41.40625 32.796875 41 32.796875 C 40.9375 32.671875 40.867188 32.539062 40.796875 32.398438 Z M 40.796875 32.398438 "/>
<path style=" stroke:none;fill-rule:nonzero;fill:rgb(24.313725%,23.137255%,23.529412%);fill-opacity:1;" d="M 72.796875 51.398438 C 72.929688 51.398438 73.0625 51.398438 73.203125 51.398438 C 73.328125 51.664062 73.460938 51.929688 73.601562 52.203125 C 72.851562 52.796875 72.851562 52.796875 72.398438 52.796875 C 72.578125 51.851562 72.578125 51.851562 72.796875 51.398438 Z M 72.796875 51.398438 "/>
<path style=" stroke:none;fill-rule:nonzero;fill:rgb(20.392157%,19.607843%,20%);fill-opacity:1;" d="M 54.601562 46.796875 C 54.898438 47 54.898438 47 55.203125 47.203125 C 55.132812 47.398438 55.070312 47.59375 55 47.796875 C 54.953125 48.179688 54.921875 48.554688 54.890625 48.9375 C 54.867188 49.132812 54.851562 49.335938 54.835938 49.539062 C 54.828125 49.695312 54.8125 49.84375 54.796875 50 C 54.734375 50 54.671875 50 54.601562 50 C 54.601562 48.945312 54.601562 47.890625 54.601562 46.796875 Z M 54.601562 46.796875 "/>
<path style=" stroke:none;fill-rule:nonzero;fill:rgb(23.529412%,23.137255%,23.137255%);fill-opacity:1;" d="M 60.398438 48.601562 C 60.398438 49.125 60.398438 49.65625 60.398438 50.203125 C 60.132812 49.9375 59.875 49.671875 59.601562 49.398438 C 59.664062 49.203125 59.734375 49.007812 59.796875 48.796875 C 60.203125 48.601562 60.203125 48.601562 60.398438 48.601562 Z M 60.398438 48.601562 "/>
<path style=" stroke:none;fill-rule:nonzero;fill:rgb(32.156863%,30.980392%,31.372549%);fill-opacity:1;" d="M 35.796875 41.796875 C 36 41.929688 36.195312 42.0625 36.398438 42.203125 C 36.203125 42.664062 36.007812 43.125 35.796875 43.601562 C 35.734375 43.601562 35.671875 43.601562 35.601562 43.601562 C 35.53125 43.203125 35.46875 42.804688 35.398438 42.398438 C 35.53125 42.398438 35.664062 42.398438 35.796875 42.398438 C 35.796875 42.203125 35.796875 42.007812 35.796875 41.796875 Z M 35.796875 41.796875 "/>
</g>
</svg>
