<?xml version="1.0" encoding="UTF-8"?>
<svg xmlns="http://www.w3.org/2000/svg" xmlns:xlink="http://www.w3.org/1999/xlink" width="100px" height="100px" viewBox="0 0 100 100" version="1.1">
<g id="surface1">
<path style=" stroke:none;fill-rule:nonzero;fill:rgb(0.784314%,1.176471%,0.784314%);fill-opacity:1;" d="M 46.832031 -0.101562 C 47.085938 -0.101562 47.339844 -0.0976562 47.601562 -0.0976562 C 47.738281 -0.0976562 47.878906 -0.101562 48.019531 -0.101562 C 48.308594 -0.101562 48.601562 -0.0976562 48.890625 -0.09375 C 49.332031 -0.0859375 49.773438 -0.0898438 50.214844 -0.0898438 C 53.417969 -0.0859375 53.417969 -0.0859375 54.710938 1.050781 C 54.953125 1.320312 54.953125 1.320312 55.199219 1.601562 C 55.429688 1.816406 55.65625 2.035156 55.886719 2.25 C 57.007812 3.375 57.761719 4.417969 58 6 C 58.257812 5.996094 58.519531 5.992188 58.785156 5.992188 C 59.75 5.980469 60.71875 5.972656 61.683594 5.96875 C 62.101562 5.964844 62.515625 5.960938 62.933594 5.953125 C 63.535156 5.949219 64.136719 5.945312 64.738281 5.941406 C 64.921875 5.9375 65.109375 5.933594 65.300781 5.933594 C 66.785156 5.929688 67.878906 6.238281 69.039062 7.226562 C 69.226562 7.378906 69.226562 7.378906 69.421875 7.539062 C 70.507812 8.859375 70.71875 10.257812 70.714844 11.921875 C 70.71875 12.121094 70.71875 12.316406 70.722656 12.515625 C 70.730469 13.136719 70.734375 13.753906 70.738281 14.375 C 70.742188 15 70.75 15.621094 70.757812 16.246094 C 70.761719 16.632812 70.765625 17.019531 70.765625 17.40625 C 70.769531 17.667969 70.769531 17.667969 70.773438 17.933594 C 70.773438 18.085938 70.773438 18.242188 70.773438 18.398438 C 70.785156 18.839844 70.785156 18.839844 71 19.398438 C 70.6875 19.949219 70.277344 20.390625 69.800781 20.800781 C 69.226562 20.886719 69.226562 20.886719 68.800781 20.800781 C 68.800781 20.667969 68.800781 20.535156 68.800781 20.398438 C 66.695312 20.460938 65.664062 20.726562 64.167969 22.230469 C 64.023438 22.375 63.878906 22.519531 63.730469 22.667969 C 63.621094 22.777344 63.511719 22.886719 63.398438 23 C 64.300781 23.011719 65.199219 23.019531 66.101562 23.023438 C 66.355469 23.027344 66.605469 23.03125 66.867188 23.035156 C 69.085938 23.121094 69.085938 23.121094 71.035156 22.238281 C 71.136719 22.101562 71.242188 21.964844 71.351562 21.824219 C 71.710938 21.363281 72 21 72.460938 20.636719 C 73.046875 19.878906 73.066406 18.929688 73.199219 18 C 73.265625 17.667969 73.332031 17.332031 73.398438 17 C 74.015625 16.988281 74.632812 16.980469 75.25 16.976562 C 75.425781 16.972656 75.597656 16.96875 75.777344 16.964844 C 75.949219 16.964844 76.117188 16.960938 76.289062 16.960938 C 76.445312 16.957031 76.601562 16.957031 76.761719 16.953125 C 77.304688 17.011719 77.566406 17.050781 78 17.398438 C 78.398438 18.644531 78.457031 19.789062 78.445312 21.089844 C 78.445312 21.296875 78.445312 21.5 78.449219 21.714844 C 78.449219 22.398438 78.445312 23.085938 78.441406 23.773438 C 78.441406 24.265625 78.441406 24.757812 78.441406 25.25 C 78.441406 26.3125 78.4375 27.375 78.4375 28.4375 C 78.433594 29.976562 78.429688 31.515625 78.429688 33.054688 C 78.425781 35.5625 78.425781 38.066406 78.417969 40.570312 C 78.417969 40.722656 78.417969 40.871094 78.417969 41.027344 C 78.417969 41.175781 78.417969 41.324219 78.417969 41.480469 C 78.417969 41.785156 78.417969 42.085938 78.414062 42.390625 C 78.414062 42.539062 78.414062 42.691406 78.414062 42.847656 C 78.410156 44.507812 78.410156 46.171875 78.40625 47.835938 C 78.40625 48.058594 78.40625 48.058594 78.40625 48.289062 C 78.402344 50.78125 78.398438 53.273438 78.398438 55.765625 C 78.394531 57.296875 78.394531 58.832031 78.390625 60.363281 C 78.386719 61.542969 78.386719 62.722656 78.382812 63.902344 C 78.382812 64.382812 78.382812 64.863281 78.382812 65.34375 C 78.378906 66.003906 78.378906 66.667969 78.378906 67.328125 C 78.378906 67.640625 78.378906 67.640625 78.375 67.957031 C 78.378906 69.003906 78.410156 70.039062 78.496094 71.085938 C 78.511719 71.292969 78.523438 71.5 78.542969 71.714844 C 78.570312 72.105469 78.609375 72.496094 78.652344 72.886719 C 78.714844 73.675781 78.734375 74.1875 78.304688 74.867188 C 77.953125 75.273438 77.59375 75.636719 77.199219 76 C 77.058594 76.152344 76.914062 76.300781 76.769531 76.457031 C 76.019531 77.203125 75.25 77.917969 74.449219 78.609375 C 73.058594 79.820312 71.714844 81.046875 70.476562 82.414062 C 68.414062 84.683594 66.289062 86.964844 63.851562 88.835938 C 63.328125 89.257812 62.871094 89.722656 62.398438 90.199219 C 62.0625 90.5 61.714844 90.785156 61.367188 91.074219 C 60.96875 91.410156 60.96875 91.410156 60.566406 91.914062 C 59.847656 92.53125 59.480469 92.527344 58.539062 92.527344 C 58.394531 92.53125 58.25 92.53125 58.101562 92.535156 C 57.617188 92.539062 57.132812 92.539062 56.648438 92.535156 C 56.300781 92.535156 55.949219 92.539062 55.601562 92.542969 C 54.660156 92.550781 53.714844 92.550781 52.769531 92.546875 C 51.78125 92.546875 50.789062 92.554688 49.800781 92.558594 C 48.136719 92.566406 46.476562 92.570312 44.8125 92.570312 C 42.472656 92.574219 40.132812 92.582031 37.789062 92.59375 C 36.167969 92.597656 34.542969 92.605469 32.917969 92.609375 C 32.523438 92.609375 32.132812 92.613281 31.738281 92.613281 C 30.617188 92.617188 29.496094 92.617188 28.375 92.621094 C 28.035156 92.621094 27.695312 92.621094 27.355469 92.621094 C 26.371094 92.625 25.386719 92.621094 24.398438 92.601562 C 24.210938 92.597656 24.019531 92.59375 23.824219 92.589844 C 23.066406 92.542969 22.65625 92.445312 22.0625 91.96875 C 21.511719 91.292969 21.476562 90.996094 21.476562 90.136719 C 21.472656 89.878906 21.46875 89.625 21.46875 89.359375 C 21.46875 89.074219 21.472656 88.792969 21.472656 88.507812 C 21.472656 88.207031 21.472656 87.902344 21.46875 87.601562 C 21.464844 86.769531 21.46875 85.941406 21.472656 85.109375 C 21.476562 84.214844 21.472656 83.320312 21.46875 82.421875 C 21.464844 80.667969 21.46875 78.914062 21.472656 77.160156 C 21.472656 75.734375 21.476562 74.308594 21.472656 72.882812 C 21.472656 72.582031 21.472656 72.582031 21.472656 72.269531 C 21.472656 71.859375 21.472656 71.445312 21.472656 71.035156 C 21.472656 67.390625 21.476562 63.75 21.480469 60.105469 C 21.488281 56.566406 21.488281 53.03125 21.484375 49.496094 C 21.480469 45.644531 21.480469 41.796875 21.484375 37.945312 C 21.484375 37.535156 21.484375 37.125 21.484375 36.714844 C 21.484375 36.515625 21.484375 36.3125 21.484375 36.105469 C 21.488281 34.679688 21.484375 33.253906 21.484375 31.832031 C 21.484375 30.097656 21.484375 28.363281 21.488281 26.625 C 21.492188 25.742188 21.492188 24.855469 21.492188 23.96875 C 21.488281 23.160156 21.492188 22.347656 21.496094 21.539062 C 21.496094 21.246094 21.496094 20.953125 21.496094 20.660156 C 21.492188 20.261719 21.496094 19.863281 21.5 19.464844 C 21.5 19.242188 21.5 19.019531 21.5 18.792969 C 21.625 18.0625 21.890625 17.726562 22.398438 17.199219 C 22.972656 16.914062 23.488281 16.992188 24.125 16.988281 C 25.226562 16.925781 25.78125 16.792969 26.550781 15.988281 C 26.667969 15.839844 26.789062 15.695312 26.910156 15.542969 C 27.003906 15.429688 27.101562 15.316406 27.199219 15.199219 C 27.332031 15.199219 27.464844 15.199219 27.601562 15.199219 C 27.472656 16.140625 27.472656 16.140625 27.089844 16.453125 C 26.738281 16.800781 26.738281 16.800781 26.769531 17.398438 C 26.792969 17.625 26.816406 17.851562 26.835938 18.085938 C 26.855469 18.3125 26.875 18.539062 26.894531 18.773438 C 26.992188 19.34375 27.117188 19.703125 27.398438 20.199219 C 27.449219 20.359375 27.5 20.523438 27.550781 20.6875 C 27.804688 21.207031 27.984375 21.386719 28.425781 21.738281 C 28.613281 21.890625 28.804688 22.042969 29 22.199219 C 29 22.332031 29 22.464844 29 22.601562 C 30.535156 22.929688 31.996094 23.058594 33.558594 23.0625 C 33.785156 23.066406 34.011719 23.066406 34.242188 23.070312 C 34.980469 23.074219 35.722656 23.078125 36.460938 23.082031 C 36.984375 23.085938 37.507812 23.089844 38.03125 23.09375 C 39.128906 23.101562 40.222656 23.109375 41.320312 23.117188 C 42.839844 23.125 44.363281 23.132812 45.882812 23.144531 C 51.386719 23.183594 56.894531 23.214844 62.398438 23.199219 C 62.488281 23.015625 62.488281 23.015625 62.578125 22.828125 C 62.847656 22.308594 63.183594 21.960938 63.601562 21.550781 C 63.742188 21.410156 63.878906 21.265625 64.023438 21.121094 C 64.398438 20.800781 64.398438 20.800781 64.800781 20.800781 C 64.800781 20.667969 64.800781 20.535156 64.800781 20.398438 C 64.542969 20.429688 64.289062 20.460938 64.027344 20.496094 C 63.691406 20.535156 63.359375 20.574219 63.023438 20.613281 C 62.855469 20.632812 62.6875 20.652344 62.515625 20.675781 C 62.273438 20.703125 62.273438 20.703125 62.027344 20.730469 C 61.878906 20.75 61.730469 20.769531 61.574219 20.785156 C 61.199219 20.800781 61.199219 20.800781 60.800781 20.601562 C 60.472656 20.578125 60.144531 20.574219 59.816406 20.570312 C 59.609375 20.570312 59.40625 20.570312 59.195312 20.566406 C 58.972656 20.566406 58.75 20.566406 58.519531 20.566406 C 58.292969 20.566406 58.066406 20.566406 57.832031 20.5625 C 57.347656 20.5625 56.863281 20.5625 56.382812 20.5625 C 55.644531 20.5625 54.902344 20.558594 54.164062 20.554688 C 53.695312 20.554688 53.226562 20.554688 52.757812 20.554688 C 52.539062 20.550781 52.316406 20.550781 52.089844 20.550781 C 51.882812 20.550781 51.675781 20.550781 51.460938 20.550781 C 51.28125 20.550781 51.097656 20.550781 50.914062 20.550781 C 50.347656 20.605469 49.914062 20.765625 49.398438 21 C 49.335938 20.800781 49.269531 20.605469 49.199219 20.398438 C 49.085938 20.40625 48.96875 20.414062 48.851562 20.417969 C 44.816406 20.628906 44.816406 20.628906 43.035156 20.585938 C 42.5625 20.578125 42.5625 20.578125 42 20.800781 C 41.703125 20.699219 41.703125 20.699219 41.398438 20.601562 C 40.972656 20.582031 40.542969 20.574219 40.113281 20.574219 C 39.886719 20.574219 39.660156 20.574219 39.425781 20.574219 C 38.828125 20.578125 38.828125 20.578125 38.367188 20.714844 C 37.910156 20.820312 37.648438 20.722656 37.199219 20.601562 C 35.984375 20.535156 34.796875 20.585938 33.601562 20.800781 C 33.601562 20.667969 33.601562 20.535156 33.601562 20.398438 C 33.148438 20.429688 32.699219 20.457031 32.25 20.488281 C 32 20.503906 31.75 20.519531 31.492188 20.535156 C 30.964844 20.585938 30.503906 20.648438 30 20.800781 C 29.535156 19.824219 29.320312 19.09375 29.289062 17.996094 C 29.285156 17.867188 29.28125 17.738281 29.277344 17.601562 C 29.265625 17.183594 29.257812 16.769531 29.25 16.351562 C 29.246094 16.207031 29.242188 16.066406 29.242188 15.917969 C 29.21875 14.945312 29.207031 13.972656 29.199219 13 C 29.195312 12.789062 29.195312 12.578125 29.191406 12.359375 C 29.15625 9.015625 29.15625 9.015625 30.394531 7.746094 C 30.527344 7.632812 30.660156 7.519531 30.800781 7.398438 C 30.933594 7.28125 31.066406 7.160156 31.207031 7.035156 C 32.496094 5.972656 33.789062 5.96875 35.402344 5.929688 C 35.574219 5.925781 35.742188 5.921875 35.917969 5.914062 C 36.273438 5.90625 36.632812 5.898438 36.988281 5.886719 C 37.539062 5.875 38.085938 5.859375 38.632812 5.84375 C 38.980469 5.835938 39.328125 5.824219 39.675781 5.816406 C 39.921875 5.808594 39.921875 5.808594 40.171875 5.800781 C 40.839844 5.789062 41.363281 5.789062 42 6 C 41.957031 5.648438 41.957031 5.648438 41.914062 5.289062 C 41.910156 4.71875 41.949219 4.46875 42.289062 4.011719 C 42.539062 3.769531 42.792969 3.535156 43.050781 3.308594 C 43.429688 2.996094 43.429688 2.996094 43.761719 2.511719 C 43.839844 2.410156 43.917969 2.304688 44 2.199219 C 44.132812 2.199219 44.265625 2.199219 44.398438 2.199219 C 44.398438 2.066406 44.398438 1.9375 44.398438 1.800781 C 44.6875 1.554688 44.980469 1.3125 45.277344 1.082031 C 45.625 0.808594 45.625 0.808594 45.832031 0.386719 C 46.199219 0 46.199219 0 46.832031 -0.101562 Z M 49 6.800781 C 48.703125 7.390625 48.789062 7.949219 48.800781 8.601562 C 49.480469 8.960938 49.480469 8.960938 50.199219 9.199219 C 50.804688 8.976562 51.085938 8.804688 51.398438 8.238281 C 51.398438 7.566406 51.160156 7.15625 50.800781 6.601562 C 50.128906 6.242188 49.648438 6.464844 49 6.800781 Z M 33.925781 29.023438 C 33.769531 29.152344 33.613281 29.277344 33.449219 29.410156 C 33.054688 29.753906 32.6875 30.109375 32.324219 30.488281 C 31.800781 31 31.800781 31 31.199219 31 C 31.046875 30.835938 30.894531 30.671875 30.738281 30.5 C 30.242188 29.945312 30.242188 29.945312 29.5625 29.914062 C 28.972656 29.949219 28.972656 29.949219 28.601562 30.398438 C 28.480469 31.414062 28.460938 31.796875 29.050781 32.648438 C 29.230469 32.832031 29.414062 33.011719 29.601562 33.199219 C 29.726562 33.355469 29.855469 33.511719 29.988281 33.675781 C 30.558594 34.125 30.886719 34.074219 31.601562 34 C 32.417969 33.511719 33.101562 32.84375 33.800781 32.199219 C 33.917969 32.09375 34.035156 31.984375 34.15625 31.871094 C 34.527344 31.53125 34.886719 31.1875 35.25 30.835938 C 35.367188 30.726562 35.484375 30.617188 35.605469 30.503906 C 35.96875 30.15625 35.96875 30.15625 36.398438 29.601562 C 36.386719 29.179688 36.386719 29.179688 36.199219 28.800781 C 35.242188 28.160156 34.757812 28.351562 33.925781 29.023438 Z M 41.53125 29.078125 C 41.308594 29.085938 41.308594 29.085938 41.082031 29.09375 C 40.359375 29.136719 40.015625 29.1875 39.398438 29.601562 C 39.464844 30.195312 39.53125 30.789062 39.601562 31.398438 C 40.378906 31.765625 40.996094 31.851562 41.855469 31.851562 C 42.105469 31.855469 42.359375 31.855469 42.621094 31.859375 C 42.898438 31.859375 43.175781 31.859375 43.453125 31.859375 C 43.75 31.859375 44.042969 31.859375 44.339844 31.863281 C 45.136719 31.867188 45.933594 31.867188 46.734375 31.867188 C 47.230469 31.867188 47.730469 31.867188 48.230469 31.867188 C 49.96875 31.871094 51.707031 31.875 53.449219 31.875 C 55.070312 31.875 56.691406 31.878906 58.316406 31.882812 C 59.707031 31.890625 61.101562 31.890625 62.496094 31.890625 C 63.328125 31.890625 64.15625 31.894531 64.988281 31.898438 C 65.773438 31.902344 66.554688 31.902344 67.335938 31.898438 C 67.621094 31.898438 67.910156 31.898438 68.195312 31.902344 C 68.589844 31.902344 68.980469 31.902344 69.371094 31.898438 C 69.589844 31.898438 69.808594 31.898438 70.035156 31.898438 C 70.738281 31.777344 70.96875 31.554688 71.398438 31 C 71.640625 30.273438 71.535156 30.066406 71.199219 29.398438 C 70.695312 29.148438 70.324219 29.160156 69.761719 29.136719 C 69.546875 29.128906 69.332031 29.121094 69.109375 29.113281 C 68.875 29.105469 68.640625 29.097656 68.398438 29.089844 C 68.15625 29.082031 67.914062 29.074219 67.664062 29.0625 C 65.183594 28.984375 62.710938 28.972656 60.230469 28.972656 C 59.757812 28.972656 59.285156 28.972656 58.8125 28.972656 C 57.835938 28.972656 56.855469 28.972656 55.875 28.972656 C 54.632812 28.976562 53.386719 28.972656 52.144531 28.972656 C 51.171875 28.972656 50.199219 28.972656 49.230469 28.972656 C 48.769531 28.972656 48.3125 28.972656 47.851562 28.972656 C 45.742188 28.972656 43.636719 28.976562 41.53125 29.078125 Z M 32.949219 37.699219 C 32.707031 37.945312 32.464844 38.1875 32.222656 38.429688 C 32.117188 38.539062 32.011719 38.648438 31.902344 38.761719 C 31.601562 39 31.601562 39 31 39 C 30.976562 38.875 30.949219 38.753906 30.925781 38.625 C 30.824219 38.160156 30.824219 38.160156 30.398438 37.800781 C 29.570312 37.707031 29.570312 37.707031 28.835938 38.050781 C 28.558594 38.464844 28.453125 38.699219 28.398438 39.199219 C 28.851562 40.226562 29.488281 41.351562 30.511719 41.886719 C 31.210938 42.070312 31.210938 42.070312 31.824219 41.6875 C 32.015625 41.527344 32.203125 41.367188 32.398438 41.199219 C 32.589844 41.058594 32.78125 40.917969 32.976562 40.773438 C 33.117188 40.652344 33.253906 40.527344 33.398438 40.398438 C 33.398438 40.269531 33.398438 40.136719 33.398438 40 C 33.53125 40 33.664062 40 33.800781 40 C 33.800781 39.867188 33.800781 39.734375 33.800781 39.601562 C 33.914062 39.550781 34.023438 39.503906 34.140625 39.453125 C 34.699219 39.144531 35.105469 38.769531 35.5625 38.324219 C 35.726562 38.171875 35.886719 38.015625 36.054688 37.859375 C 36.449219 37.4375 36.449219 37.4375 36.378906 36.953125 C 36.226562 36.5625 36.226562 36.5625 35.800781 36.398438 C 34.386719 36.191406 33.867188 36.746094 32.949219 37.699219 Z M 40.175781 37.976562 C 39.554688 38.648438 39.554688 38.648438 39.414062 39.511719 C 39.550781 40.039062 39.550781 40.039062 40.042969 40.226562 C 40.621094 40.40625 41.074219 40.449219 41.675781 40.445312 C 41.976562 40.445312 41.976562 40.445312 42.285156 40.445312 C 42.492188 40.441406 42.699219 40.441406 42.914062 40.4375 C 43.226562 40.4375 43.226562 40.4375 43.542969 40.4375 C 44.785156 40.4375 44.785156 40.4375 46 40.199219 C 46 40.332031 46 40.464844 46 40.601562 C 46.421875 40.609375 46.839844 40.617188 47.261719 40.625 C 47.496094 40.628906 47.730469 40.632812 47.972656 40.640625 C 48.632812 40.652344 48.632812 40.652344 49.199219 40.199219 C 49.464844 40.199219 49.726562 40.199219 50 40.199219 C 50 40.332031 50 40.464844 50 40.601562 C 50.484375 40.582031 50.964844 40.5625 51.449219 40.539062 C 51.585938 40.53125 51.722656 40.527344 51.863281 40.523438 C 52.703125 40.480469 53.171875 40.359375 53.800781 39.800781 C 53.933594 39.800781 54.0625 39.800781 54.199219 39.800781 C 54.132812 40.0625 54.066406 40.328125 54 40.601562 C 55.71875 40.757812 55.71875 40.757812 57.25 40.101562 C 57.523438 39.851562 57.523438 39.851562 57.800781 39.601562 C 57.996094 39.699219 57.996094 39.699219 58.199219 39.800781 C 58.066406 40.0625 57.9375 40.328125 57.800781 40.601562 C 59.421875 40.785156 59.421875 40.785156 60.929688 40.289062 C 61.316406 39.941406 61.667969 39.59375 62 39.199219 C 62.199219 39.300781 62.199219 39.300781 62.398438 39.398438 C 62.300781 39.523438 62.203125 39.648438 62.101562 39.773438 C 61.761719 40.167969 61.761719 40.167969 61.800781 40.601562 C 62.257812 40.578125 62.714844 40.550781 63.175781 40.523438 C 63.558594 40.503906 63.558594 40.503906 63.949219 40.484375 C 64.617188 40.464844 64.617188 40.464844 65 40 C 65.425781 39.875 65.425781 39.875 65.800781 39.800781 C 65.734375 39.996094 65.667969 40.195312 65.601562 40.398438 C 66.453125 40.621094 67.210938 40.589844 68.085938 40.523438 C 68.34375 40.507812 68.597656 40.488281 68.863281 40.46875 C 70.152344 40.390625 70.152344 40.390625 71.273438 39.835938 C 71.679688 39.382812 71.679688 39.382812 71.601562 38.601562 C 71.269531 38.664062 70.941406 38.730469 70.601562 38.800781 C 70.664062 38.46875 70.730469 38.140625 70.800781 37.800781 C 69.855469 37.296875 69.222656 37.4375 68.199219 37.601562 C 67.9375 37.601562 67.671875 37.601562 67.398438 37.601562 C 67.398438 37.535156 67.398438 37.46875 67.398438 37.398438 C 65.703125 37.214844 65.703125 37.214844 64.125 37.675781 C 63.761719 38 63.761719 38 63.464844 38.355469 C 63.378906 38.4375 63.289062 38.515625 63.199219 38.601562 C 63.003906 38.535156 62.804688 38.46875 62.601562 38.398438 C 62.699219 38.308594 62.796875 38.21875 62.898438 38.125 C 63.246094 37.824219 63.246094 37.824219 63.199219 37.398438 C 62.816406 37.382812 62.433594 37.371094 62.050781 37.363281 C 61.835938 37.355469 61.625 37.347656 61.402344 37.339844 C 60.726562 37.40625 60.515625 37.589844 60 38 C 59.800781 37.933594 59.605469 37.867188 59.398438 37.800781 C 59.398438 37.667969 59.398438 37.535156 59.398438 37.398438 C 58.988281 37.378906 58.574219 37.363281 58.164062 37.351562 C 57.933594 37.339844 57.703125 37.332031 57.464844 37.320312 C 56.671875 37.414062 56.390625 37.683594 55.800781 38.199219 C 55.601562 38.199219 55.402344 38.199219 55.199219 38.199219 C 55.265625 37.9375 55.332031 37.671875 55.398438 37.398438 C 53.503906 37.289062 53.503906 37.289062 51.800781 38 C 51.800781 37.800781 51.800781 37.605469 51.800781 37.398438 C 49.554688 37.257812 49.554688 37.257812 47.601562 38.199219 C 47.664062 37.9375 47.730469 37.671875 47.800781 37.398438 C 45.761719 37.335938 45.761719 37.335938 43.800781 37.800781 C 43.800781 37.667969 43.800781 37.535156 43.800781 37.398438 C 41.910156 37.359375 41.910156 37.359375 40.175781 37.976562 Z M 33.5 45.039062 C 33.3125 45.199219 33.121094 45.363281 32.925781 45.53125 C 32.667969 45.765625 32.667969 45.765625 32.398438 46 C 32.15625 46.207031 31.910156 46.410156 31.664062 46.613281 C 31.511719 46.742188 31.355469 46.867188 31.199219 47 C 31.140625 46.839844 31.085938 46.679688 31.023438 46.511719 C 30.851562 45.972656 30.851562 45.972656 30.398438 45.800781 C 29.421875 45.691406 29.421875 45.691406 28.585938 46.125 C 28.34375 46.613281 28.34375 46.613281 28.523438 47.210938 C 28.78125 47.761719 28.964844 48 29.398438 48.398438 C 29.554688 48.660156 29.554688 48.660156 29.710938 48.925781 C 29.957031 49.421875 29.957031 49.421875 30.398438 49.601562 C 31.027344 49.71875 31.429688 49.714844 31.972656 49.351562 C 32.886719 48.558594 33.714844 47.679688 34.5625 46.816406 C 35.136719 46.269531 35.738281 45.835938 36.398438 45.398438 C 36.332031 44.90625 36.332031 44.90625 36.199219 44.398438 C 35.089844 43.84375 34.359375 44.28125 33.5 45.039062 Z M 43.867188 46.335938 C 43.777344 46.453125 43.683594 46.566406 43.585938 46.6875 C 43.152344 47.226562 42.695312 47.714844 42.199219 48.199219 C 42.683594 48.226562 43.164062 48.246094 43.648438 48.261719 C 43.785156 48.269531 43.921875 48.277344 44.0625 48.289062 C 44.523438 48.308594 44.523438 48.308594 45.199219 48.199219 C 45.710938 47.75 45.710938 47.75 46 47.199219 C 46 47.066406 46 46.9375 46 46.800781 C 46.117188 46.746094 46.230469 46.691406 46.351562 46.636719 C 46.8125 46.394531 47.203125 46.140625 47.601562 45.800781 C 47.601562 45.667969 47.601562 45.535156 47.601562 45.398438 C 47.222656 45.382812 46.839844 45.371094 46.460938 45.363281 C 46.25 45.355469 46.039062 45.347656 45.824219 45.339844 C 44.964844 45.421875 44.46875 45.730469 43.867188 46.335938 Z M 47.261719 46.800781 C 47.144531 46.9375 47.03125 47.070312 46.910156 47.210938 C 46.570312 47.625 46.570312 47.625 46.199219 48.199219 C 46.832031 48.394531 47.355469 48.410156 48.011719 48.351562 C 48.269531 48.328125 48.269531 48.328125 48.53125 48.308594 C 49.070312 48.183594 49.269531 48.035156 49.601562 47.601562 C 49.601562 47.46875 49.601562 47.335938 49.601562 47.199219 C 49.707031 47.15625 49.816406 47.109375 49.925781 47.0625 C 50.566406 46.707031 51.058594 46.292969 51.601562 45.800781 C 51.601562 45.667969 51.601562 45.535156 51.601562 45.398438 C 51.1875 45.382812 50.773438 45.371094 50.363281 45.363281 C 50.132812 45.355469 49.902344 45.347656 49.667969 45.339844 C 48.554688 45.4375 47.960938 45.96875 47.261719 46.800781 Z M 51.667969 46.335938 C 51.574219 46.453125 51.484375 46.566406 51.386719 46.6875 C 50.949219 47.222656 50.5 47.71875 50 48.199219 C 50.996094 48.5 52.019531 48.558594 53 48.199219 C 53.605469 47.664062 54.082031 47.121094 54.59375 46.492188 C 55 46 55 46 55.398438 45.800781 C 55.398438 45.667969 55.398438 45.535156 55.398438 45.398438 C 55.019531 45.382812 54.640625 45.371094 54.261719 45.363281 C 54.050781 45.355469 53.839844 45.347656 53.621094 45.339844 C 52.765625 45.421875 52.265625 45.730469 51.667969 46.335938 Z M 55.0625 46.800781 C 54.945312 46.9375 54.828125 47.070312 54.710938 47.210938 C 54.371094 47.625 54.371094 47.625 54 48.199219 C 54.980469 48.476562 55.824219 48.542969 56.800781 48.199219 C 57.441406 47.671875 57.996094 47.113281 58.550781 46.492188 C 59 46 59 46 59.398438 45.800781 C 59.398438 45.667969 59.398438 45.535156 59.398438 45.398438 C 58.988281 45.382812 58.574219 45.371094 58.164062 45.363281 C 57.933594 45.355469 57.703125 45.347656 57.464844 45.339844 C 56.355469 45.4375 55.761719 45.96875 55.0625 46.800781 Z M 58.851562 47.023438 C 58.734375 47.160156 58.621094 47.296875 58.503906 47.4375 C 58.199219 47.800781 58.199219 47.800781 57.800781 48.199219 C 58.8125 48.5 59.78125 48.480469 60.800781 48.199219 C 61.433594 47.742188 61.902344 47.199219 62.398438 46.601562 C 62.546875 46.457031 62.695312 46.316406 62.84375 46.171875 C 63.246094 45.835938 63.246094 45.835938 63.199219 45.398438 C 61.175781 45.28125 60.222656 45.484375 58.851562 47.023438 Z M 63.152344 46.496094 C 63.015625 46.675781 62.878906 46.851562 62.738281 47.039062 C 62.597656 47.21875 62.457031 47.398438 62.316406 47.582031 C 62.210938 47.722656 62.105469 47.859375 62 48 C 62.359375 48.4375 62.359375 48.4375 62.84375 48.472656 C 64.011719 48.449219 64.667969 48.242188 65.519531 47.40625 C 65.804688 47.109375 66.082031 46.804688 66.355469 46.492188 C 66.800781 46 66.800781 46 67.199219 45.800781 C 67.199219 45.667969 67.199219 45.535156 67.199219 45.398438 C 66.789062 45.382812 66.375 45.371094 65.960938 45.363281 C 65.734375 45.355469 65.503906 45.347656 65.265625 45.339844 C 64.277344 45.429688 63.808594 45.765625 63.152344 46.496094 Z M 66.199219 47.601562 C 66.066406 47.796875 65.9375 47.996094 65.800781 48.199219 C 67.652344 48.410156 67.652344 48.410156 69.3125 47.789062 C 69.847656 47.144531 70.335938 46.496094 70.800781 45.800781 C 68.828125 44.484375 67.386719 46.117188 66.199219 47.601562 Z M 42.183594 45.402344 C 40.914062 45.464844 40.265625 45.890625 39.398438 46.800781 C 39.4375 47.289062 39.4375 47.289062 39.601562 47.800781 C 40.042969 48.148438 40.292969 48.207031 40.855469 48.175781 C 41.597656 47.9375 42.035156 47.464844 42.5625 46.914062 C 42.664062 46.8125 42.761719 46.710938 42.867188 46.609375 C 43.429688 46.097656 43.429688 46.097656 43.601562 45.398438 C 43.128906 45.382812 42.65625 45.398438 42.183594 45.402344 Z M 70.8125 46.75 C 70.59375 46.972656 70.59375 46.972656 70.375 47.199219 C 70.230469 47.347656 70.085938 47.496094 69.9375 47.648438 C 69.824219 47.765625 69.714844 47.882812 69.601562 48 C 70.183594 48.179688 70.34375 48.222656 70.9375 47.988281 C 71.460938 47.628906 71.460938 47.628906 71.5625 46.960938 C 71.582031 46.683594 71.582031 46.683594 71.601562 46.398438 C 71.164062 46.355469 71.164062 46.355469 70.8125 46.75 Z M 33 53.398438 C 32.746094 53.628906 32.492188 53.851562 32.238281 54.074219 C 32.128906 54.171875 32.019531 54.269531 31.910156 54.367188 C 31.601562 54.601562 31.601562 54.601562 31 54.800781 C 30.976562 54.675781 30.949219 54.550781 30.925781 54.425781 C 30.824219 53.960938 30.824219 53.960938 30.398438 53.601562 C 29.667969 53.503906 29.324219 53.511719 28.710938 53.9375 C 28.359375 54.371094 28.359375 54.371094 28.386719 54.875 C 28.671875 55.574219 29.101562 56.039062 29.601562 56.601562 C 29.695312 56.753906 29.789062 56.90625 29.886719 57.0625 C 30.195312 57.4375 30.195312 57.4375 30.726562 57.636719 C 31.925781 57.570312 32.695312 56.660156 33.554688 55.878906 C 33.84375 55.613281 33.84375 55.613281 33.800781 55.199219 C 33.96875 55.125 33.96875 55.125 34.140625 55.046875 C 34.671875 54.761719 35.101562 54.425781 35.5625 54.039062 C 35.726562 53.902344 35.886719 53.769531 36.054688 53.632812 C 36.460938 53.222656 36.460938 53.222656 36.378906 52.660156 C 36.246094 52.167969 36.246094 52.167969 35.800781 52 C 34.480469 51.75 33.882812 52.550781 33 53.398438 Z M 44.601562 53.398438 C 44.316406 53.40625 44.035156 53.402344 43.753906 53.390625 C 43.589844 53.386719 43.425781 53.382812 43.253906 53.378906 C 42.914062 53.367188 42.570312 53.355469 42.226562 53.339844 C 41.113281 53.316406 40.472656 53.4375 39.601562 54.199219 C 39.355469 54.695312 39.355469 54.695312 39.398438 55.199219 C 39.59375 55.578125 39.59375 55.578125 40 55.800781 C 41.003906 56.023438 41.980469 56.027344 43.003906 56.027344 C 43.171875 56.027344 43.34375 56.027344 43.515625 56.027344 C 43.875 56.027344 44.234375 56.027344 44.589844 56.027344 C 45.136719 56.023438 45.683594 56.027344 46.234375 56.027344 C 46.582031 56.027344 46.929688 56.027344 47.277344 56.027344 C 47.441406 56.027344 47.605469 56.027344 47.773438 56.027344 C 48.433594 56.023438 48.96875 56.011719 49.601562 55.800781 C 49.730469 55.867188 49.863281 55.933594 50 56 C 50.503906 56.023438 50.996094 56.035156 51.5 56.039062 C 51.636719 56.039062 51.777344 56.042969 51.917969 56.046875 C 52.277344 56.046875 52.640625 56.023438 53 56 C 53.132812 55.867188 53.265625 55.734375 53.398438 55.601562 C 53.824219 55.476562 53.824219 55.476562 54.199219 55.398438 C 54.132812 55.597656 54.066406 55.796875 54 56 C 54.449219 56.003906 54.898438 56.007812 55.351562 56.011719 C 55.726562 56.015625 55.726562 56.015625 56.109375 56.019531 C 56.660156 56.003906 57.074219 55.941406 57.601562 55.800781 C 57.699219 55.898438 57.699219 55.898438 57.800781 56 C 59.570312 56.183594 59.570312 56.183594 61.25 55.785156 C 61.601562 55.492188 61.601562 55.492188 62 55 C 62.132812 54.933594 62.265625 54.867188 62.398438 54.800781 C 62.203125 55.195312 62.003906 55.59375 61.800781 56 C 63.523438 56.191406 63.523438 56.191406 65.128906 55.695312 C 65.511719 55.347656 65.855469 54.984375 66.199219 54.601562 C 66.332031 54.535156 66.464844 54.46875 66.601562 54.398438 C 66.503906 54.550781 66.410156 54.707031 66.3125 54.863281 C 65.980469 55.394531 65.980469 55.394531 65.800781 56 C 66.257812 56.003906 66.714844 56.007812 67.175781 56.011719 C 67.558594 56.015625 67.558594 56.015625 67.949219 56.019531 C 68.578125 56.046875 68.578125 56.046875 69 55.800781 C 69.253906 55.839844 69.511719 55.882812 69.773438 55.925781 C 70.347656 56.003906 70.554688 56.019531 71.101562 55.789062 C 71.515625 55.25 71.457031 54.859375 71.398438 54.199219 C 71.203125 54.132812 71.003906 54.066406 70.800781 54 C 70.734375 53.800781 70.667969 53.605469 70.601562 53.398438 C 69.460938 53.21875 68.539062 53.21875 67.398438 53.398438 C 67.398438 53.335938 67.398438 53.269531 67.398438 53.199219 C 65.683594 53.066406 64.480469 53.046875 63.09375 54.136719 C 62.996094 54.222656 62.902344 54.3125 62.800781 54.398438 C 62.933594 54.003906 63.0625 53.609375 63.199219 53.199219 C 61.785156 53.140625 61.785156 53.140625 60.414062 53.425781 C 60.210938 53.484375 60.007812 53.539062 59.800781 53.601562 C 59.601562 53.46875 59.402344 53.335938 59.199219 53.199219 C 58.121094 53.066406 56.980469 52.96875 56.050781 53.601562 C 55.902344 53.730469 55.753906 53.863281 55.601562 54 C 55.402344 53.605469 55.402344 53.605469 55.199219 53.199219 C 54.847656 53.226562 54.847656 53.226562 54.492188 53.25 C 54.183594 53.269531 53.871094 53.292969 53.5625 53.3125 C 53.332031 53.328125 53.332031 53.328125 53.097656 53.347656 C 52.285156 53.398438 51.597656 53.394531 50.800781 53.199219 C 49.71875 53.117188 48.816406 53.183594 47.800781 53.601562 C 47.699219 53.402344 47.699219 53.402344 47.601562 53.199219 C 47.210938 53.195312 46.824219 53.191406 46.4375 53.1875 C 46.113281 53.183594 46.113281 53.183594 45.785156 53.179688 C 45.1875 53.171875 45.1875 53.171875 44.601562 53.398438 Z M 33 61.199219 C 32.667969 61.496094 32.335938 61.792969 32 62.085938 C 31.734375 62.324219 31.464844 62.5625 31.199219 62.800781 C 31.171875 62.675781 31.144531 62.550781 31.113281 62.421875 C 30.972656 61.898438 30.847656 61.707031 30.398438 61.398438 C 29.769531 61.320312 29.375 61.292969 28.824219 61.625 C 28.496094 62.175781 28.519531 62.570312 28.601562 63.199219 C 28.949219 63.664062 29.308594 63.871094 29.800781 64.199219 C 29.820312 64.332031 29.839844 64.464844 29.863281 64.601562 C 29.972656 65.066406 29.972656 65.066406 30.550781 65.289062 C 31.375 65.429688 31.527344 65.269531 32.199219 64.800781 C 32.597656 64.457031 32.980469 64.109375 33.363281 63.75 C 34.1875 62.976562 35.027344 62.230469 35.914062 61.527344 C 36.292969 61.09375 36.359375 60.765625 36.398438 60.199219 C 36.019531 59.742188 36.019531 59.742188 35.375 59.6875 C 34.265625 59.847656 33.78125 60.433594 33 61.199219 Z M 44.601562 61.199219 C 44.316406 61.210938 44.03125 61.207031 43.746094 61.199219 C 43.582031 61.195312 43.414062 61.191406 43.246094 61.1875 C 42.898438 61.179688 42.554688 61.167969 42.210938 61.15625 C 41.253906 61.140625 40.554688 61.132812 39.800781 61.800781 C 39.800781 61.996094 39.800781 62.195312 39.800781 62.398438 C 39.667969 62.398438 39.535156 62.398438 39.398438 62.398438 C 39.421875 62.890625 39.421875 62.890625 39.601562 63.398438 C 40.355469 63.800781 41.007812 63.851562 41.851562 63.855469 C 42.230469 63.859375 42.230469 63.859375 42.617188 63.859375 C 42.894531 63.859375 43.171875 63.859375 43.453125 63.859375 C 43.746094 63.863281 44.039062 63.863281 44.332031 63.867188 C 45.132812 63.871094 45.929688 63.871094 46.726562 63.875 C 47.226562 63.875 47.722656 63.875 48.222656 63.875 C 49.960938 63.882812 51.699219 63.882812 53.4375 63.886719 C 55.058594 63.886719 56.679688 63.890625 58.300781 63.898438 C 59.691406 63.90625 61.082031 63.910156 62.476562 63.910156 C 63.308594 63.910156 64.136719 63.914062 64.96875 63.917969 C 65.75 63.921875 66.53125 63.921875 67.3125 63.921875 C 67.601562 63.921875 67.886719 63.921875 68.171875 63.925781 C 68.566406 63.929688 68.957031 63.925781 69.347656 63.921875 C 69.675781 63.921875 69.675781 63.921875 70.011719 63.925781 C 70.796875 63.757812 71.105469 63.414062 71.601562 62.800781 C 71.589844 62.34375 71.589844 62.34375 71.398438 62 C 71.203125 62.066406 71.003906 62.132812 70.800781 62.199219 C 70.773438 62.039062 70.75 61.878906 70.726562 61.710938 C 70.683594 61.542969 70.640625 61.375 70.601562 61.199219 C 69.695312 60.75 68.550781 61 67.601562 61.199219 C 67.535156 61.132812 67.46875 61.066406 67.398438 61 C 66.949219 60.980469 66.5 60.972656 66.050781 60.976562 C 65.804688 60.972656 65.558594 60.972656 65.304688 60.972656 C 64.707031 60.996094 64.183594 61.082031 63.601562 61.199219 C 63.5 61.101562 63.5 61.101562 63.398438 61 C 62.875 61.019531 62.351562 61.046875 61.828125 61.085938 C 60.035156 61.199219 58.25 61.230469 56.453125 61.226562 C 55.96875 61.226562 55.480469 61.226562 54.996094 61.226562 C 54.679688 61.226562 54.363281 61.226562 54.046875 61.226562 C 53.90625 61.226562 53.765625 61.226562 53.617188 61.226562 C 52.929688 61.226562 52.265625 61.191406 51.582031 61.101562 C 50.859375 61.007812 50.167969 60.972656 49.441406 60.972656 C 49.195312 60.972656 48.949219 60.972656 48.699219 60.972656 C 48.445312 60.972656 48.195312 60.972656 47.9375 60.976562 C 47.554688 60.972656 47.554688 60.972656 47.164062 60.972656 C 46.921875 60.972656 46.679688 60.972656 46.425781 60.972656 C 46.207031 60.972656 45.984375 60.972656 45.757812 60.972656 C 45.183594 60.976562 45.183594 60.976562 44.601562 61.199219 Z M 61.199219 76 C 60.859375 79.191406 61.070312 82.402344 61.199219 85.601562 C 61.722656 85.363281 61.984375 85.21875 62.351562 84.761719 C 62.84375 84.144531 63.386719 83.675781 63.984375 83.164062 C 64.375 82.824219 64.738281 82.46875 65.101562 82.101562 C 65.988281 81.199219 66.933594 80.367188 67.925781 79.582031 C 69.214844 78.558594 70.367188 77.484375 71.398438 76.199219 C 71.398438 76.132812 71.398438 76.066406 71.398438 76 C 71.234375 76.003906 71.070312 76.003906 70.898438 76.007812 C 69.324219 76.019531 67.761719 75.972656 66.1875 75.886719 C 64.503906 75.796875 62.878906 75.8125 61.199219 76 Z M 29 77 C 28.539062 77.691406 28.53125 77.988281 28.601562 78.800781 C 29.1875 79.386719 29.796875 79.507812 30.601562 79.601562 C 31.234375 79.582031 31.867188 79.542969 32.5 79.492188 C 33.242188 79.429688 33.972656 79.394531 34.722656 79.414062 C 34.871094 79.417969 35.023438 79.421875 35.179688 79.425781 C 35.46875 79.433594 35.757812 79.445312 36.046875 79.460938 C 37.066406 79.488281 37.621094 79.25 38.398438 78.601562 C 38.644531 78.105469 38.644531 78.105469 38.601562 77.601562 C 37.960938 76.800781 37.167969 76.726562 36.199219 76.601562 C 35.335938 76.546875 34.476562 76.542969 33.613281 76.550781 C 33.390625 76.546875 33.167969 76.546875 32.9375 76.546875 C 30.933594 76.542969 30.933594 76.542969 29 77 Z M 29 77 "/>
<path style=" stroke:none;fill-rule:nonzero;fill:rgb(2.745098%,3.529412%,2.745098%);fill-opacity:1;" d="M 18.496094 10.777344 C 18.765625 10.777344 18.765625 10.777344 19.039062 10.777344 C 19.234375 10.777344 19.425781 10.78125 19.628906 10.78125 C 19.925781 10.78125 19.925781 10.78125 20.230469 10.78125 C 20.867188 10.78125 21.5 10.785156 22.136719 10.789062 C 22.566406 10.789062 23 10.789062 23.429688 10.789062 C 24.488281 10.792969 25.542969 10.796875 26.601562 10.800781 C 26.699219 11.097656 26.699219 11.097656 26.800781 11.398438 C 27.128906 11.269531 27.460938 11.136719 27.800781 11 C 27.898438 11.394531 27.898438 11.394531 28 11.800781 C 27.84375 11.902344 27.6875 12.007812 27.523438 12.113281 C 26.890625 12.703125 26.777344 13.164062 26.601562 14 C 25.527344 14.378906 24.613281 14.40625 23.488281 14.3125 C 20.558594 14.039062 20.558594 14.039062 17.800781 14.800781 C 17.484375 15.597656 17.308594 16.339844 17.398438 17.199219 C 17.582031 17.648438 17.582031 17.648438 17.800781 18 C 17.734375 18.066406 17.667969 18.132812 17.601562 18.199219 C 17.390625 19.828125 17.378906 21.476562 17.375 23.113281 C 17.375 23.285156 17.375 23.453125 17.371094 23.632812 C 17.375 24.285156 17.378906 24.890625 17.507812 25.53125 C 17.675781 26.390625 17.511719 27.257812 17.429688 28.125 C 17.375 28.773438 17.375 28.773438 17.5 29.300781 C 17.675781 30.171875 17.503906 31.046875 17.410156 31.925781 C 17.398438 32.605469 17.5 32.996094 17.800781 33.601562 C 17.734375 33.664062 17.667969 33.730469 17.601562 33.800781 C 17.546875 34.289062 17.507812 34.773438 17.476562 35.261719 C 17.464844 35.398438 17.453125 35.535156 17.445312 35.671875 C 17.390625 36.445312 17.390625 36.445312 17.503906 37.203125 C 17.714844 38.066406 17.496094 39.019531 17.410156 39.894531 C 17.402344 40.5625 17.433594 40.855469 17.800781 41.398438 C 17.734375 41.464844 17.667969 41.53125 17.601562 41.601562 C 17.546875 42.085938 17.507812 42.5625 17.476562 43.050781 C 17.464844 43.183594 17.453125 43.316406 17.445312 43.457031 C 17.394531 44.214844 17.449219 44.859375 17.601562 45.601562 C 17.566406 46.253906 17.5 46.898438 17.429688 47.550781 C 17.378906 48.191406 17.378906 48.191406 17.5 48.789062 C 17.621094 49.523438 17.566406 50.171875 17.5 50.914062 C 17.421875 51.808594 17.421875 52.523438 17.601562 53.398438 C 17.566406 54.054688 17.5 54.699219 17.429688 55.347656 C 17.378906 55.992188 17.378906 55.992188 17.5 56.59375 C 17.652344 57.515625 17.519531 58.390625 17.429688 59.3125 C 17.402344 59.984375 17.488281 60.539062 17.601562 61.199219 C 17.566406 61.855469 17.5 62.503906 17.429688 63.15625 C 17.398438 63.8125 17.492188 64.351562 17.601562 65 C 17.628906 65.632812 17.628906 66.265625 17.625 66.898438 C 17.625 67.164062 17.625 67.164062 17.625 67.433594 C 17.617188 68.707031 17.550781 69.960938 17.425781 71.230469 C 17.378906 71.789062 17.378906 71.789062 17.5 72.289062 C 17.671875 73.164062 17.515625 74.027344 17.429688 74.90625 C 17.375 75.570312 17.375 75.570312 17.5 76.105469 C 17.640625 77.078125 17.597656 78.027344 17.570312 79.003906 C 17.558594 79.453125 17.546875 79.902344 17.535156 80.351562 C 17.53125 80.585938 17.523438 80.820312 17.519531 81.0625 C 17.425781 84.75 17.371094 88.433594 17.476562 92.125 C 17.480469 92.289062 17.484375 92.453125 17.488281 92.621094 C 17.484375 94.433594 17.484375 94.433594 17.800781 96.199219 C 18.953125 96.480469 20.046875 96.480469 21.199219 96.199219 C 21.199219 96.265625 21.199219 96.332031 21.199219 96.398438 C 22.628906 96.644531 22.628906 96.644531 24 96.335938 C 24.199219 96.171875 24.199219 96.171875 24.398438 96 C 25 95.601562 25 95.601562 25.601562 95.601562 C 25.46875 95.929688 25.335938 96.261719 25.199219 96.601562 C 25.546875 96.605469 25.890625 96.609375 26.238281 96.613281 C 26.527344 96.617188 26.527344 96.617188 26.820312 96.621094 C 27.386719 96.617188 27.386719 96.617188 27.878906 96.488281 C 28.570312 96.371094 29.179688 96.46875 29.875 96.550781 C 30.789062 96.640625 31.484375 96.699219 32.238281 96.101562 C 32.515625 95.851562 32.515625 95.851562 32.800781 95.601562 C 33.234375 95.667969 33.234375 95.667969 33.601562 95.800781 C 33.335938 96.128906 33.070312 96.460938 32.800781 96.800781 C 33.046875 96.769531 33.292969 96.738281 33.546875 96.707031 C 35.238281 96.503906 36.816406 96.320312 38.511719 96.601562 C 39.371094 96.597656 39.890625 96.097656 40.511719 95.550781 C 41 95.199219 41 95.199219 41.460938 95.25 C 41.574219 95.300781 41.683594 95.347656 41.800781 95.398438 C 41.46875 95.796875 41.140625 96.191406 40.800781 96.601562 C 41.144531 96.605469 41.492188 96.609375 41.835938 96.613281 C 42.125 96.617188 42.125 96.617188 42.421875 96.621094 C 42.980469 96.617188 42.980469 96.617188 43.445312 96.5 C 44.125 96.378906 44.757812 96.386719 45.449219 96.398438 C 45.59375 96.402344 45.734375 96.402344 45.882812 96.40625 C 46.1875 96.410156 46.496094 96.417969 46.804688 96.421875 C 47.292969 96.429688 47.777344 96.4375 48.265625 96.445312 C 49.480469 96.464844 50.691406 96.488281 51.902344 96.507812 C 52.925781 96.527344 53.949219 96.542969 54.972656 96.5625 C 55.453125 96.570312 55.929688 96.578125 56.410156 96.585938 C 56.707031 96.59375 57.003906 96.597656 57.296875 96.601562 C 57.554688 96.605469 57.8125 96.609375 58.078125 96.613281 C 58.808594 96.601562 59.480469 96.519531 60.199219 96.398438 C 60.199219 96.53125 60.199219 96.664062 60.199219 96.800781 C 60.4375 96.75 60.4375 96.75 60.679688 96.703125 C 61.570312 96.574219 62.4375 96.566406 63.339844 96.5625 C 63.53125 96.558594 63.722656 96.558594 63.917969 96.558594 C 64.332031 96.554688 64.75 96.550781 65.164062 96.546875 C 65.820312 96.542969 66.476562 96.539062 67.132812 96.53125 C 68.761719 96.519531 70.394531 96.507812 72.023438 96.496094 C 73.402344 96.484375 74.78125 96.472656 76.160156 96.460938 C 76.804688 96.457031 77.453125 96.453125 78.097656 96.449219 C 78.496094 96.445312 78.890625 96.441406 79.289062 96.4375 C 79.46875 96.4375 79.648438 96.4375 79.832031 96.433594 C 80.648438 96.425781 81.40625 96.402344 82.199219 96.199219 C 82.667969 93.914062 82.65625 91.664062 82.644531 89.339844 C 82.644531 88.929688 82.644531 88.523438 82.644531 88.113281 C 82.644531 87.261719 82.644531 86.410156 82.640625 85.554688 C 82.636719 84.46875 82.636719 83.378906 82.636719 82.289062 C 82.636719 81.445312 82.636719 80.601562 82.632812 79.761719 C 82.632812 79.359375 82.632812 78.957031 82.632812 78.554688 C 82.632812 77.992188 82.632812 77.433594 82.628906 76.871094 C 82.628906 76.707031 82.628906 76.542969 82.628906 76.375 C 82.625 75.449219 82.554688 74.550781 82.445312 73.628906 C 82.375 72.976562 82.378906 72.324219 82.378906 71.667969 C 82.378906 71.527344 82.382812 71.386719 82.382812 71.238281 C 82.382812 70.9375 82.382812 70.632812 82.386719 70.332031 C 82.386719 69.851562 82.390625 69.371094 82.390625 68.890625 C 82.390625 67.871094 82.394531 66.855469 82.398438 65.835938 C 82.40625 64.652344 82.410156 63.472656 82.410156 62.289062 C 82.414062 61.816406 82.414062 61.34375 82.417969 60.871094 C 82.417969 60.582031 82.417969 60.292969 82.417969 60.003906 C 82.421875 59.75 82.421875 59.5 82.421875 59.238281 C 82.402344 58.710938 82.332031 58.300781 82.199219 57.800781 C 82.265625 57.734375 82.332031 57.667969 82.398438 57.601562 C 82.453125 57.074219 82.492188 56.550781 82.523438 56.023438 C 82.539062 55.804688 82.539062 55.804688 82.554688 55.582031 C 82.597656 54.921875 82.609375 54.433594 82.398438 53.800781 C 82.417969 53.285156 82.445312 52.777344 82.488281 52.261719 C 82.496094 52.121094 82.507812 51.980469 82.519531 51.835938 C 82.546875 51.492188 82.574219 51.144531 82.601562 50.800781 C 82.46875 50.800781 82.335938 50.800781 82.199219 50.800781 C 82.234375 50.667969 82.265625 50.535156 82.296875 50.398438 C 82.421875 49.675781 82.429688 48.972656 82.425781 48.242188 C 82.425781 48.09375 82.425781 47.949219 82.425781 47.796875 C 82.425781 47.484375 82.425781 47.175781 82.425781 46.863281 C 82.425781 46.386719 82.425781 45.914062 82.425781 45.4375 C 82.425781 45.136719 82.425781 44.832031 82.425781 44.53125 C 82.425781 44.316406 82.425781 44.316406 82.429688 44.101562 C 82.425781 43.429688 82.363281 42.847656 82.199219 42.199219 C 82.300781 41.871094 82.398438 41.542969 82.503906 41.214844 C 82.707031 40.339844 82.746094 39.296875 82.492188 38.429688 C 82.355469 37.792969 82.433594 37.199219 82.488281 36.550781 C 82.507812 36.296875 82.527344 36.042969 82.550781 35.785156 C 82.566406 35.589844 82.582031 35.398438 82.601562 35.199219 C 82.46875 35.199219 82.335938 35.199219 82.199219 35.199219 C 82.230469 35.054688 82.261719 34.914062 82.292969 34.765625 C 82.695312 32.628906 82.636719 30.425781 82.640625 28.261719 C 82.640625 28.09375 82.640625 27.929688 82.640625 27.757812 C 82.644531 26.886719 82.648438 26.011719 82.648438 25.136719 C 82.648438 24.242188 82.652344 23.34375 82.660156 22.445312 C 82.664062 21.75 82.664062 21.054688 82.664062 20.359375 C 82.664062 20.03125 82.667969 19.699219 82.667969 19.367188 C 82.707031 16.917969 82.707031 16.917969 82 14.601562 C 81 14.265625 79.949219 14.304688 78.898438 14.261719 C 78.667969 14.25 78.4375 14.238281 78.199219 14.226562 C 77.980469 14.214844 77.757812 14.207031 77.53125 14.199219 C 77.328125 14.1875 77.125 14.179688 76.917969 14.167969 C 76.351562 14.160156 76.351562 14.160156 75.800781 14.601562 C 75.535156 14.601562 75.273438 14.601562 75 14.601562 C 75 14.402344 75 14.203125 75 14 C 74.539062 14.066406 74.074219 14.132812 73.601562 14.199219 C 73.199219 13.6875 72.875 13.191406 72.601562 12.601562 C 72.898438 12.5 72.898438 12.5 73.199219 12.398438 C 73.195312 12.117188 73.195312 12.117188 73.1875 11.824219 C 73.199219 11.199219 73.199219 11.199219 73.398438 10.800781 C 74.679688 10.78125 75.960938 10.765625 77.242188 10.757812 C 77.679688 10.753906 78.113281 10.746094 78.546875 10.738281 C 79.175781 10.730469 79.804688 10.726562 80.429688 10.722656 C 80.625 10.71875 80.816406 10.714844 81.015625 10.710938 C 82.601562 10.707031 83.566406 11.160156 84.851562 12.050781 C 85.839844 13.039062 86.285156 14.085938 86.3125 15.484375 C 86.3125 15.640625 86.308594 15.796875 86.308594 15.957031 C 86.3125 16.125 86.3125 16.296875 86.316406 16.472656 C 86.320312 17.039062 86.320312 17.605469 86.320312 18.171875 C 86.324219 18.578125 86.328125 18.988281 86.332031 19.394531 C 86.339844 20.507812 86.34375 21.621094 86.347656 22.730469 C 86.351562 23.6875 86.355469 24.644531 86.363281 25.597656 C 86.382812 28.621094 86.390625 31.648438 86.398438 34.671875 C 86.402344 35.59375 86.402344 36.511719 86.40625 37.433594 C 86.429688 44.382812 86.421875 51.335938 86.402344 58.289062 C 86.398438 58.824219 86.398438 59.359375 86.398438 59.894531 C 86.378906 65.597656 86.359375 71.296875 86.332031 76.996094 C 86.328125 78.503906 86.320312 80.011719 86.316406 81.515625 C 86.308594 83.367188 86.300781 85.214844 86.292969 87.066406 C 86.285156 88.023438 86.28125 88.980469 86.28125 89.9375 C 86.277344 90.824219 86.273438 91.710938 86.265625 92.601562 C 86.265625 92.921875 86.261719 93.246094 86.261719 93.566406 C 86.257812 97.992188 86.257812 97.992188 85.152344 99.242188 C 84.046875 100.296875 82.929688 100.222656 81.464844 100.203125 C 81.1875 100.203125 80.90625 100.207031 80.628906 100.210938 C 79.871094 100.21875 79.109375 100.214844 78.347656 100.210938 C 77.527344 100.207031 76.707031 100.210938 75.882812 100.214844 C 74.277344 100.222656 72.667969 100.222656 71.058594 100.214844 C 69.75 100.210938 68.445312 100.210938 67.136719 100.214844 C 66.949219 100.214844 66.765625 100.214844 66.574219 100.214844 C 66.195312 100.214844 65.816406 100.214844 65.4375 100.214844 C 61.890625 100.222656 58.34375 100.214844 54.796875 100.207031 C 51.757812 100.199219 48.714844 100.203125 45.675781 100.207031 C 42.140625 100.21875 38.609375 100.21875 35.074219 100.214844 C 34.699219 100.214844 34.320312 100.214844 33.945312 100.214844 C 33.757812 100.214844 33.574219 100.214844 33.382812 100.214844 C 32.074219 100.210938 30.769531 100.214844 29.464844 100.21875 C 27.875 100.222656 26.28125 100.222656 24.691406 100.210938 C 23.878906 100.207031 23.066406 100.207031 22.253906 100.210938 C 21.511719 100.21875 20.769531 100.214844 20.023438 100.207031 C 19.628906 100.203125 19.234375 100.207031 18.839844 100.214844 C 17.277344 100.1875 16.257812 99.882812 15.042969 98.867188 C 13.507812 97.246094 13.6875 95.152344 13.699219 93.058594 C 13.699219 92.71875 13.699219 92.378906 13.695312 92.039062 C 13.695312 91.113281 13.695312 90.1875 13.699219 89.257812 C 13.699219 88.257812 13.699219 87.253906 13.695312 86.253906 C 13.695312 84.292969 13.695312 82.332031 13.699219 80.375 C 13.703125 78.089844 13.699219 75.808594 13.699219 73.523438 C 13.699219 69.449219 13.703125 65.375 13.707031 61.304688 C 13.710938 57.351562 13.710938 53.398438 13.710938 49.445312 C 13.707031 45.140625 13.707031 40.835938 13.710938 36.53125 C 13.710938 36.070312 13.710938 35.613281 13.710938 35.152344 C 13.710938 34.925781 13.710938 34.699219 13.710938 34.46875 C 13.714844 32.878906 13.714844 31.285156 13.710938 29.695312 C 13.710938 27.753906 13.710938 25.816406 13.714844 23.875 C 13.71875 22.886719 13.71875 21.898438 13.71875 20.910156 C 13.714844 20.003906 13.71875 19.097656 13.722656 18.191406 C 13.722656 17.863281 13.722656 17.535156 13.71875 17.207031 C 13.707031 13.671875 13.707031 13.671875 14.835938 12.25 C 15.90625 11.394531 17.105469 10.773438 18.496094 10.777344 Z M 18.496094 10.777344 "/>
<path style=" stroke:none;fill-rule:nonzero;fill:rgb(27.843137%,33.333333%,27.058824%);fill-opacity:1;" d="M 66.199219 54.398438 C 66.332031 54.398438 66.464844 54.398438 66.601562 54.398438 C 66.480469 55.074219 66.21875 55.464844 65.800781 56 C 66.257812 55.972656 66.714844 55.941406 67.175781 55.914062 C 67.429688 55.894531 67.683594 55.878906 67.949219 55.863281 C 68.578125 55.839844 68.578125 55.839844 69 55.601562 C 69.46875 55.722656 69.9375 55.855469 70.398438 56 C 70.398438 56.066406 70.398438 56.132812 70.398438 56.199219 C 60.433594 56.199219 50.46875 56.199219 40.199219 56.199219 C 40.132812 56.066406 40.066406 55.9375 40 55.800781 C 40.113281 55.800781 40.222656 55.800781 40.335938 55.800781 C 41.496094 55.804688 42.652344 55.808594 43.8125 55.8125 C 44.246094 55.8125 44.675781 55.8125 45.109375 55.816406 C 45.730469 55.816406 46.351562 55.820312 46.972656 55.820312 C 47.167969 55.820312 47.359375 55.820312 47.558594 55.824219 C 47.828125 55.824219 47.828125 55.824219 48.105469 55.824219 C 48.34375 55.824219 48.34375 55.824219 48.585938 55.824219 C 49.039062 55.816406 49.039062 55.816406 49.601562 55.601562 C 49.730469 55.664062 49.863281 55.730469 50 55.800781 C 50.503906 55.824219 50.996094 55.835938 51.5 55.835938 C 51.636719 55.839844 51.777344 55.84375 51.917969 55.84375 C 52.277344 55.847656 52.640625 55.824219 53 55.800781 C 53.132812 55.667969 53.265625 55.535156 53.398438 55.398438 C 53.664062 55.398438 53.929688 55.398438 54.199219 55.398438 C 54.199219 55.53125 54.199219 55.664062 54.199219 55.800781 C 54.617188 55.804688 55.035156 55.808594 55.449219 55.8125 C 55.796875 55.816406 55.796875 55.816406 56.152344 55.820312 C 56.683594 55.804688 57.09375 55.734375 57.601562 55.601562 C 57.699219 55.699219 57.699219 55.699219 57.800781 55.800781 C 59.570312 55.984375 59.570312 55.984375 61.25 55.578125 C 61.597656 55.277344 61.597656 55.277344 62 54.800781 C 62.132812 54.800781 62.265625 54.800781 62.398438 54.800781 C 62.226562 55.574219 62.226562 55.574219 62 55.800781 C 63.617188 55.988281 63.617188 55.988281 65.113281 55.488281 C 65.539062 55.109375 65.539062 55.109375 65.902344 54.707031 C 66 54.605469 66.097656 54.503906 66.199219 54.398438 Z M 66.199219 54.398438 "/>
<path style=" stroke:none;fill-rule:nonzero;fill:rgb(24.313725%,27.843137%,23.529412%);fill-opacity:1;" d="M 70.601562 81.800781 C 70.601562 82.527344 70.386719 82.6875 69.894531 83.183594 C 69.792969 83.285156 69.6875 83.386719 69.582031 83.488281 C 69.476562 83.59375 69.371094 83.699219 69.261719 83.808594 C 69.039062 84.035156 68.8125 84.257812 68.585938 84.484375 C 68.246094 84.816406 67.90625 85.15625 67.570312 85.492188 C 66.394531 86.667969 65.195312 87.773438 63.886719 88.800781 C 63.355469 89.234375 62.878906 89.710938 62.398438 90.199219 C 62.167969 90.402344 61.9375 90.605469 61.699219 90.800781 C 61.101562 91.304688 60.546875 91.835938 60 92.398438 C 59.902344 92.101562 59.902344 92.101562 59.800781 91.800781 C 60.058594 91.53125 60.316406 91.265625 60.574219 91 C 60.71875 90.851562 60.863281 90.703125 61.011719 90.550781 C 61.398438 90.199219 61.398438 90.199219 61.800781 90.199219 C 61.867188 90.003906 61.933594 89.804688 62 89.601562 C 62.132812 89.601562 62.265625 89.601562 62.398438 89.601562 C 62.449219 89.480469 62.503906 89.363281 62.554688 89.242188 C 62.824219 88.753906 63.097656 88.492188 63.523438 88.136719 C 63.652344 88.03125 63.777344 87.925781 63.90625 87.816406 C 64.070312 87.679688 64.234375 87.542969 64.398438 87.398438 C 65.640625 86.335938 66.832031 85.226562 68.015625 84.101562 C 68.859375 83.308594 69.714844 82.546875 70.601562 81.800781 Z M 70.601562 81.800781 "/>
<path style=" stroke:none;fill-rule:nonzero;fill:rgb(24.313725%,28.627451%,23.529412%);fill-opacity:1;" d="M 67.199219 45.398438 C 67.660156 45.398438 68.125 45.398438 68.601562 45.398438 C 67.734375 46.265625 66.867188 47.132812 66 48 C 66.414062 48.023438 66.824219 48.039062 67.238281 48.050781 C 67.582031 48.0625 67.582031 48.0625 67.933594 48.078125 C 68.875 47.96875 69.320312 47.546875 69.902344 46.824219 C 69.980469 46.703125 70.058594 46.585938 70.136719 46.460938 C 70.558594 45.820312 70.558594 45.820312 71 45.601562 C 71.199219 45.796875 71.394531 45.996094 71.601562 46.199219 C 70.699219 47.101562 70.699219 47.101562 69.800781 48 C 70.128906 48 70.460938 48 70.800781 48 C 70.734375 48.199219 70.667969 48.394531 70.601562 48.601562 C 66.640625 48.5 66.640625 48.5 62.601562 48.398438 C 62.601562 48.335938 62.601562 48.269531 62.601562 48.199219 C 62.71875 48.210938 62.835938 48.222656 62.960938 48.234375 C 63.929688 48.242188 64.445312 48.128906 65.207031 47.496094 C 65.605469 47.101562 65.976562 46.691406 66.351562 46.273438 C 66.5 46.117188 66.648438 45.960938 66.800781 45.800781 C 66.933594 45.800781 67.0625 45.800781 67.199219 45.800781 C 67.199219 45.667969 67.199219 45.535156 67.199219 45.398438 Z M 67.199219 45.398438 "/>
<path style=" stroke:none;fill-rule:nonzero;fill:rgb(27.45098%,32.156863%,26.666667%);fill-opacity:1;" d="M 64.800781 20.398438 C 65.195312 20.398438 65.59375 20.398438 66 20.398438 C 65.132812 21.265625 64.265625 22.132812 63.398438 23 C 63.53125 23.132812 63.664062 23.265625 63.800781 23.398438 C 61.027344 23.398438 58.257812 23.398438 55.398438 23.398438 C 55.398438 23.335938 55.398438 23.269531 55.398438 23.199219 C 57.710938 23.199219 60.019531 23.199219 62.398438 23.199219 C 62.53125 22.9375 62.664062 22.671875 62.800781 22.398438 C 63.054688 22.105469 63.324219 21.824219 63.601562 21.550781 C 63.742188 21.410156 63.878906 21.265625 64.023438 21.121094 C 64.398438 20.800781 64.398438 20.800781 64.800781 20.800781 C 64.800781 20.667969 64.800781 20.535156 64.800781 20.398438 Z M 64.800781 20.398438 "/>
<path style=" stroke:none;fill-rule:nonzero;fill:rgb(26.27451%,29.411765%,24.313725%);fill-opacity:1;" d="M 51.601562 45.398438 C 52.0625 45.398438 52.523438 45.398438 53 45.398438 C 52.226562 46.199219 51.40625 46.925781 50.558594 47.644531 C 50.441406 47.761719 50.320312 47.878906 50.199219 48 C 50.199219 48.132812 50.199219 48.265625 50.199219 48.398438 C 49.210938 48.398438 48.21875 48.398438 47.199219 48.398438 C 47.199219 48.335938 47.199219 48.269531 47.199219 48.199219 C 47.316406 48.195312 47.4375 48.195312 47.558594 48.191406 C 48.398438 48.140625 48.867188 48.105469 49.539062 47.5625 C 49.691406 47.375 49.84375 47.191406 50 47 C 50.390625 46.585938 50.789062 46.191406 51.199219 45.800781 C 51.332031 45.800781 51.464844 45.800781 51.601562 45.800781 C 51.601562 45.667969 51.601562 45.535156 51.601562 45.398438 Z M 51.601562 45.398438 "/>
<path style=" stroke:none;fill-rule:nonzero;fill:rgb(26.27451%,31.372549%,25.098039%);fill-opacity:1;" d="M 63.199219 45.398438 C 63.660156 45.398438 64.125 45.398438 64.601562 45.398438 C 64.464844 45.53125 64.328125 45.664062 64.1875 45.800781 C 63.722656 46.265625 63.277344 46.746094 62.835938 47.238281 C 62.714844 47.371094 62.59375 47.507812 62.472656 47.644531 C 62.160156 47.980469 62.160156 47.980469 62.199219 48.398438 C 61.078125 48.398438 59.957031 48.398438 58.800781 48.398438 C 58.800781 48.335938 58.800781 48.269531 58.800781 48.199219 C 58.992188 48.203125 58.992188 48.203125 59.1875 48.207031 C 60.210938 48.171875 60.847656 48.082031 61.585938 47.335938 C 61.933594 46.941406 62.25 46.535156 62.5625 46.113281 C 62.640625 46.007812 62.71875 45.90625 62.800781 45.800781 C 62.933594 45.800781 63.0625 45.800781 63.199219 45.800781 C 63.199219 45.667969 63.199219 45.535156 63.199219 45.398438 Z M 63.199219 45.398438 "/>
<path style=" stroke:none;fill-rule:nonzero;fill:rgb(24.313725%,28.235294%,23.137255%);fill-opacity:1;" d="M 59.398438 45.398438 C 59.863281 45.398438 60.324219 45.398438 60.800781 45.398438 C 60.664062 45.5 60.527344 45.597656 60.386719 45.699219 C 59.460938 46.488281 58.675781 47.390625 58 48.398438 C 57.472656 48.445312 57 48.457031 56.476562 48.4375 C 56.332031 48.433594 56.191406 48.433594 56.046875 48.429688 C 55.699219 48.421875 55.347656 48.410156 55 48.398438 C 55 48.335938 55 48.269531 55 48.199219 C 55.25 48.210938 55.503906 48.226562 55.761719 48.238281 C 57.042969 48.117188 57.734375 47.171875 58.542969 46.273438 C 58.769531 46.039062 58.769531 46.039062 59 45.800781 C 59.132812 45.800781 59.265625 45.800781 59.398438 45.800781 C 59.398438 45.667969 59.398438 45.535156 59.398438 45.398438 Z M 59.398438 45.398438 "/>
<path style=" stroke:none;fill-rule:nonzero;fill:rgb(25.882353%,30.588235%,25.098039%);fill-opacity:1;" d="M 43.601562 45.398438 C 44.128906 45.398438 44.65625 45.398438 45.199219 45.398438 C 44.3125 46.316406 43.359375 47.15625 42.398438 48 C 42.464844 48.132812 42.53125 48.265625 42.601562 48.398438 C 41.941406 48.398438 41.28125 48.398438 40.601562 48.398438 C 40.726562 48.304688 40.855469 48.210938 40.988281 48.113281 C 42.480469 46.914062 42.480469 46.914062 43.601562 45.398438 Z M 43.601562 45.398438 "/>
<path style=" stroke:none;fill-rule:nonzero;fill:rgb(25.098039%,28.627451%,23.529412%);fill-opacity:1;" d="M 55.398438 45.398438 C 55.863281 45.398438 56.324219 45.398438 56.800781 45.398438 C 56.292969 45.90625 55.789062 46.414062 55.273438 46.914062 C 54.558594 47.558594 54.558594 47.558594 54.199219 48.398438 C 53.210938 48.398438 52.21875 48.398438 51.199219 48.398438 C 51.199219 48.335938 51.199219 48.269531 51.199219 48.199219 C 51.582031 48.21875 51.582031 48.21875 51.976562 48.238281 C 52.976562 48.140625 53.460938 47.621094 54.085938 46.886719 C 54.253906 46.683594 54.417969 46.484375 54.585938 46.273438 C 54.722656 46.117188 54.859375 45.960938 55 45.800781 C 55.132812 45.800781 55.265625 45.800781 55.398438 45.800781 C 55.398438 45.667969 55.398438 45.535156 55.398438 45.398438 Z M 55.398438 45.398438 "/>
<path style=" stroke:none;fill-rule:nonzero;fill:rgb(23.529412%,29.411765%,23.921569%);fill-opacity:1;" d="M 47.601562 45.398438 C 48.0625 45.398438 48.523438 45.398438 49 45.398438 C 48.667969 45.734375 48.332031 46.066406 48 46.398438 C 47.886719 46.519531 47.777344 46.640625 47.664062 46.761719 C 47.398438 47 47.398438 47 47 47 C 46.914062 47.179688 46.914062 47.179688 46.824219 47.363281 C 46.601562 47.800781 46.601562 47.800781 46.199219 48.398438 C 45.8125 48.457031 45.8125 48.457031 45.375 48.4375 C 44.992188 48.417969 44.992188 48.417969 44.601562 48.398438 C 45.265625 47.734375 45.933594 47.066406 46.601562 46.398438 C 46.765625 46.21875 46.765625 46.21875 46.9375 46.039062 C 47.199219 45.800781 47.199219 45.800781 47.601562 45.800781 C 47.601562 45.667969 47.601562 45.535156 47.601562 45.398438 Z M 47.601562 45.398438 "/>
<path style=" stroke:none;fill-rule:nonzero;fill:rgb(25.882353%,30.980392%,25.882353%);fill-opacity:1;" d="M 36.398438 44.601562 C 36.464844 44.601562 36.53125 44.601562 36.601562 44.601562 C 36.667969 45.238281 36.667969 45.238281 36.601562 46 C 36.136719 46.523438 36.136719 46.523438 35.511719 47 C 35.40625 47.085938 35.296875 47.167969 35.183594 47.253906 C 34.964844 47.425781 34.742188 47.59375 34.519531 47.761719 C 34.058594 48.105469 33.605469 48.46875 33.148438 48.824219 C 32.898438 49.015625 32.652344 49.207031 32.398438 49.398438 C 32.269531 49.335938 32.136719 49.269531 32 49.199219 C 32.472656 48.714844 32.949219 48.230469 33.425781 47.75 C 33.558594 47.613281 33.691406 47.476562 33.828125 47.335938 C 34.417969 46.742188 34.980469 46.183594 35.6875 45.730469 C 36.230469 45.449219 36.230469 45.449219 36.375 44.949219 C 36.382812 44.835938 36.390625 44.71875 36.398438 44.601562 Z M 36.398438 44.601562 "/>
<path style=" stroke:none;fill-rule:nonzero;fill:rgb(30.980392%,35.294118%,30.980392%);fill-opacity:1;" d="M 49.199219 55.601562 C 49.304688 55.625 49.414062 55.652344 49.523438 55.679688 C 50.164062 55.839844 50.792969 55.871094 51.449219 55.914062 C 51.703125 55.929688 51.957031 55.945312 52.214844 55.964844 C 52.410156 55.976562 52.601562 55.988281 52.800781 56 C 52.800781 56.066406 52.800781 56.132812 52.800781 56.199219 C 48.640625 56.199219 44.484375 56.199219 40.199219 56.199219 C 40.132812 56.066406 40.066406 55.9375 40 55.800781 C 40.113281 55.800781 40.226562 55.800781 40.339844 55.800781 C 41.503906 55.804688 42.667969 55.808594 43.835938 55.8125 C 44.269531 55.8125 44.703125 55.8125 45.140625 55.816406 C 45.765625 55.816406 46.386719 55.820312 47.011719 55.820312 C 47.207031 55.820312 47.402344 55.820312 47.605469 55.824219 C 47.785156 55.824219 47.964844 55.824219 48.152344 55.824219 C 48.3125 55.824219 48.46875 55.824219 48.632812 55.824219 C 49.003906 55.839844 49.003906 55.839844 49.199219 55.601562 Z M 49.199219 55.601562 "/>
<path style=" stroke:none;fill-rule:nonzero;fill:rgb(29.803922%,38.823529%,30.980392%);fill-opacity:1;" d="M 70.398438 9.800781 C 70.464844 9.800781 70.53125 9.800781 70.601562 9.800781 C 70.601562 9.910156 70.605469 10.023438 70.605469 10.136719 C 70.628906 11.296875 70.652344 12.453125 70.675781 13.613281 C 70.683594 14.042969 70.691406 14.476562 70.699219 14.910156 C 70.710938 15.53125 70.722656 16.152344 70.738281 16.773438 C 70.738281 16.964844 70.742188 17.160156 70.746094 17.359375 C 70.75 17.539062 70.753906 17.71875 70.757812 17.90625 C 70.761719 18.0625 70.765625 18.222656 70.769531 18.386719 C 70.785156 18.839844 70.785156 18.839844 71 19.398438 C 70.785156 19.765625 70.785156 19.765625 70.460938 20.136719 C 70.359375 20.261719 70.253906 20.386719 70.148438 20.515625 C 69.800781 20.800781 69.800781 20.800781 69 20.800781 C 69 20.667969 69 20.535156 69 20.398438 C 69.160156 20.34375 69.320312 20.285156 69.488281 20.226562 C 70.027344 20.054688 70.027344 20.054688 70.199219 19.601562 C 70.222656 19.285156 70.234375 18.96875 70.242188 18.65625 C 70.246094 18.457031 70.25 18.261719 70.253906 18.058594 C 70.257812 17.847656 70.261719 17.636719 70.261719 17.417969 C 70.265625 17.199219 70.273438 16.984375 70.277344 16.757812 C 70.289062 16.066406 70.300781 15.371094 70.3125 14.675781 C 70.320312 14.203125 70.328125 13.734375 70.339844 13.265625 C 70.359375 12.109375 70.378906 10.953125 70.398438 9.800781 Z M 70.398438 9.800781 "/>
<path style=" stroke:none;fill-rule:nonzero;fill:rgb(23.529412%,29.019608%,23.137255%);fill-opacity:1;" d="M 70.601562 45.601562 C 70.988281 45.664062 70.988281 45.664062 71.398438 45.800781 C 71.464844 45.996094 71.53125 46.195312 71.601562 46.398438 C 71.488281 46.5 71.375 46.597656 71.257812 46.699219 C 71.109375 46.828125 70.964844 46.957031 70.8125 47.085938 C 70.59375 47.277344 70.59375 47.277344 70.371094 47.472656 C 70.175781 47.644531 69.984375 47.816406 69.800781 48 C 70.128906 48 70.460938 48 70.800781 48 C 70.734375 48.199219 70.667969 48.394531 70.601562 48.601562 C 69.941406 48.535156 69.28125 48.46875 68.601562 48.398438 C 68.847656 47.652344 69.238281 47.347656 69.800781 46.800781 C 70.332031 46.265625 70.332031 46.265625 70.601562 45.601562 Z M 70.601562 45.601562 "/>
<path style=" stroke:none;fill-rule:nonzero;fill:rgb(24.313725%,28.627451%,24.313725%);fill-opacity:1;" d="M 36.398438 29.199219 C 36.464844 29.199219 36.53125 29.199219 36.601562 29.199219 C 36.667969 29.738281 36.667969 29.738281 36.601562 30.398438 C 36.136719 30.90625 36.136719 30.90625 35.511719 31.386719 C 35.351562 31.515625 35.351562 31.515625 35.183594 31.644531 C 34.859375 31.898438 34.53125 32.148438 34.199219 32.398438 C 33.851562 32.675781 33.5 32.949219 33.148438 33.226562 C 32.898438 33.417969 32.652344 33.609375 32.398438 33.800781 C 32.269531 33.734375 32.136719 33.667969 32 33.601562 C 32.082031 33.523438 32.167969 33.445312 32.253906 33.367188 C 34.3125 31.503906 34.3125 31.503906 36.179688 29.453125 C 36.253906 29.367188 36.324219 29.285156 36.398438 29.199219 Z M 36.398438 29.199219 "/>
<path style=" stroke:none;fill-rule:nonzero;fill:rgb(24.705882%,28.627451%,25.098039%);fill-opacity:1;" d="M 36.398438 37 C 36.464844 37 36.53125 37 36.601562 37 C 36.671875 37.535156 36.671875 37.535156 36.601562 38.199219 C 36.21875 38.609375 35.890625 38.910156 35.449219 39.238281 C 35.34375 39.324219 35.234375 39.40625 35.125 39.496094 C 34.820312 39.734375 34.507812 39.96875 34.199219 40.199219 C 34.042969 40.320312 33.882812 40.4375 33.722656 40.558594 C 33.617188 40.640625 33.507812 40.71875 33.398438 40.800781 C 33.269531 40.734375 33.136719 40.667969 33 40.601562 C 33.199219 40.304688 33.199219 40.304688 33.398438 40 C 33.53125 40 33.664062 40 33.800781 40 C 33.800781 39.867188 33.800781 39.734375 33.800781 39.601562 C 34.113281 39.296875 34.113281 39.296875 34.539062 38.949219 C 35.25 38.347656 35.816406 37.722656 36.398438 37 Z M 36.398438 37 "/>
<path style=" stroke:none;fill-rule:nonzero;fill:rgb(24.313725%,28.627451%,23.921569%);fill-opacity:1;" d="M 36.398438 52.601562 C 36.464844 52.601562 36.53125 52.601562 36.601562 52.601562 C 36.699219 53.21875 36.699219 53.21875 36.601562 54 C 36.136719 54.527344 35.582031 54.898438 35 55.289062 C 34.769531 55.449219 34.769531 55.449219 34.539062 55.617188 C 34.160156 55.882812 33.78125 56.140625 33.398438 56.398438 C 33.269531 56.335938 33.136719 56.269531 33 56.199219 C 33.71875 55.234375 34.5625 54.570312 35.507812 53.835938 C 35.964844 53.429688 36.183594 53.160156 36.398438 52.601562 Z M 36.398438 52.601562 "/>
<path style=" stroke:none;fill-rule:nonzero;fill:rgb(24.313725%,29.019608%,23.921569%);fill-opacity:1;" d="M 36.398438 60.398438 C 36.464844 60.398438 36.53125 60.398438 36.601562 60.398438 C 36.671875 61.683594 36.671875 61.683594 36.386719 62.136719 C 35.929688 62.445312 35.453125 62.710938 34.96875 62.976562 C 34.390625 63.324219 33.90625 63.753906 33.398438 64.199219 C 33.269531 64.132812 33.136719 64.066406 33 64 C 33.925781 63.050781 34.863281 62.152344 35.886719 61.308594 C 36.25 60.996094 36.25 60.996094 36.398438 60.398438 Z M 36.398438 60.398438 "/>
<path style=" stroke:none;fill-rule:nonzero;fill:rgb(29.019608%,37.254902%,28.627451%);fill-opacity:1;" d="M 27.199219 15.199219 C 27.332031 15.199219 27.464844 15.199219 27.601562 15.199219 C 27.5 16.089844 27.265625 16.59375 26.601562 17.199219 C 25.945312 17.324219 25.3125 17.292969 24.648438 17.261719 C 24.472656 17.257812 24.292969 17.253906 24.113281 17.25 C 23.675781 17.238281 23.238281 17.21875 22.800781 17.199219 C 22.800781 17.132812 22.800781 17.066406 22.800781 17 C 22.984375 17.003906 23.167969 17.007812 23.355469 17.011719 C 24.824219 17.015625 24.824219 17.015625 26.128906 16.429688 C 26.550781 15.996094 26.550781 15.996094 26.910156 15.542969 C 27.054688 15.375 27.054688 15.375 27.199219 15.199219 Z M 27.199219 15.199219 "/>
<path style=" stroke:none;fill-rule:nonzero;fill:rgb(25.490196%,28.627451%,24.705882%);fill-opacity:1;" d="M 85.601562 97.199219 C 85.730469 97.199219 85.863281 97.199219 86 97.199219 C 86 98.125 85.691406 98.613281 85.085938 99.273438 C 84.496094 99.839844 84.125 100.101562 83.300781 100.101562 C 83.070312 100.066406 82.839844 100.035156 82.601562 100 C 82.980469 99.746094 83.367188 99.503906 83.761719 99.273438 C 84.457031 98.757812 84.859375 98.230469 85.339844 97.523438 C 85.425781 97.414062 85.511719 97.308594 85.601562 97.199219 Z M 85.601562 97.199219 "/>
<path style=" stroke:none;fill-rule:nonzero;fill:rgb(28.235294%,36.078431%,28.627451%);fill-opacity:1;" d="M 65.625 47.574219 C 65.816406 47.582031 66.003906 47.589844 66.199219 47.601562 C 66.132812 47.730469 66.066406 47.863281 66 48 C 66.859375 48.066406 67.714844 48.132812 68.601562 48.199219 C 68.601562 48.265625 68.601562 48.332031 68.601562 48.398438 C 66.621094 48.398438 64.640625 48.398438 62.601562 48.398438 C 62.601562 48.335938 62.601562 48.269531 62.601562 48.199219 C 62.808594 48.183594 62.808594 48.183594 63.023438 48.171875 C 63.207031 48.15625 63.386719 48.140625 63.574219 48.125 C 63.757812 48.109375 63.9375 48.097656 64.125 48.082031 C 64.820312 47.960938 64.871094 47.605469 65.625 47.574219 Z M 65.625 47.574219 "/>
<path style=" stroke:none;fill-rule:nonzero;fill:rgb(28.627451%,34.901961%,28.627451%);fill-opacity:1;" d="M 45.398438 40 C 45.8125 40.085938 45.8125 40.085938 46.199219 40.199219 C 46.132812 40.332031 46.066406 40.464844 46 40.601562 C 45.210938 40.644531 44.417969 40.683594 43.628906 40.71875 C 43.359375 40.730469 43.089844 40.746094 42.824219 40.761719 C 42.4375 40.78125 42.050781 40.796875 41.664062 40.816406 C 41.316406 40.832031 41.316406 40.832031 40.960938 40.851562 C 40.773438 40.832031 40.589844 40.816406 40.398438 40.800781 C 40.269531 40.601562 40.136719 40.402344 40 40.199219 C 40.15625 40.199219 40.3125 40.203125 40.472656 40.203125 C 41.179688 40.207031 41.882812 40.210938 42.585938 40.210938 C 42.957031 40.214844 42.957031 40.214844 43.335938 40.21875 C 43.566406 40.21875 43.800781 40.21875 44.042969 40.21875 C 44.261719 40.21875 44.476562 40.222656 44.699219 40.222656 C 45.1875 40.257812 45.1875 40.257812 45.398438 40 Z M 45.398438 40 "/>
<path style=" stroke:none;fill-rule:nonzero;fill:rgb(22.352941%,26.27451%,21.960784%);fill-opacity:1;" d="M 42.398438 60.800781 C 42.53125 60.933594 42.664062 61.0625 42.800781 61.199219 C 42.660156 61.210938 42.519531 61.21875 42.375 61.230469 C 42.195312 61.246094 42.011719 61.257812 41.824219 61.273438 C 41.644531 61.289062 41.464844 61.304688 41.277344 61.316406 C 40.765625 61.359375 40.765625 61.359375 40.398438 61.800781 C 40.203125 61.800781 40.003906 61.800781 39.800781 61.800781 C 39.800781 61.996094 39.800781 62.195312 39.800781 62.398438 C 39.667969 62.398438 39.535156 62.398438 39.398438 62.398438 C 39.335938 62.597656 39.269531 62.796875 39.199219 63 C 39.128906 61.917969 39.128906 61.917969 39.414062 61.449219 C 40.316406 60.867188 41.34375 60.703125 42.398438 60.800781 Z M 42.398438 60.800781 "/>
<path style=" stroke:none;fill-rule:nonzero;fill:rgb(29.411765%,36.078431%,30.980392%);fill-opacity:1;" d="M 82.601562 41.199219 C 82.664062 41.199219 82.730469 41.199219 82.800781 41.199219 C 82.800781 43.378906 82.800781 45.554688 82.800781 47.800781 C 82.734375 47.800781 82.667969 47.800781 82.601562 47.800781 C 82.417969 46.402344 82.386719 45.03125 82.414062 43.621094 C 82.402344 43.09375 82.324219 42.703125 82.199219 42.199219 C 82.386719 41.648438 82.386719 41.648438 82.601562 41.199219 Z M 82.601562 41.199219 "/>
<path style=" stroke:none;fill-rule:nonzero;fill:rgb(28.235294%,30.980392%,27.843137%);fill-opacity:1;" d="M 41.949219 37.386719 C 42.300781 37.390625 42.300781 37.390625 42.660156 37.394531 C 42.835938 37.394531 43.015625 37.398438 43.199219 37.398438 C 43.199219 37.464844 43.199219 37.53125 43.199219 37.601562 C 43.039062 37.601562 42.875 37.605469 42.710938 37.609375 C 41.355469 37.648438 41.355469 37.648438 40.1875 38.261719 C 40.058594 38.441406 39.933594 38.617188 39.800781 38.800781 C 39.679688 38.953125 39.5625 39.105469 39.4375 39.261719 C 39.359375 39.375 39.28125 39.484375 39.199219 39.601562 C 39.128906 38.308594 39.128906 38.308594 39.449219 37.824219 C 40.230469 37.324219 41.042969 37.378906 41.949219 37.386719 Z M 41.949219 37.386719 "/>
<path style=" stroke:none;fill-rule:nonzero;fill:rgb(23.529412%,28.235294%,22.745098%);fill-opacity:1;" d="M 33.601562 44.601562 C 33.730469 44.664062 33.863281 44.730469 34 44.800781 C 32.714844 45.988281 32.714844 45.988281 31.398438 47.199219 C 31.203125 47.003906 31.003906 46.804688 30.800781 46.601562 C 31.367188 46.03125 32.046875 45.691406 32.738281 45.289062 C 33.214844 45.015625 33.214844 45.015625 33.601562 44.601562 Z M 33.601562 44.601562 "/>
<path style=" stroke:none;fill-rule:nonzero;fill:rgb(23.529412%,29.019608%,22.745098%);fill-opacity:1;" d="M 41.425781 95.285156 C 41.546875 95.324219 41.671875 95.359375 41.800781 95.398438 C 41.441406 95.917969 41.078125 96.386719 40.601562 96.800781 C 39.824219 96.886719 39.824219 96.886719 39.199219 96.800781 C 40.796875 95.160156 40.796875 95.160156 41.425781 95.285156 Z M 41.425781 95.285156 "/>
<path style=" stroke:none;fill-rule:nonzero;fill:rgb(20.784314%,24.313725%,20.784314%);fill-opacity:1;" d="M 47.8125 -0.0546875 C 47.941406 -0.0390625 48.066406 -0.0195312 48.199219 0 C 48.132812 0.199219 48.066406 0.394531 48 0.601562 C 47.640625 0.617188 47.640625 0.617188 47.273438 0.636719 C 46.320312 0.75 45.878906 1.136719 45.199219 1.800781 C 45.066406 1.734375 44.9375 1.667969 44.800781 1.601562 C 45.664062 0.316406 46.234375 -0.1875 47.8125 -0.0546875 Z M 47.8125 -0.0546875 "/>
<path style=" stroke:none;fill-rule:nonzero;fill:rgb(24.313725%,28.627451%,23.921569%);fill-opacity:1;" d="M 33.398438 60.398438 C 33.53125 60.464844 33.664062 60.53125 33.800781 60.601562 C 33.523438 60.890625 33.242188 61.175781 32.960938 61.460938 C 32.808594 61.621094 32.652344 61.78125 32.492188 61.949219 C 32.019531 62.382812 31.5625 62.691406 31 63 C 31 62.734375 31 62.472656 31 62.199219 C 31.394531 61.84375 31.765625 61.550781 32.199219 61.25 C 32.316406 61.167969 32.429688 61.085938 32.546875 61 C 32.828125 60.796875 33.113281 60.597656 33.398438 60.398438 Z M 33.398438 60.398438 "/>
<path style=" stroke:none;fill-rule:nonzero;fill:rgb(23.529412%,28.235294%,22.352941%);fill-opacity:1;" d="M 33.601562 52.398438 C 33.730469 52.464844 33.863281 52.53125 34 52.601562 C 33.75 52.855469 33.5 53.109375 33.25 53.363281 C 33.109375 53.503906 32.972656 53.644531 32.828125 53.792969 C 31.769531 54.800781 31.769531 54.800781 31 54.800781 C 31 54.601562 31 54.402344 31 54.199219 C 31.207031 54.089844 31.414062 53.976562 31.625 53.863281 C 32.359375 53.445312 32.96875 52.957031 33.601562 52.398438 Z M 33.601562 52.398438 "/>
<path style=" stroke:none;fill-rule:nonzero;fill:rgb(24.705882%,29.411765%,23.137255%);fill-opacity:1;" d="M 62 39 C 62.199219 39.066406 62.394531 39.132812 62.601562 39.199219 C 62.335938 39.660156 62.070312 40.125 61.800781 40.601562 C 61.339844 40.601562 60.875 40.601562 60.398438 40.601562 C 60.933594 40.066406 61.464844 39.535156 62 39 Z M 62 39 "/>
<path style=" stroke:none;fill-rule:nonzero;fill:rgb(30.196078%,37.647059%,30.980392%);fill-opacity:1;" d="M 82.601562 33.398438 C 82.664062 33.398438 82.730469 33.398438 82.800781 33.398438 C 82.800781 35.183594 82.800781 36.964844 82.800781 38.800781 C 82.351562 37.898438 82.382812 37.53125 82.476562 36.550781 C 82.496094 36.296875 82.519531 36.042969 82.542969 35.785156 C 82.5625 35.589844 82.582031 35.398438 82.601562 35.199219 C 82.46875 35.199219 82.335938 35.199219 82.199219 35.199219 C 82.316406 34.59375 82.445312 33.996094 82.601562 33.398438 Z M 82.601562 33.398438 "/>
<path style=" stroke:none;fill-rule:nonzero;fill:rgb(26.27451%,30.980392%,25.098039%);fill-opacity:1;" d="M 27.601562 11 C 27.730469 11.265625 27.863281 11.527344 28 11.800781 C 27.757812 11.960938 27.757812 11.960938 27.511719 12.125 C 26.90625 12.6875 26.855469 12.992188 26.800781 13.800781 C 26.734375 13.800781 26.667969 13.800781 26.601562 13.800781 C 26.601562 13.007812 26.601562 12.214844 26.601562 11.398438 C 26.863281 11.335938 27.128906 11.269531 27.398438 11.199219 C 27.464844 11.132812 27.53125 11.066406 27.601562 11 Z M 27.601562 11 "/>
<path style=" stroke:none;fill-rule:nonzero;fill:rgb(23.921569%,28.235294%,23.529412%);fill-opacity:1;" d="M 33.199219 29.199219 C 33.332031 29.265625 33.464844 29.332031 33.601562 29.398438 C 33.320312 29.707031 33.035156 30.011719 32.75 30.3125 C 32.511719 30.566406 32.511719 30.566406 32.273438 30.824219 C 31.800781 31.199219 31.800781 31.199219 31.339844 31.15625 C 31.171875 31.078125 31.171875 31.078125 31 31 C 31 30.867188 31 30.734375 31 30.601562 C 31.214844 30.480469 31.429688 30.359375 31.648438 30.238281 C 32.199219 29.925781 32.707031 29.59375 33.199219 29.199219 Z M 33.199219 29.199219 "/>
<path style=" stroke:none;fill-rule:nonzero;fill:rgb(30.196078%,34.509804%,30.196078%);fill-opacity:1;" d="M 42.601562 45.398438 C 42.601562 45.464844 42.601562 45.53125 42.601562 45.601562 C 42.484375 45.601562 42.367188 45.605469 42.25 45.609375 C 41.023438 45.683594 40.457031 45.921875 39.601562 46.800781 C 39.46875 46.996094 39.335938 47.195312 39.199219 47.398438 C 39.175781 46.25 39.175781 46.25 39.398438 45.800781 C 40.453125 45.3125 41.46875 45.359375 42.601562 45.398438 Z M 42.601562 45.398438 "/>
<path style=" stroke:none;fill-rule:nonzero;fill:rgb(30.588235%,36.470588%,31.372549%);fill-opacity:1;" d="M 82.601562 56.800781 C 82.664062 56.800781 82.730469 56.800781 82.800781 56.800781 C 82.800781 58.449219 82.800781 60.101562 82.800781 61.800781 C 82.667969 61.734375 82.535156 61.667969 82.398438 61.601562 C 82.402344 61.394531 82.40625 61.183594 82.40625 60.972656 C 82.410156 60.699219 82.410156 60.425781 82.414062 60.148438 C 82.414062 60.011719 82.414062 59.878906 82.417969 59.738281 C 82.421875 59.054688 82.371094 58.457031 82.199219 57.800781 C 82.386719 57.25 82.386719 57.25 82.601562 56.800781 Z M 82.601562 56.800781 "/>
<path style=" stroke:none;fill-rule:nonzero;fill:rgb(26.666667%,34.901961%,25.882353%);fill-opacity:1;" d="M 49.601562 47.199219 C 49.796875 47.265625 49.996094 47.332031 50.199219 47.398438 C 50.199219 47.730469 50.199219 48.058594 50.199219 48.398438 C 49.210938 48.398438 48.21875 48.398438 47.199219 48.398438 C 47.199219 48.335938 47.199219 48.269531 47.199219 48.199219 C 47.324219 48.195312 47.445312 48.191406 47.574219 48.183594 C 48.597656 48.144531 48.597656 48.144531 49.414062 47.585938 C 49.472656 47.460938 49.535156 47.332031 49.601562 47.199219 Z M 49.601562 47.199219 "/>
<path style=" stroke:none;fill-rule:nonzero;fill:rgb(24.313725%,29.019608%,23.921569%);fill-opacity:1;" d="M 63.949219 37.335938 C 64.164062 37.359375 64.378906 37.378906 64.601562 37.398438 C 64.039062 37.992188 63.5625 38.488281 62.800781 38.800781 C 62.667969 38.667969 62.535156 38.535156 62.398438 38.398438 C 62.875 37.636719 63.027344 37.414062 63.949219 37.335938 Z M 63.949219 37.335938 "/>
<path style=" stroke:none;fill-rule:nonzero;fill:rgb(23.529412%,28.627451%,23.137255%);fill-opacity:1;" d="M 32.601562 37.398438 C 32.796875 37.464844 32.996094 37.53125 33.199219 37.601562 C 32.671875 38.128906 32.144531 38.65625 31.601562 39.199219 C 31.402344 39.132812 31.203125 39.066406 31 39 C 31 38.800781 31 38.605469 31 38.398438 C 31.359375 38.199219 31.714844 37.996094 32.074219 37.792969 C 32.394531 37.621094 32.394531 37.621094 32.601562 37.398438 Z M 32.601562 37.398438 "/>
<path style=" stroke:none;fill-rule:nonzero;fill:rgb(27.843137%,30.196078%,26.27451%);fill-opacity:1;" d="M 61.398438 90.199219 C 61.597656 90.265625 61.796875 90.332031 62 90.398438 C 61.339844 91.226562 60.765625 91.917969 59.800781 92.398438 C 59.914062 91.675781 60.183594 91.347656 60.710938 90.851562 C 60.839844 90.726562 60.96875 90.605469 61.101562 90.476562 C 61.199219 90.386719 61.296875 90.292969 61.398438 90.199219 Z M 61.398438 90.199219 "/>
<path style=" stroke:none;fill-rule:nonzero;fill:rgb(31.372549%,36.470588%,30.980392%);fill-opacity:1;" d="M 68.800781 55.601562 C 69.167969 55.667969 69.167969 55.667969 69.613281 55.789062 C 69.757812 55.828125 69.90625 55.867188 70.058594 55.90625 C 70.226562 55.953125 70.226562 55.953125 70.398438 56 C 70.398438 56.066406 70.398438 56.132812 70.398438 56.199219 C 68.75 56.199219 67.101562 56.199219 65.398438 56.199219 C 65.800781 55.800781 65.800781 55.800781 66.445312 55.769531 C 66.699219 55.773438 66.953125 55.78125 67.210938 55.789062 C 67.675781 55.796875 68.136719 55.804688 68.601562 55.800781 C 68.664062 55.734375 68.730469 55.667969 68.800781 55.601562 Z M 68.800781 55.601562 "/>
<path style=" stroke:none;fill-rule:nonzero;fill:rgb(23.921569%,29.803922%,24.313725%);fill-opacity:1;" d="M 33.601562 95.800781 C 33.289062 96.300781 33.289062 96.300781 32.800781 96.800781 C 32.050781 96.863281 32.050781 96.863281 31.398438 96.800781 C 32.652344 95.515625 32.652344 95.515625 33.601562 95.800781 Z M 33.601562 95.800781 "/>
<path style=" stroke:none;fill-rule:nonzero;fill:rgb(23.529412%,28.627451%,22.745098%);fill-opacity:1;" d="M 25.601562 95.601562 C 25.226562 96.574219 25.226562 96.574219 25 96.800781 C 24.535156 96.808594 24.066406 96.808594 23.601562 96.800781 C 24.769531 95.601562 24.769531 95.601562 25.601562 95.601562 Z M 25.601562 95.601562 "/>
<path style=" stroke:none;fill-rule:nonzero;fill:rgb(26.27451%,30.196078%,25.882353%);fill-opacity:1;" d="M 57.800781 39.398438 C 57.996094 39.464844 58.195312 39.53125 58.398438 39.601562 C 58.1875 40.101562 58.1875 40.101562 57.800781 40.601562 C 57.0625 40.664062 57.0625 40.664062 56.398438 40.601562 C 57.351562 39.625 57.351562 39.625 57.800781 39.398438 Z M 57.800781 39.398438 "/>
<path style=" stroke:none;fill-rule:nonzero;fill:rgb(23.137255%,27.45098%,22.352941%);fill-opacity:1;" d="M 27.199219 15.199219 C 27.332031 15.199219 27.464844 15.199219 27.601562 15.199219 C 27.5 15.9375 27.378906 16.320312 26.800781 16.800781 C 26.601562 16.734375 26.402344 16.667969 26.199219 16.601562 C 26.503906 16.074219 26.769531 15.632812 27.199219 15.199219 Z M 27.199219 15.199219 "/>
<path style=" stroke:none;fill-rule:nonzero;fill:rgb(28.235294%,36.078431%,29.411765%);fill-opacity:1;" d="M 20.398438 96.199219 C 20.667969 96.265625 20.933594 96.332031 21.199219 96.398438 C 21.734375 96.476562 22.265625 96.539062 22.800781 96.601562 C 22.800781 96.664062 22.800781 96.730469 22.800781 96.800781 C 21.480469 96.800781 20.160156 96.800781 18.800781 96.800781 C 18.800781 96.734375 18.800781 96.667969 18.800781 96.601562 C 19.027344 96.570312 19.253906 96.542969 19.488281 96.511719 C 20.160156 96.476562 20.160156 96.476562 20.398438 96.199219 Z M 20.398438 96.199219 "/>
<path style=" stroke:none;fill-rule:nonzero;fill:rgb(24.313725%,30.588235%,24.313725%);fill-opacity:1;" d="M 63.199219 53.199219 C 63.660156 53.199219 64.125 53.199219 64.601562 53.199219 C 63.570312 54.3125 63.570312 54.3125 62.800781 54.398438 C 62.902344 53.964844 63 53.601562 63.199219 53.199219 Z M 63.199219 53.199219 "/>
<path style=" stroke:none;fill-rule:nonzero;fill:rgb(23.529412%,27.058824%,22.745098%);fill-opacity:1;" d="M 50.800781 46.199219 C 50.933594 46.265625 51.0625 46.332031 51.199219 46.398438 C 51.148438 46.875 51.148438 46.875 51 47.398438 C 50.585938 47.664062 50.585938 47.664062 50.199219 47.800781 C 50.050781 47.449219 50.050781 47.449219 50 47 C 50.386719 46.550781 50.386719 46.550781 50.800781 46.199219 Z M 50.800781 46.199219 "/>
<path style=" stroke:none;fill-rule:nonzero;fill:rgb(21.176471%,25.490196%,21.176471%);fill-opacity:1;" d="M 34.800781 38.800781 C 34.933594 38.867188 35.0625 38.933594 35.199219 39 C 35.199219 39.132812 35.199219 39.265625 35.199219 39.398438 C 34.804688 39.746094 34.804688 39.746094 34.300781 40.125 C 34.132812 40.25 33.964844 40.378906 33.792969 40.507812 C 33.664062 40.605469 33.535156 40.699219 33.398438 40.800781 C 33.269531 40.734375 33.136719 40.667969 33 40.601562 C 33.132812 40.402344 33.265625 40.203125 33.398438 40 C 33.53125 40 33.664062 40 33.800781 40 C 33.800781 39.867188 33.800781 39.734375 33.800781 39.601562 C 34.125 39.324219 34.457031 39.054688 34.800781 38.800781 Z M 34.800781 38.800781 "/>
<path style=" stroke:none;fill-rule:nonzero;fill:rgb(23.137255%,27.45098%,23.137255%);fill-opacity:1;" d="M 72.601562 20.800781 C 72.289062 21.5625 71.808594 22.050781 71.199219 22.601562 C 71.066406 22.601562 70.9375 22.601562 70.800781 22.601562 C 71.109375 21.84375 71.710938 20.800781 72.601562 20.800781 Z M 72.601562 20.800781 "/>
<path style=" stroke:none;fill-rule:nonzero;fill:rgb(25.098039%,28.235294%,23.529412%);fill-opacity:1;" d="M 70.601562 18.800781 C 70.730469 18.996094 70.863281 19.195312 71 19.398438 C 70.820312 19.636719 70.636719 19.867188 70.449219 20.101562 C 70.296875 20.292969 70.296875 20.292969 70.140625 20.492188 C 69.800781 20.800781 69.800781 20.800781 69 20.800781 C 69 20.667969 69 20.535156 69 20.398438 C 69.152344 20.359375 69.304688 20.316406 69.460938 20.273438 C 70.164062 19.914062 70.304688 19.515625 70.601562 18.800781 Z M 70.601562 18.800781 "/>
<path style=" stroke:none;fill-rule:nonzero;fill:rgb(24.313725%,30.196078%,24.313725%);fill-opacity:1;" d="M 41.199219 53.398438 C 40.976562 53.511719 40.753906 53.621094 40.523438 53.738281 C 39.96875 54.050781 39.820312 54.164062 39.511719 54.75 C 39.476562 54.898438 39.4375 55.046875 39.398438 55.199219 C 39.335938 55.199219 39.269531 55.199219 39.199219 55.199219 C 39.148438 54.636719 39.148438 54.636719 39.199219 54 C 39.820312 53.378906 40.34375 53.113281 41.199219 53.398438 Z M 41.199219 53.398438 "/>
<path style=" stroke:none;fill-rule:nonzero;fill:rgb(25.882353%,36.470588%,25.882353%);fill-opacity:1;" d="M 53.398438 47.601562 C 53.664062 47.863281 53.929688 48.128906 54.199219 48.398438 C 53.210938 48.398438 52.21875 48.398438 51.199219 48.398438 C 51.199219 48.335938 51.199219 48.269531 51.199219 48.199219 C 51.324219 48.191406 51.449219 48.179688 51.578125 48.171875 C 51.742188 48.15625 51.90625 48.140625 52.074219 48.125 C 52.238281 48.109375 52.398438 48.097656 52.566406 48.082031 C 53.039062 48.035156 53.039062 48.035156 53.398438 47.601562 Z M 53.398438 47.601562 "/>
<path style=" stroke:none;fill-rule:nonzero;fill:rgb(24.313725%,29.803922%,23.921569%);fill-opacity:1;" d="M 53.800781 39.601562 C 53.996094 39.664062 54.195312 39.730469 54.398438 39.800781 C 54.269531 40.0625 54.136719 40.328125 54 40.601562 C 53.539062 40.601562 53.074219 40.601562 52.601562 40.601562 C 53.351562 39.824219 53.351562 39.824219 53.800781 39.601562 Z M 53.800781 39.601562 "/>
<path style=" stroke:none;fill-rule:nonzero;fill:rgb(24.313725%,28.235294%,22.745098%);fill-opacity:1;" d="M 55.398438 37.398438 C 55.796875 37.398438 56.191406 37.398438 56.601562 37.398438 C 56.335938 37.730469 56.070312 38.058594 55.800781 38.398438 C 55.535156 38.335938 55.273438 38.269531 55 38.199219 C 55.132812 37.9375 55.265625 37.671875 55.398438 37.398438 Z M 55.398438 37.398438 "/>
<path style=" stroke:none;fill-rule:nonzero;fill:rgb(23.921569%,26.27451%,23.921569%);fill-opacity:1;" d="M 38.601562 77.601562 C 38.664062 77.601562 38.730469 77.601562 38.800781 77.601562 C 38.835938 78.273438 38.835938 78.273438 38.800781 79 C 38.199219 79.398438 38.199219 79.398438 37.761719 79.324219 C 37.644531 79.285156 37.523438 79.242188 37.398438 79.199219 C 37.5625 79.046875 37.722656 78.894531 37.886719 78.738281 C 38.433594 78.242188 38.433594 78.242188 38.601562 77.601562 Z M 38.601562 77.601562 "/>
<path style=" stroke:none;fill-rule:nonzero;fill:rgb(28.627451%,34.901961%,29.803922%);fill-opacity:1;" d="M 82.601562 48.800781 C 82.664062 48.800781 82.730469 48.800781 82.800781 48.800781 C 82.800781 49.722656 82.800781 50.648438 82.800781 51.601562 C 82.734375 51.335938 82.667969 51.070312 82.601562 50.800781 C 82.46875 50.800781 82.335938 50.800781 82.199219 50.800781 C 82.332031 50.132812 82.464844 49.464844 82.601562 48.800781 Z M 82.601562 48.800781 "/>
<path style=" stroke:none;fill-rule:nonzero;fill:rgb(27.45098%,32.941176%,26.666667%);fill-opacity:1;" d="M 67.601562 46 C 67.300781 46.757812 66.847656 47.121094 66.199219 47.601562 C 66.199219 47 66.199219 47 66.675781 46.460938 C 67.199219 46 67.199219 46 67.601562 46 Z M 67.601562 46 "/>
<path style=" stroke:none;fill-rule:nonzero;fill:rgb(25.490196%,30.196078%,25.882353%);fill-opacity:1;" d="M 70.601562 45.601562 C 70.988281 45.664062 70.988281 45.664062 71.398438 45.800781 C 71.464844 45.996094 71.53125 46.195312 71.601562 46.398438 C 71 46.800781 71 46.800781 70.5625 46.726562 C 70.441406 46.683594 70.324219 46.640625 70.199219 46.601562 C 70.332031 46.269531 70.464844 45.941406 70.601562 45.601562 Z M 70.601562 45.601562 "/>
<path style=" stroke:none;fill-rule:nonzero;fill:rgb(24.313725%,29.019608%,24.313725%);fill-opacity:1;" d="M 43.199219 3.199219 C 43.199219 4.050781 42.835938 4.476562 42.398438 5.199219 C 42.269531 5.199219 42.136719 5.199219 42 5.199219 C 42.082031 4.234375 42.492188 3.835938 43.199219 3.199219 Z M 43.199219 3.199219 "/>
<path style=" stroke:none;fill-rule:nonzero;fill:rgb(28.627451%,33.72549%,29.411765%);fill-opacity:1;" d="M 57 47.800781 C 57.496094 47.996094 57.496094 47.996094 58 48.199219 C 58 48.265625 58 48.332031 58 48.398438 C 57.011719 48.398438 56.019531 48.398438 55 48.398438 C 55 48.335938 55 48.269531 55 48.199219 C 55.191406 48.183594 55.191406 48.183594 55.386719 48.164062 C 55.632812 48.136719 55.632812 48.136719 55.886719 48.113281 C 56.050781 48.097656 56.21875 48.078125 56.386719 48.0625 C 56.796875 48.042969 56.796875 48.042969 57 47.800781 Z M 57 47.800781 "/>
<path style=" stroke:none;fill-rule:nonzero;fill:rgb(25.098039%,33.72549%,26.666667%);fill-opacity:1;" d="M 46.199219 47.398438 C 46.199219 47.730469 46.199219 48.058594 46.199219 48.398438 C 45.671875 48.398438 45.144531 48.398438 44.601562 48.398438 C 45.523438 47.398438 45.523438 47.398438 46.199219 47.398438 Z M 46.199219 47.398438 "/>
<path style=" stroke:none;fill-rule:nonzero;fill:rgb(28.235294%,31.372549%,27.45098%);fill-opacity:1;" d="M 55.199219 53.199219 C 55.726562 53.199219 56.257812 53.199219 56.800781 53.199219 C 56.46875 53.53125 56.140625 53.859375 55.800781 54.199219 C 55.667969 54.132812 55.535156 54.066406 55.398438 54 C 55.273438 53.585938 55.273438 53.585938 55.199219 53.199219 Z M 55.199219 53.199219 "/>
<path style=" stroke:none;fill-rule:nonzero;fill:rgb(25.098039%,29.803922%,23.529412%);fill-opacity:1;" d="M 65.800781 39.800781 C 65.734375 40.0625 65.667969 40.328125 65.601562 40.601562 C 65.136719 40.601562 64.675781 40.601562 64.199219 40.601562 C 64.898438 39.800781 64.898438 39.800781 65.800781 39.800781 Z M 65.800781 39.800781 "/>
<path style=" stroke:none;fill-rule:nonzero;fill:rgb(32.941176%,35.294118%,32.54902%);fill-opacity:1;" d="M 17.199219 32.800781 C 17.398438 32.996094 17.597656 33.195312 17.800781 33.398438 C 17.734375 33.53125 17.667969 33.664062 17.601562 33.800781 C 17.554688 34.175781 17.519531 34.550781 17.488281 34.925781 C 17.472656 35.125 17.453125 35.324219 17.4375 35.53125 C 17.425781 35.6875 17.414062 35.839844 17.398438 36 C 17.335938 36 17.269531 36 17.199219 36 C 17.199219 34.945312 17.199219 33.886719 17.199219 32.800781 Z M 17.199219 32.800781 "/>
<path style=" stroke:none;fill-rule:nonzero;fill:rgb(25.490196%,29.019608%,23.921569%);fill-opacity:1;" d="M 59.398438 37.398438 C 59.863281 37.398438 60.324219 37.398438 60.800781 37.398438 C 60.449219 37.8125 60.449219 37.8125 60 38.199219 C 59.550781 38.148438 59.550781 38.148438 59.199219 38 C 59.265625 37.800781 59.332031 37.605469 59.398438 37.398438 Z M 59.398438 37.398438 "/>
<path style=" stroke:none;fill-rule:nonzero;fill:rgb(23.529412%,30.980392%,20.784314%);fill-opacity:1;" d="M 53.398438 55.398438 C 53.664062 55.398438 53.929688 55.398438 54.199219 55.398438 C 54.066406 55.664062 53.9375 55.929688 53.800781 56.199219 C 53.46875 56.199219 53.140625 56.199219 52.800781 56.199219 C 53.050781 55.800781 53.050781 55.800781 53.398438 55.398438 Z M 53.398438 55.398438 "/>
<path style=" stroke:none;fill-rule:nonzero;fill:rgb(23.529412%,27.843137%,23.137255%);fill-opacity:1;" d="M 70.601562 37.601562 C 70.796875 37.601562 70.996094 37.601562 71.199219 37.601562 C 71.332031 37.929688 71.464844 38.261719 71.601562 38.601562 C 71.269531 38.664062 70.941406 38.730469 70.601562 38.800781 C 70.601562 38.402344 70.601562 38.007812 70.601562 37.601562 Z M 70.601562 37.601562 "/>
<path style=" stroke:none;fill-rule:nonzero;fill:rgb(34.117647%,37.254902%,34.117647%);fill-opacity:1;" d="M 17.199219 17.199219 C 17.398438 17.398438 17.597656 17.597656 17.800781 17.800781 C 17.734375 17.933594 17.667969 18.0625 17.601562 18.199219 C 17.554688 18.507812 17.519531 18.816406 17.488281 19.125 C 17.472656 19.289062 17.453125 19.453125 17.4375 19.621094 C 17.425781 19.746094 17.414062 19.871094 17.398438 20 C 17.335938 20 17.269531 20 17.199219 20 C 17.199219 19.074219 17.199219 18.152344 17.199219 17.199219 Z M 17.199219 17.199219 "/>
<path style=" stroke:none;fill-rule:nonzero;fill:rgb(22.745098%,27.843137%,23.529412%);fill-opacity:1;" d="M 40 40.199219 C 40.726562 40.199219 41.453125 40.199219 42.199219 40.199219 C 42.132812 40.332031 42.066406 40.464844 42 40.601562 C 41.46875 40.71875 40.941406 40.75 40.398438 40.800781 C 40.269531 40.601562 40.136719 40.402344 40 40.199219 Z M 40 40.199219 "/>
<path style=" stroke:none;fill-rule:nonzero;fill:rgb(25.882353%,30.588235%,25.882353%);fill-opacity:1;" d="M 47.800781 37.398438 C 48.195312 37.398438 48.59375 37.398438 49 37.398438 C 48.636719 37.800781 48.636719 37.800781 48.199219 38.199219 C 48.003906 38.199219 47.804688 38.199219 47.601562 38.199219 C 47.664062 37.9375 47.730469 37.671875 47.800781 37.398438 Z M 47.800781 37.398438 "/>
<path style=" stroke:none;fill-rule:nonzero;fill:rgb(21.568627%,27.058824%,21.176471%);fill-opacity:1;" d="M 34.199219 55 C 34.332031 55.132812 34.464844 55.265625 34.601562 55.398438 C 34.007812 55.894531 34.007812 55.894531 33.398438 56.398438 C 33.269531 56.335938 33.136719 56.269531 33 56.199219 C 33.75 55.226562 33.75 55.226562 34.199219 55 Z M 34.199219 55 "/>
<path style=" stroke:none;fill-rule:nonzero;fill:rgb(24.313725%,30.196078%,24.705882%);fill-opacity:1;" d="M 39.398438 45.800781 C 39.597656 45.867188 39.796875 45.933594 40 46 C 39.757812 46.5 39.507812 46.9375 39.199219 47.398438 C 39.175781 46.25 39.175781 46.25 39.398438 45.800781 Z M 39.398438 45.800781 "/>
<path style=" stroke:none;fill-rule:nonzero;fill:rgb(26.666667%,30.588235%,26.666667%);fill-opacity:1;" d="M 82.601562 33.398438 C 82.664062 33.398438 82.730469 33.398438 82.800781 33.398438 C 82.800781 33.929688 82.800781 34.457031 82.800781 35 C 82.601562 35.066406 82.402344 35.132812 82.199219 35.199219 C 82.316406 34.59375 82.445312 33.996094 82.601562 33.398438 Z M 82.601562 33.398438 "/>
<path style=" stroke:none;fill-rule:nonzero;fill:rgb(25.882353%,29.411765%,24.705882%);fill-opacity:1;" d="M 73.199219 12 C 73.265625 12 73.332031 12 73.398438 12 C 73.398438 12.394531 73.398438 12.792969 73.398438 13.199219 C 73.203125 13.265625 73.003906 13.332031 72.800781 13.398438 C 72.734375 13.136719 72.667969 12.871094 72.601562 12.601562 C 72.796875 12.535156 72.996094 12.46875 73.199219 12.398438 C 73.199219 12.269531 73.199219 12.136719 73.199219 12 Z M 73.199219 12 "/>
</g>
</svg>
